<?xml version="1.0" standalone="no"?>
<!DOCTYPE svg PUBLIC "-//W3C//DTD SVG 1.1//EN" "http://www.w3.org/Graphics/SVG/1.1/DTD/svg11.dtd" >
<svg xmlns="http://www.w3.org/2000/svg" xmlns:xlink="http://www.w3.org/1999/xlink" version="1.1">
<metadata>
Created by FontForge 20170731 at Mon Nov  2 08:32:30 1953
 By Aleksey,,,
Copyright (c) 2019 by www.fontiran.com All rights reserved.
</metadata>
<defs>
<font id="KalamehWeb-Regular" horiz-adv-x="367" >
  <font-face 
    font-family="KalamehWeb"
    font-weight="400"
    font-stretch="normal"
    units-per-em="1100"
    panose-1="0 0 0 0 0 0 0 0 0 0"
    ascent="880"
    descent="-220"
    x-height="384"
    cap-height="546"
    bbox="-185 -412 1152 1553"
    underline-thickness="20"
    underline-position="-163"
    unicode-range="U+0020-FE87"
  />
<missing-glyph horiz-adv-x="550" 
 />
    <glyph glyph-name="uniFE00_uniFE5B" unicode="&#xfe5b;&#xfe00;" horiz-adv-x="450" 
d="M390 550v-363q0 -39 -14.5 -73t-40 -59.5t-59.5 -40t-73 -14.5h-125v60h125q26 0 49.5 10t40.5 27t27 40t10 50v363h60zM138 118l-98 396l58 14l98 -396z" />
    <glyph glyph-name="uniFE00_uniFE5A" unicode="&#xfe5a;&#xfe00;" horiz-adv-x="506" 
d="M196 132l-98 396l-58 -14l98 -396zM506 60q31 0 31 -29q0 -31 -31 -31h-8q-48 0 -89 24t-67 62q-25 -39 -66 -62.5t-92 -23.5h-137v60h137q27 0 50.5 10t40.5 27t27.5 40t11.5 50v364h57v-364q0 -27 10 -50t27.5 -40t40.5 -27t49 -10h8z" />
    <glyph glyph-name="uniFC5E" unicode="&#xfc5e;" arabic-form="isolated" 
d="M125 790q15 15 3 32q-9 9 -19 9q-5 0 -13 -5l-26 36q20 14 40 14q35 0 54 -28q3 -5 6.5 -10.5t5.5 -11.5l33 22l-14 19q-17 20 -12 46q3 26 26 43q16 13 36 13q32 0 53 -27q15 -18 12 -46q-4 -23 -24 -43q-5 -4 -17 -12.5t-21 -14.5q-13 -10 -31 -23.5t-34.5 -26
t-29.5 -22.5t-18 -14l-27 38zM260 886q7 6 8.5 15t-4.5 17q-7 9 -18 9q-10 0 -18 -11t0 -25q4 -4 7.5 -8.5t7.5 -8.5zM212 592q-12 0 -23 3.5t-20 12.5q-19 -16 -45 -16q-29 0 -49.5 19t-20.5 48v48h48v-48q0 -9 6.5 -15.5t15.5 -6.5t15 6.5t6 15.5v38h46v-38q0 -9 6 -15.5
t15 -6.5t15.5 6.5t6.5 15.5v53h48v-53q0 -29 -20.5 -48t-49.5 -19z" />
    <glyph glyph-name="uniFC5F" unicode="&#xfc5f;" arabic-form="isolated" 
d="M228 765l-134 -104l-27 41l137 94zM274 700l-135 -103l-26 40l137 94zM232 812q-12 0 -23 3.5t-20 12.5q-19 -16 -45 -16q-29 0 -49.5 19t-20.5 48v48h48v-48q0 -9 6.5 -15.5t15.5 -6.5t15 6.5t6 15.5v38h46v-38q0 -9 6 -15.5t15 -6.5t15.5 6.5t6.5 15.5v53h48v-53
q0 -29 -20.5 -48t-49.5 -19z" />
    <glyph glyph-name="uniFC60" unicode="&#xfc60;" arabic-form="isolated" 
d="M284 839l-135 -103l-26 40l137 94zM212 595q-12 0 -23 3.5t-20 12.5q-19 -16 -45 -16q-29 0 -49.5 19t-20.5 48v48h48v-48q0 -9 6.5 -15.5t15.5 -6.5t15 6.5t6 15.5v38h46v-38q0 -9 6 -15.5t15 -6.5t15.5 6.5t6.5 15.5v53h48v-53q0 -29 -20.5 -48t-49.5 -19z" />
    <glyph glyph-name="uniFC61" unicode="&#xfc61;" arabic-form="isolated" 
d="M256 933q7 -9 10.5 -20.5t1.5 -24.5q-3 -25 -24 -43q-5 -5 -18 -13t-21 -14q-13 -9 -27.5 -20t-28 -21.5t-24 -19t-16.5 -13.5l-26 38l84 58l-15 19q-7 9 -10.5 21t-1.5 25q3 23 21.5 39t41.5 16q15 0 29 -6.5t24 -20.5zM191 914q-8 -5 -9.5 -14t4.5 -17q3 -5 7 -9t7 -8
l17 12q8 5 9 14.5t-4 16.5q-6 9 -18 9q-9 0 -13 -4zM212 602q-12 0 -23 3.5t-20 12.5q-19 -16 -45 -16q-29 0 -49.5 19t-20.5 48v48h48v-48q0 -9 6.5 -15.5t15.5 -6.5t15 6.5t6 15.5v38h46v-38q0 -9 6 -15.5t15 -6.5t15.5 6.5t6.5 15.5v53h48v-53q0 -29 -20.5 -48t-49.5 -19
z" />
    <glyph glyph-name="uniFC62" unicode="&#xfc62;" arabic-form="isolated" 
d="M256 628l-135 -103l-26 40l137 94zM223 691q-12 0 -23 3.5t-20 12.5q-19 -16 -45 -16q-29 0 -49.5 19t-20.5 48v48h48v-48q0 -9 6.5 -15.5t15.5 -6.5t15 6.5t6 15.5v38h46v-38q0 -9 6 -15.5t15 -6.5t15.5 6.5t6.5 15.5v53h48v-53q0 -29 -20.5 -48t-49.5 -19z" />
    <glyph glyph-name="uniFC63" unicode="&#xfc63;" arabic-form="isolated" 
d="M232 594q-12 0 -23 3.5t-20 12.5q-19 -16 -45 -16q-29 0 -49.5 19t-20.5 48v48h48v-48q0 -9 6.5 -15.5t15.5 -6.5t15 6.5t6 15.5v38h46v-38q0 -9 6 -15.5t15 -6.5t15.5 6.5t6.5 15.5v53h48v-53q0 -29 -20.5 -48t-49.5 -19zM219 896v-169h-62v169h62z" />
    <glyph glyph-name="uniFDF2" unicode="&#xfdf2;" horiz-adv-x="1040" arabic-form="isolated" 
d="M616 519l-12 91h35l-9 -91h-14zM980 550v-369q0 -37 -14 -70t-38.5 -58t-57 -39t-70.5 -14h-21q-45 0 -81 19t-61 51q-17 -32 -49.5 -51t-70.5 -19h-90q-35 0 -64.5 16t-49.5 44q-20 -28 -51.5 -44t-68.5 -16q-32 0 -60 12t-48.5 32.5t-32.5 48.5t-12 60t12 60t32.5 48.5
t48.5 32.5t60 12h97v39h56v-206q0 -35 24 -58t57 -23h90q35 0 58 23t23 58v206h58v-164q0 -26 10 -48.5t26.5 -39t39 -26t47.5 -9.5h21q26 0 48 9.5t38.5 26t26 39t9.5 48.5v369h58zM288 153v97h-95q-20 0 -37.5 -7.5t-31 -21t-21 -31t-7.5 -37.5t7.5 -37.5t21 -31t31 -21
t37.5 -7.5q41 0 68 28.5t27 68.5zM661 395q-11 0 -19.5 2.5t-16.5 10.5q-8 -8 -17 -10.5t-20 -2.5q-24 0 -40.5 15.5t-16.5 39.5v40h39v-40q0 -18 18 -18q7 0 12.5 5t5.5 13v32h38v-32q0 -18 17 -18q18 0 18 18v44h40v-44q0 -24 -17 -39.5t-41 -15.5z" />
    <glyph glyph-name="uniFE70" unicode="&#xfe70;" horiz-adv-x="1040" arabic-form="isolated" 
d="M616 519l-12 91h35l-9 -91h-14zM980 505v-324q0 -37 -14 -70t-38.5 -58t-57 -39t-70.5 -14h-21q-45 0 -81 19t-61 51q-17 -32 -49.5 -51t-70.5 -19h-90q-35 0 -64.5 16t-49.5 44q-20 -28 -51.5 -44t-68.5 -16q-32 0 -60 12t-48.5 32.5t-32.5 48.5t-12 60t12 60t32.5 48.5
t48.5 32.5t60 12h97v39h56v-206q0 -35 24 -58t57 -23h90q35 0 58 23t23 58v206h58v-164q0 -26 10 -48.5t26.5 -39t39 -26t47.5 -9.5h21q26 0 48 9.5t38.5 26t26 39t9.5 48.5v324h58zM288 153v97h-95q-20 0 -37.5 -7.5t-31 -21t-21 -31t-7.5 -37.5t7.5 -37.5t21 -31t31 -21
t37.5 -7.5q41 0 68 28.5t27 68.5zM661 395q-11 0 -19.5 2.5t-16.5 10.5q-8 -8 -17 -10.5t-20 -2.5q-24 0 -40.5 15.5t-16.5 39.5v40h39v-40q0 -18 18 -18q7 0 12.5 5t5.5 13v32h38v-32q0 -18 17 -18q18 0 18 18v44h40v-44q0 -24 -17 -39.5t-41 -15.5z" />
    <glyph glyph-name="uniFE71" unicode="&#xfe71;" horiz-adv-x="104" arabic-form="medial" 
 />
    <glyph glyph-name="uniFE72" unicode="&#xfe72;" horiz-adv-x="157" arabic-form="isolated" 
 />
    <glyph glyph-name="uniFE74" unicode="&#xfe74;" horiz-adv-x="157" arabic-form="isolated" 
 />
    <glyph glyph-name="uniFE76" unicode="&#xfe76;" horiz-adv-x="157" arabic-form="isolated" 
 />
    <glyph glyph-name="uniFE77" unicode="&#xfe77;" horiz-adv-x="104" arabic-form="medial" 
 />
    <glyph glyph-name="uniFE78" unicode="&#xfe78;" horiz-adv-x="157" arabic-form="isolated" 
 />
    <glyph glyph-name="uniFE79" unicode="&#xfe79;" horiz-adv-x="104" arabic-form="medial" 
 />
    <glyph glyph-name="uniFE7A" unicode="&#xfe7a;" horiz-adv-x="157" arabic-form="isolated" 
 />
    <glyph glyph-name="uniFE7B" unicode="&#xfe7b;" horiz-adv-x="104" arabic-form="medial" 
 />
    <glyph glyph-name="uniFE7C" unicode="&#xfe7c;" horiz-adv-x="157" arabic-form="isolated" 
 />
    <glyph glyph-name="uniFE7D" unicode="&#xfe7d;" horiz-adv-x="104" arabic-form="medial" 
 />
    <glyph glyph-name="uniFE7E" unicode="&#xfe7e;" horiz-adv-x="157" arabic-form="isolated" 
 />
    <glyph glyph-name="uniFE7F" unicode="&#xfe7f;" horiz-adv-x="104" arabic-form="medial" 
 />
    <glyph glyph-name="uniFE80" unicode="&#x621;" horiz-adv-x="301" arabic-form="isolated" 
 />
    <glyph glyph-name="uniFE81" unicode="&#x622;" horiz-adv-x="233" arabic-form="isolated" 
 />
    <glyph glyph-name="uniFE82" unicode="&#x622;" horiz-adv-x="233" arabic-form="final" 
 />
    <glyph glyph-name="uniFE83" unicode="&#x623;" horiz-adv-x="223" arabic-form="isolated" 
 />
    <glyph glyph-name="uniFE84" unicode="&#x623;" horiz-adv-x="223" arabic-form="final" 
 />
    <glyph glyph-name="uniFE85" unicode="&#x624;" horiz-adv-x="437" arabic-form="isolated" 
 />
    <glyph glyph-name="uniFE86" unicode="&#x624;" horiz-adv-x="437" arabic-form="final" 
 />
    <glyph glyph-name="uniFE87" unicode="&#x625;" horiz-adv-x="187" arabic-form="isolated" 
 />
    <glyph glyph-name=".notdef" horiz-adv-x="550" 
 />
    <glyph glyph-name=".null" horiz-adv-x="0" 
 />
    <glyph glyph-name="nonmarkingreturn" horiz-adv-x="215" 
 />
    <glyph glyph-name="space" unicode=" " horiz-adv-x="157" 
 />
    <glyph glyph-name="exclam" unicode="!" horiz-adv-x="207" 
d="M79 177q0 3 -0.5 31.5t-2 69.5t-2.5 89t-2.5 89.5t-2 71t-0.5 33.5h70q0 -4 -0.5 -33.5t-1.5 -71t-1.5 -89.5t-1.5 -89t-1.5 -69.5t-0.5 -31.5h-53zM104 -10q18 0 30.5 12t12.5 30t-12.5 30t-30.5 12t-31 -12t-13 -30t13 -30t31 -12z" />
    <glyph glyph-name="quotedbl" unicode="&#x22;" horiz-adv-x="382" 
d="M216 500q0 4 -1.5 22.5t-3.5 41t-3.5 42.5t-1.5 26h56q0 -6 -1 -26t-2.5 -42.5t-3 -41t-1.5 -22.5h-38zM175 632q0 -6 -1 -26t-2.5 -42.5t-2.5 -41t-1 -22.5h-41q0 4 -1 22.5t-2.5 41t-2.5 42.5t-1 26h55z" />
    <glyph glyph-name="numbersign" unicode="#" horiz-adv-x="597" 
d="M130 258h107l35 128h42l-35 -128h88l36 128h40l-35 -128h81v-36h-90l-30 -106h98v-35h-108l-34 -125h-42l34 125h-88l-34 -125h-42l34 125h-80v35h90l30 106h-97v36zM239 116h88l29 106h-87z" />
    <glyph glyph-name="dollar" unicode="$" horiz-adv-x="516" 
d="M464 149q0 -75 -51 -115.5t-133 -44.5v-94h-51v94q-48 4 -98 15t-96 30l15 52q54 -22 110 -33.5t104 -11.5q63 0 102.5 26.5t39.5 76.5q0 31 -16 50.5t-41.5 31.5t-58 19t-65.5 14q-45 9 -77 21t-52 28.5t-29 39t-9 52.5q0 68 46.5 108t124.5 45v100h51v-100
q46 -2 90 -11t77 -21l-15 -49q-47 14 -95.5 22t-87.5 8q-60 0 -95.5 -26t-35.5 -74q0 -41 33 -60t106 -34q45 -10 83 -21t65.5 -28.5t43 -43.5t15.5 -66z" />
    <glyph glyph-name="percent" unicode="%" horiz-adv-x="660" 
d="M143 351q0 -28 4.5 -45.5t12 -27.5t17.5 -13.5t22 -3.5q11 0 21 3.5t17.5 13.5t12 27.5t4.5 45.5q0 27 -4.5 44.5t-12 27.5t-17.5 14t-21 4q-12 0 -22 -4t-17.5 -14t-12 -27.5t-4.5 -44.5zM308 351q0 -80 -30.5 -112t-78.5 -32t-78.5 32t-30.5 112t30.5 112t78.5 32
t78.5 -32t30.5 -112zM463 130q0 -27 4.5 -44.5t12 -27.5t17.5 -13.5t21 -3.5q12 0 22 3.5t17.5 13.5t12 27.5t4.5 44.5q0 28 -4.5 45.5t-12 27.5t-17.5 13.5t-22 3.5q-11 0 -21 -3.5t-17.5 -13.5t-12 -27.5t-4.5 -45.5zM627 130q0 -79 -29.5 -111t-79.5 -32q-48 0 -78 32
t-30 111q0 41 8 68.5t22 44.5t34 24t44 7q25 0 45 -7t34.5 -24t22 -44.5t7.5 -68.5zM531 497l-272 -487l-59 1l272 483z" />
    <glyph glyph-name="ampersand" unicode="&#x26;" horiz-adv-x="589" 
d="M511 273l-54 -17q-8 -32 -20.5 -71t-31.5 -78q37 -27 66.5 -48.5t47.5 -33.5l-20 -36q-8 5 -38.5 26.5t-77.5 57.5q-26 -38 -67 -61.5t-102 -23.5q-19 0 -45.5 5.5t-50.5 20t-41 40.5t-17 68q0 28 10 49.5t26.5 39t37 31.5t42.5 27q-21 29 -33 54.5t-12 47.5q0 29 9 46.5
t23 27t30 13t31 3.5q41 0 68 -19.5t27 -60.5q0 -39 -25.5 -66t-60.5 -50q29 -35 65.5 -68.5t75.5 -64.5q18 40 28.5 78t18.5 75l78 25zM198 240q-35 -23 -61 -51t-26 -67q0 -31 13 -50t31 -29.5t35.5 -14.5t26.5 -4q45 0 78 20t58 53q-41 32 -81 68.5t-71 71.5zM275 374
q0 28 -11 41t-39 13q-26 0 -37 -15t-11 -41q0 -32 36 -82q26 18 44 37t18 47z" />
    <glyph glyph-name="quotesingle" unicode="'" horiz-adv-x="295" 
d="M175 632q0 -6 -1 -26.5t-2.5 -42.5t-2.5 -41t-1 -22h-41q0 3 -1 22t-2.5 41t-2.5 42.5t-1 26.5h55z" />
    <glyph glyph-name="parenleft" unicode="(" horiz-adv-x="292" 
d="M185 -134q-125 166 -125 332t125 336h47l-1 -1q-1 -1 -1 -1.5t-1 -1.5q-105 -162 -105 -326q0 -163 106 -334l1 -2q0 -1 1 -2h-47z" />
    <glyph glyph-name="parenright" unicode=")" horiz-adv-x="288" 
d="M60 -131v2t0.5 1.5t0.5 1.5q103 163 103 325q0 160 -101 317l-1 2l-2 2h46q60 -82 91 -163.5t31 -162.5q0 -82 -31 -163t-91 -162h-46z" />
    <glyph glyph-name="asterisk" unicode="*" horiz-adv-x="385" 
d="M345 500q-14 -4 -26.5 -7t-23.5 -7q-20 -5 -40 -10.5t-30 -8.5q7 -8 19.5 -23.5t26.5 -31.5q15 -19 33 -39l-46 -33q-8 11 -14.5 22t-13.5 22q-11 17 -22 34.5t-17 26.5q-5 -9 -16 -26.5t-22 -34.5q-7 -11 -13.5 -22t-13.5 -22l-45 33q9 11 17 20.5t16 19.5
q14 17 27 32.5t19 23.5q-10 3 -30 8l-40 10q-11 3 -23.5 6t-26.5 7l17 53q13 -5 25.5 -9.5t23.5 -9.5q19 -8 38 -15t28 -11q0 10 -1 30.5t-2 40.5q-1 12 -2 24.5t-2 26.5h55q-1 -27 -3 -51q-1 -20 -2 -40.5t-2 -30.5q10 4 29 11t38 15q11 5 23 9.5t25 9.5z" />
    <glyph glyph-name="asterisk" unicode="&#x66d;" horiz-adv-x="385" 
d="M345 500q-14 -4 -26.5 -7t-23.5 -7q-20 -5 -40 -10.5t-30 -8.5q7 -8 19.5 -23.5t26.5 -31.5q15 -19 33 -39l-46 -33q-8 11 -14.5 22t-13.5 22q-11 17 -22 34.5t-17 26.5q-5 -9 -16 -26.5t-22 -34.5q-7 -11 -13.5 -22t-13.5 -22l-45 33q9 11 17 20.5t16 19.5
q14 17 27 32.5t19 23.5q-10 3 -30 8l-40 10q-11 3 -23.5 6t-26.5 7l17 53q13 -5 25.5 -9.5t23.5 -9.5q19 -8 38 -15t28 -11q0 10 -1 30.5t-2 40.5q-1 12 -2 24.5t-2 26.5h55q-1 -27 -3 -51q-1 -20 -2 -40.5t-2 -30.5q10 4 29 11t38 15q11 5 23 9.5t25 9.5z" />
    <glyph glyph-name="plus" unicode="+" horiz-adv-x="450" 
d="M196 227v156h59v-156h155v-59h-155v-155h-59v155h-156v59h156z" />
    <glyph glyph-name="comma" unicode="," horiz-adv-x="167" 
d="M106 78q27 -9 27 -36q0 -18 -12.5 -30t-30.5 -12t-31 12t-13 30q0 7 3 15.5t9 21t15 31t21 45.5h41z" />
    <glyph glyph-name="hyphen" unicode="-" horiz-adv-x="413" 
d="M40 216h333v-58h-333v58z" />
    <glyph glyph-name="hyphen" unicode="&#x2010;" horiz-adv-x="413" 
d="M40 216h333v-58h-333v58z" />
    <glyph glyph-name="period" unicode="." horiz-adv-x="233" 
d="M117 -13q-23 0 -40 15.5t-17 39.5q0 23 17 38.5t40 15.5t39.5 -15.5t16.5 -38.5q0 -24 -16.5 -39.5t-39.5 -15.5z" />
    <glyph glyph-name="slash" unicode="/" horiz-adv-x="343" 
d="M303 441q0 -1 -1 -4l-213 -555l-49 7l216 559z" />
    <glyph glyph-name="zero" unicode="0" horiz-adv-x="579" 
d="M289 558q56 0 102 -20.5t79 -58t51 -90t18 -116.5t-18 -116t-51 -89.5t-79 -58t-102 -20.5t-102 20.5t-78.5 58t-50.5 89.5t-18 116t18 116.5t50.5 90t78.5 58t102 20.5zM289 49q41 0 75 16t58 45.5t37.5 71t13.5 91.5q0 51 -13.5 92.5t-37.5 71t-58 45.5t-75 16t-75 -16
t-58 -45.5t-37 -71t-13 -92.5q0 -50 13 -91.5t37 -71t58 -45.5t75 -16z" />
    <glyph glyph-name="one" unicode="1" horiz-adv-x="258" 
d="M135 1v475l-105 1l1 69h167v-545h-63z" />
    <glyph glyph-name="two" unicode="2" horiz-adv-x="460" 
d="M43 1v42l192 180q21 20 40.5 39.5t34.5 39t24 40t9 43.5q0 54 -35.5 83.5t-94.5 29.5q-31 0 -71 -10.5t-85 -32.5l-17 54q40 23 88.5 36t93.5 13t80 -12.5t58.5 -35t36 -52.5t12.5 -65q0 -31 -11.5 -59.5t-30.5 -55.5t-44.5 -52.5t-54.5 -51.5l-128 -115h280v-58h-377z
" />
    <glyph glyph-name="three" unicode="3" horiz-adv-x="453" 
d="M220 309h8q88 -3 136.5 -42.5t48.5 -108.5q0 -37 -14.5 -68t-41.5 -53.5t-65 -35t-84 -12.5h-166v56h168q29 0 54 8.5t44 23.5t30 35.5t11 44.5q0 48 -37 72.5t-105 24.5h-79v32l177 201h-265v59h354v-41z" />
    <glyph glyph-name="four" unicode="4" horiz-adv-x="536" 
d="M496 160v-56h-73v-103h-64v103h-324v43l327 399h61v-386h73zM359 160v296l-239 -296h239z" />
    <glyph glyph-name="five" unicode="5" horiz-adv-x="464" 
d="M231 328q93 -5 145 -47t52 -117q0 -40 -14.5 -72.5t-40.5 -55t-62 -35t-78 -12.5h-193v59h190q57 0 95.5 30.5t38.5 85.5q0 47 -37 74.5t-103 30.5l-163 8l25 269h323v-60h-267l-16 -153z" />
    <glyph glyph-name="six" unicode="6" horiz-adv-x="477" 
d="M437 174q0 -36 -13.5 -67.5t-37 -55.5t-55 -37.5t-67.5 -13.5h-29q-36 0 -68 13.5t-55.5 34.5t-37.5 47.5t-14 53.5v224q0 35 14 66.5t37.5 55t55 37.5t65.5 15h174v-59h-169q-24 0 -45 -9.5t-37 -25.5t-25 -37t-9 -43v-13h143q35 0 66.5 -13.5t55 -37.5t37.5 -55.5
t14 -67.5v-12zM377 185q0 23 -9.5 43.5t-25 36t-37 25t-45.5 9.5h-139v-150q0 -13 9 -28.5t25 -29t37.5 -22.5t46.5 -9h21q24 0 45.5 9.5t37 25t25 36.5t9.5 43v11z" />
    <glyph glyph-name="seven" unicode="7" horiz-adv-x="465" 
d="M192 1h-70l232 485h-314v60h390v-39z" />
    <glyph glyph-name="eight" unicode="8" horiz-adv-x="494" 
d="M341 292q61 -17 93.5 -52.5t32.5 -87.5q0 -36 -15.5 -65.5t-43.5 -51t-67 -33.5t-87 -12t-87.5 12t-67.5 33.5t-43.5 51t-15.5 65.5q0 50 29 84.5t85 52.5q-85 33 -85 124q0 33 13.5 60t38 46t58.5 29.5t75 10.5t75 -10.5t58 -29.5t37.5 -46t13.5 -60q0 -44 -21.5 -75.5
t-62.5 -48.5zM134 411q0 -45 32.5 -71.5t87.5 -26.5q54 0 86.5 26.5t32.5 71.5q0 42 -32.5 68t-86.5 26q-55 0 -87.5 -26t-32.5 -68zM254 46q33 0 60 8.5t46 23t29.5 34.5t10.5 43q0 47 -40 75t-106 28t-106.5 -28t-40.5 -75q0 -23 10.5 -43t30 -34.5t46.5 -23t60 -8.5z" />
    <glyph glyph-name="nine" unicode="9" horiz-adv-x="477" 
d="M40 373q0 36 13.5 67.5t37 55.5t55 37.5t67.5 13.5h29q36 0 68 -13.5t55.5 -34.5t37.5 -47.5t14 -53.5v-224q0 -35 -14 -66.5t-37.5 -55t-54.5 -37.5t-66 -15h-174v59h169q24 0 45 9.5t37 25.5t25 37t9 43v13h-143q-35 0 -66.5 13.5t-55 37.5t-37.5 55.5t-14 67.5v12z
M100 362q0 -22 9.5 -43t25 -36.5t37 -25t45.5 -9.5h139v150q0 13 -9 28.5t-25 29t-37.5 22.5t-46.5 9h-21q-24 0 -45.5 -9.5t-37 -25t-25 -36t-9.5 -43.5v-11z" />
    <glyph glyph-name="colon" unicode=":" horiz-adv-x="228" 
d="M114 217q-23 0 -38.5 15t-15.5 38t15.5 37.5t38.5 14.5t38.5 -14.5t15.5 -37.5t-15.5 -38t-38.5 -15zM114 -13q-23 0 -38.5 15t-15.5 38t15.5 37.5t38.5 14.5t38.5 -14.5t15.5 -37.5t-15.5 -38t-38.5 -15z" />
    <glyph glyph-name="semicolon" unicode=";" horiz-adv-x="212" 
d="M109 264q18 0 30.5 -12t12.5 -30t-12.5 -30t-30.5 -12t-30.5 12t-12.5 30t12.5 30t30.5 12zM92 4q-27 9 -27 36q0 18 12.5 30t30.5 12t31 -12t13 -30q0 -7 -3 -15.5t-9 -21t-15 -31t-21 -45.5h-41z" />
    <glyph glyph-name="less" unicode="&#x3c;" horiz-adv-x="446" 
d="M40 174v52l366 183v-51l-316 -158l316 -159v-51z" />
    <glyph glyph-name="equal" unicode="=" horiz-adv-x="467" 
d="M40 314h387v-62h-387v62zM40 147h387v-62h-387v62z" />
    <glyph glyph-name="greater" unicode="&#x3e;" horiz-adv-x="446" 
d="M406 222v-51l-366 -184v51l316 158l-316 159v51z" />
    <glyph glyph-name="question" unicode="?" horiz-adv-x="379" 
d="M60 522q20 22 48 34t60 12q31 0 58.5 -12t48 -32.5t32.5 -48t12 -59.5q0 -35 -13 -61.5t-37 -50.5q-2 -2 -5 -4t-5 -6q-20 -14 -33 -31t-24 -24q-31 -20 -37.5 -47.5t-6.5 -60.5h-45v5q0 28 2 48t9 36.5t19 32.5t32 36q9 8 24.5 21t28.5 27l17 19q14 23 14 53
q0 21 -8 39.5t-21.5 32.5t-32 22.5t-39.5 8.5q-38 0 -64 -24zM134 76q16 0 27 -11t11 -27q0 -17 -11 -28t-27 -11q-17 0 -28 11t-11 28q0 16 11 27t28 11z" />
    <glyph glyph-name="at" unicode="@" horiz-adv-x="449" 
d="M239 23q-56 0 -98.5 19.5t-65.5 57t-23 90.5q0 31 9.5 62t28 57t44.5 44q43 27 101 27q46 0 83 -19q36 -18 56 -52.5t20 -73.5q0 -35 -16.5 -65.5t-42.5 -49t-53 -18.5q-9 0 -16 5t-11 12t-5 14q-14 -15 -29 -23t-30 -8q-5 0 -9 1q-29 4 -44 27t-15 55q0 30 13.5 59
t38.5 45q23 15 43 15q17 0 31.5 -8.5t25.5 -25.5l7 33l32 -5l-27 -124q-5 -24 -5 -29t3.5 -8.5t9.5 -3.5q10 0 25 11q21 14 33.5 39.5t12.5 51.5q0 32 -16 59t-47 42q-30 16 -69 16q-45 0 -80 -20.5t-55 -57t-20 -81.5q0 -46 20 -78t56 -48.5t84 -16.5q43 0 75 14l9 -25
q-35 -16 -84 -16zM159 215q-6 -19 -6 -34q0 -25 13 -38.5t31 -13.5q17 0 33.5 11t26.5 32.5t10 50.5q0 16 -6.5 28t-17 18.5t-22.5 6.5q-20 0 -37 -17.5t-25 -43.5z" />
    <glyph glyph-name="A" unicode="A" horiz-adv-x="615" 
d="M102 1h-72l248 549h59l248 -549h-71l-59 131h-295zM186 190h242l-121 274z" />
    <glyph glyph-name="B" unicode="B" horiz-adv-x="517" 
d="M261 498h-137v-188h135q60 0 94 25.5t34 70.5q0 48 -33 70t-93 22zM266 58q69 0 108 25.5t39 77.5q0 45 -38 69t-101 24h-150v-196h142zM359 288q57 -14 87.5 -48t30.5 -83q0 -77 -55.5 -117t-150.5 -40h-211v556h206q85 0 134 -36.5t49 -106.5q0 -44 -23 -76t-67 -49z
" />
    <glyph glyph-name="C" unicode="C" horiz-adv-x="568" 
d="M515 470q-49 13 -90.5 19.5t-78.5 6.5q-57 0 -101.5 -16.5t-75 -45.5t-46.5 -70t-16 -90q0 -51 16.5 -92.5t46.5 -71t72.5 -45.5t94.5 -16q36 0 84 7.5t105 22.5l12 -56q-54 -17 -106 -25.5t-97 -8.5q-67 0 -121.5 20.5t-93 58t-59.5 89.5t-21 116t21 116.5t60 90
t94.5 58t124.5 20.5q47 0 94.5 -7t92.5 -21z" />
    <glyph glyph-name="D" unicode="D" horiz-adv-x="571" 
d="M245 552q63 0 116 -19t90.5 -55t58.5 -87t21 -114q0 -65 -21 -117t-58 -88.5t-88 -56t-112 -19.5h-192v556h185zM252 56q46 0 85 15t67 43.5t44 69.5t16 93q0 50 -16 90t-45 68t-69 42.5t-89 14.5h-121v-436h128z" />
    <glyph glyph-name="E" unicode="E" horiz-adv-x="481" 
d="M408 303v-60h-285v-183h318v-59h-381v545h381v-60h-318v-183h285z" />
    <glyph glyph-name="F" unicode="F" horiz-adv-x="462" 
d="M399 284v-60h-275v-223h-64v545h372v-60h-308v-202h275z" />
    <glyph glyph-name="G" unicode="G" horiz-adv-x="638" 
d="M578 60q-129 -56 -248 -56q-65 0 -118.5 20.5t-91.5 58t-59 90t-21 116.5t21 116t59 89.5t91.5 58t118.5 20.5q48 0 98.5 -7t99.5 -21l-14 -59q-52 13 -97.5 19t-82.5 6q-52 0 -94 -16t-72 -45t-46 -70t-16 -91t16 -91t45.5 -70.5t71 -45.5t91.5 -16q42 0 90.5 8.5
t96.5 25.5v157h-215v60h276v-257z" />
    <glyph glyph-name="H" unicode="H" horiz-adv-x="565" 
d="M441 1v240h-317v-240h-64v545h64v-246h317v246h64v-545h-64z" />
    <glyph glyph-name="I" unicode="I" horiz-adv-x="184" 
d="M124 1h-64v545h64v-545z" />
    <glyph glyph-name="J" unicode="J" horiz-adv-x="459" 
d="M399 202q0 -102 -50 -157.5t-138 -55.5q-45 0 -87.5 9t-93.5 27l14 57q51 -16 90.5 -23.5t76.5 -7.5q57 0 90 38.5t33 111.5v282h-219v63h284v-344z" />
    <glyph glyph-name="K" unicode="K" horiz-adv-x="473" 
d="M253 282q78 -11 125.5 -57.5t47.5 -124.5v-99h-63v100q-2 60 -43 91.5t-104 31.5h-92v-223h-64v545h64v-261h51l188 261h80z" />
    <glyph glyph-name="L" unicode="L" horiz-adv-x="453" 
d="M60 1v545h63v-487h300v-58h-363z" />
    <glyph glyph-name="M" unicode="M" horiz-adv-x="666" 
d="M60 1v545h60l213 -464l213 464h60v-545h-56v400l-189 -400h-55l-190 400v-400h-56z" />
    <glyph glyph-name="N" unicode="N" horiz-adv-x="587" 
d="M120 546l343 -439v439h64v-545h-63l-340 437v-437h-64v545h60z" />
    <glyph glyph-name="O" unicode="O" horiz-adv-x="652" 
d="M327 558q63 0 115.5 -20.5t90 -58t58.5 -90t21 -116.5t-21 -116t-58.5 -89.5t-90 -58t-115.5 -20.5q-64 0 -116.5 20.5t-90.5 58t-59 89.5t-21 116t21 116.5t59 90t90.5 58t116.5 20.5zM326 49q49 0 89.5 16t69.5 45.5t45 71t16 91.5q0 51 -16 92t-45 70.5t-69.5 45.5
t-89.5 16t-89.5 -16t-69.5 -45.5t-45 -70.5t-16 -92q0 -50 16 -91.5t45 -71t69.5 -45.5t89.5 -16z" />
    <glyph glyph-name="P" unicode="P" horiz-adv-x="500" 
d="M245 551q48 0 87.5 -12.5t68 -36t44 -58t15.5 -78.5q0 -41 -15.5 -75t-44 -58t-68 -37.5t-87.5 -13.5h-121v-182h-64v551h185zM251 241q65 0 105.5 34t40.5 91q0 62 -40.5 93.5t-105.5 31.5h-127v-250h127z" />
    <glyph glyph-name="Q" unicode="Q" horiz-adv-x="652" 
d="M612 273q0 -94 -42.5 -160.5t-117.5 -98.5l76 -87h-82l-59 67q-14 -2 -29 -3.5t-32 -1.5q-63 0 -116 20.5t-90.5 58t-58.5 89.5t-21 116t21 116.5t58.5 90t90.5 58t116 20.5q64 0 116.5 -20.5t90 -58t58.5 -90t21 -116.5zM326 49q49 0 89.5 16t69.5 45.5t45 71t16 91.5
q0 51 -16 92t-45 70.5t-69.5 45.5t-89.5 16t-89.5 -16t-69.5 -45.5t-45 -70.5t-16 -92q0 -50 16 -91.5t45 -71t69.5 -45.5t89.5 -16z" />
    <glyph glyph-name="R" unicode="R" horiz-adv-x="518" 
d="M267 196q-10 -1 -20 -1.5t-20 -0.5h-103v-193h-64v550h180q48 0 87 -11.5t66.5 -33.5t43 -54.5t15.5 -75.5q0 -62 -32 -103.5t-89 -61.5l157 -210h-79zM245 252q64 0 104 32.5t40 91.5q0 60 -40.5 88t-106.5 28h-118v-240h121z" />
    <glyph glyph-name="S" unicode="S" horiz-adv-x="492" 
d="M429 481q-47 14 -96 22.5t-87 8.5q-57 0 -91 -24.5t-34 -70.5q0 -39 31.5 -57t101.5 -32q45 -10 83.5 -21t66 -28.5t43 -44t15.5 -67.5q0 -39 -15 -69.5t-42 -51.5t-64.5 -31.5t-82.5 -10.5q-53 0 -113 12.5t-115 34.5l18 60q54 -23 110 -35t103 -12q60 0 98 25t38 73
q0 27 -13.5 45t-36 29.5t-51 19t-58.5 13.5q-33 6 -66 14.5t-59 24t-42.5 41.5t-16.5 66q0 72 53 113.5t140 41.5q52 0 105.5 -10t93.5 -24z" />
    <glyph glyph-name="T" unicode="T" horiz-adv-x="470" 
d="M265 1h-64v485h-171v60h410v-60h-175v-485z" />
    <glyph glyph-name="U" unicode="U" horiz-adv-x="588" 
d="M528 220q0 -53 -17 -95.5t-47.5 -72.5t-73.5 -46.5t-96 -16.5q-52 0 -95.5 16.5t-74 46.5t-47.5 72.5t-17 95.5v326h64v-326q0 -39 12 -70.5t34.5 -54t54 -34.5t69.5 -12t69.5 12t54 34.5t34.5 54t12 70.5v326h64v-326z" />
    <glyph glyph-name="V" unicode="V" horiz-adv-x="611" 
d="M276 1l-246 545h73l202 -457l204 457h72l-246 -545h-59z" />
    <glyph glyph-name="W" unicode="W" horiz-adv-x="847" 
d="M571 1l-147 435l-149 -435h-59l-186 545h68l149 -442l148 442h55l150 -442l148 442h69l-187 -545h-59z" />
    <glyph glyph-name="X" unicode="X" horiz-adv-x="584" 
d="M554 1h-77l-185 221l-184 -221h-78l219 271l-211 274h79l175 -223l175 223h79l-211 -274z" />
    <glyph glyph-name="Y" unicode="Y" horiz-adv-x="581" 
d="M30 546h73l187 -284l188 284h73l-228 -351v-194h-64v194z" />
    <glyph glyph-name="Z" unicode="Z" horiz-adv-x="486" 
d="M122 60h334v-59h-426v42l335 443h-326v60h415v-42z" />
    <glyph glyph-name="bracketleft" unicode="[" horiz-adv-x="233" 
d="M193 580h-83v-761h83v-36h-126q-3 0 -5 2t-2 5v820q0 3 2 5t5 2h126v-37z" />
    <glyph glyph-name="backslash" unicode="\" horiz-adv-x="348" 
d="M40 538h53l215 -569h-54z" />
    <glyph glyph-name="bracketright" unicode="]" horiz-adv-x="233" 
d="M40 617h126q3 0 5 -2t2 -5v-820q0 -3 -2 -5t-5 -2h-126v36h83v761h-83v37z" />
    <glyph glyph-name="asciicircum" unicode="^" horiz-adv-x="453" 
d="M203 691h49l161 -362h-55l-130 304h-2l-132 -304h-54z" />
    <glyph glyph-name="underscore" unicode="_" horiz-adv-x="393" 
d="M393 -59v-39h-393v39h393z" />
    <glyph glyph-name="a" unicode="a" horiz-adv-x="448" 
d="M408 383v-383h-61v30q-33 -22 -64 -31.5t-68 -9.5q-42 0 -76 14t-58 40t-37.5 62.5t-13.5 81.5q1 88 50.5 142t137.5 54h190zM225 329q-66 0 -99.5 -40t-33.5 -103q0 -64 34.5 -103.5t94.5 -39.5q32 0 61.5 9.5t64.5 32.5v244h-122z" />
    <glyph glyph-name="b" unicode="b" horiz-adv-x="468" 
d="M122 393h125q45 0 80.5 -14t60 -40t37.5 -61.5t13 -79.5q0 -46 -13.5 -83t-37.5 -62.5t-58 -39t-75 -13.5h-194v576h62v-183zM242 338h-120v-286h122q65 0 99.5 40t34.5 106q0 63 -34 101.5t-102 38.5z" />
    <glyph glyph-name="c" unicode="c" horiz-adv-x="404" 
d="M357 319q-32 8 -62.5 12.5t-53.5 4.5q-68 0 -108.5 -39t-40.5 -105q0 -65 39.5 -104t102.5 -39q25 0 59.5 6.5t69.5 14.5l11 -51q-34 -11 -71.5 -18t-69.5 -7q-45 0 -82 14t-64 40.5t-42 63t-15 81.5t15 81.5t42.5 62t66 39.5t84.5 14q28 0 63.5 -5.5t64.5 -15.5z" />
    <glyph glyph-name="d" unicode="d" horiz-adv-x="468" 
d="M408 0h-193q-41 0 -75 13.5t-58.5 39t-38 62.5t-13.5 83q0 44 13 79.5t37.5 61.5t60 40t81.5 14h125v183h61v-576zM227 338q-69 0 -102.5 -38.5t-33.5 -101.5q0 -66 34.5 -106t98.5 -40h122v286h-119z" />
    <glyph glyph-name="e" unicode="e" horiz-adv-x="430" 
d="M222 384q79 0 128 -47.5t50 -128.5q0 -14 -0.5 -22t-2.5 -24h-301q7 -54 42.5 -85t93.5 -31q34 0 66 5.5t70 15.5l11 -52q-38 -11 -72.5 -18.5t-76.5 -7.5q-47 0 -84.5 15t-63 41t-39 62.5t-13.5 79.5q0 45 14.5 81t40 62t60.5 40t77 14zM223 332q-56 0 -90 -32.5
t-39 -87.5h249q-2 57 -35 88.5t-85 31.5z" />
    <glyph glyph-name="f" unicode="f" horiz-adv-x="337" 
d="M168 325v-325h-64v325h-79v59h79v76q0 66 37.5 103.5t97.5 37.5q14 0 32 -2t36 -7l-10 -56q-15 3 -29.5 5t-26.5 2q-33 0 -53 -22t-20 -62v-75h139v-59h-139z" />
    <glyph glyph-name="g" unicode="g" horiz-adv-x="457" 
d="M224 329q-66 0 -99.5 -40t-33.5 -103q0 -29 9 -53.5t26 -42.5t41 -28.5t54 -10.5h125v277q-23 0 -45 1h-77zM346 -3h-132q-42 0 -76 14t-58 39.5t-37 60.5t-13 77q0 44 13 80t37 62t59 40t78 14h190v-371q0 -46 -13.5 -84t-39 -65.5t-62.5 -42.5t-85 -15q-38 0 -73.5 8.5
t-66.5 20.5l11 52q32 -10 64.5 -17t63.5 -7q61 0 98 34.5t42 99.5z" />
    <glyph glyph-name="h" unicode="h" horiz-adv-x="455" 
d="M263 384q71 0 111.5 -40.5t40.5 -112.5v-230h-62v218q0 51 -26 79t-74 28h-131v-325h-62v566h62v-183h141z" />
    <glyph glyph-name="i" unicode="i" horiz-adv-x="141" 
d="M101 0h-61v383h61v-383zM101 535h-60v-62h60v62z" />
    <glyph glyph-name="j" unicode="j" horiz-adv-x="240" 
d="M180 -13q0 -41 -6.5 -71t-23 -49.5t-44.5 -29.5t-71 -10l-5 55h10q45 0 62 24t17 75v402h61v-396zM173 535h-60v-62h60v62z" />
    <glyph glyph-name="k" unicode="k" horiz-adv-x="410" 
d="M122 200v-199h-62v566h62v-310h45l124 127h79l-122 -128q24 -3 46 -17t39 -34.5t27 -46.5t10 -53v-104h-62v92q0 51 -26.5 79t-74.5 28h-85z" />
    <glyph glyph-name="l" unicode="l" horiz-adv-x="181" 
d="M121 1h-61v566h61v-566z" />
    <glyph glyph-name="m" unicode="m" horiz-adv-x="671" 
d="M486 383q69 0 107 -37.5t38 -115.5v-230h-62v218q0 53 -22.5 80t-70.5 27q-29 0 -58.5 -4t-61.5 -16q10 -26 10 -70v-235h-61v222q0 57 -23.5 80t-74.5 23h-106v-325h-61v383h178q69 0 105 -30q38 15 79.5 22.5t83.5 7.5z" />
    <glyph glyph-name="n" unicode="n" horiz-adv-x="434" 
d="M242 383q72 0 112 -40.5t40 -112.5v-230h-61v218q0 51 -26.5 79t-74.5 28h-131v-325h-61v383h202z" />
    <glyph glyph-name="o" unicode="o" horiz-adv-x="465" 
d="M233 389q44 0 81 -14.5t64 -40.5t42 -62.5t15 -80.5q0 -45 -15 -82t-42 -63t-64 -40.5t-81 -14.5q-45 0 -82 14.5t-64 40.5t-42 63t-15 82q0 44 15 80.5t42 62.5t64 40.5t82 14.5zM233 48q62 0 101 39t39 104q0 32 -10.5 57.5t-29 44t-44 28.5t-56.5 10t-56.5 -10
t-44 -28.5t-29 -44t-10.5 -57.5q0 -65 39 -104t101 -39z" />
    <glyph glyph-name="p" unicode="p" horiz-adv-x="468" 
d="M250 384q88 0 137 -54t51 -142q0 -42 -13.5 -77t-37.5 -60.5t-58 -39.5t-76 -14h-132v-173h-61v560h190zM248 51q60 0 94.5 38.5t34.5 96.5q0 63 -33.5 103t-99.5 40h-122v-278h126z" />
    <glyph glyph-name="q" unicode="q" horiz-adv-x="468" 
d="M218 384h190v-558h-61v172h-132q-42 0 -76 14t-58 39.5t-37.5 60.5t-13.5 77q2 88 51 141.5t137 53.5zM346 52v278h-122q-66 0 -99.5 -40t-33.5 -103q0 -58 34.5 -96.5t94.5 -38.5h126z" />
    <glyph glyph-name="r" unicode="r" horiz-adv-x="284" 
d="M40 384h62v-17q7 2 20 5t28 5.5t30.5 4.5t27.5 2h46v-57h-46q-20 0 -39 -2.5t-34 -5.5q-19 -4 -35 -9v-310h-60v384z" />
    <glyph glyph-name="s" unicode="s" horiz-adv-x="379" 
d="M45 80q40 -18 81 -28t73 -10q40 0 66 15t26 44q0 16 -9 26.5t-25.5 17t-39 11.5t-48.5 11q-61 13 -92 35t-31 69q0 54 39.5 83t108.5 29q37 0 75.5 -8t69.5 -19l-17 -49q-35 11 -70 17.5t-62 6.5q-40 0 -61.5 -14.5t-21.5 -42.5q0 -13 6 -22t18 -15t29.5 -11t39.5 -10
q33 -7 60 -15t47 -20t31 -30t11 -45q0 -58 -42.5 -87.5t-110.5 -29.5q-38 0 -82 10.5t-84 27.5z" />
    <glyph glyph-name="t" unicode="t" horiz-adv-x="356" 
d="M326 0q-24 -6 -43 -8.5t-43 -2.5q-64 0 -95.5 34t-31.5 108v196h-83v57h83v140h61v-140h130v-57h-130v-191q0 -47 17.5 -68.5t57.5 -21.5q15 0 31.5 1.5t36.5 5.5z" />
    <glyph glyph-name="u" unicode="u" horiz-adv-x="434" 
d="M394 16q-21 -5 -46 -9t-51.5 -6.5t-53.5 -4t-52 -1.5q-70 0 -110.5 37.5t-40.5 115.5v236h61v-226q0 -109 101 -109q29 0 61.5 3t69.5 8v324h61v-368z" />
    <glyph glyph-name="v" unicode="v" horiz-adv-x="468" 
d="M202 1l-177 383h67l142 -307l142 307h67l-178 -383h-63z" />
    <glyph glyph-name="w" unicode="w" horiz-adv-x="653" 
d="M426 1l-100 257l-99 -257h-59l-138 383h64l106 -293l102 261h50l101 -261l106 293h64l-138 -383h-59z" />
    <glyph glyph-name="x" unicode="x" horiz-adv-x="427" 
d="M411 0h-74l-123 151l-129 -151h-74l162 194l-155 191h75l120 -146l120 145h76l-155 -190z" />
    <glyph glyph-name="y" unicode="y" horiz-adv-x="445" 
d="M322 -3h-140q-35 0 -63 8t-48 26t-30.5 47.5t-10.5 71.5v234h62v-224q0 -109 100 -109h131v333h62v-371q0 -46 -13.5 -84t-39.5 -65.5t-63 -42.5t-85 -15q-38 0 -73 8t-66 20l11 53q32 -10 64 -17t63 -7q61 0 97.5 35.5t41.5 98.5z" />
    <glyph glyph-name="z" unicode="z" horiz-adv-x="379" 
d="M120 56h229v-55h-319v34l234 294h-228v55h314v-38z" />
    <glyph glyph-name="braceleft" unicode="{" horiz-adv-x="257" 
d="M217 -218h-77q-27 0 -41.5 14t-14.5 41v231q0 33 -4 51.5t-12 30.5t-28 32v33q18 18 27 29.5t13 28.5t4 49v240q0 27 14.5 41t41.5 14h77v-36h-68q-6 0 -10.5 -4.5t-4.5 -9.5v-257q0 -25 -8 -44.5t-17.5 -32t-28.5 -33.5q18 -21 28 -33.5t18 -32.5t8 -44v-258
q0 -5 4.5 -9.5t10.5 -4.5h68v-36z" />
    <glyph glyph-name="bar" unicode="|" horiz-adv-x="172" 
d="M60 589h52v-785h-52v785z" />
    <glyph glyph-name="braceright" unicode="}" horiz-adv-x="257" 
d="M40 -182h68q6 0 10.5 4.5t4.5 9.5v258q0 24 8 44t18 32.5t28 33.5q-19 21 -28.5 33.5t-17.5 32t-8 44.5v257q0 5 -4.5 9.5t-10.5 4.5h-68v36h78q26 0 40.5 -14t14.5 -41v-240q0 -32 4 -49t13 -28.5t27 -29.5v-33q-19 -20 -27.5 -32t-12.5 -30.5t-4 -51.5v-231
q0 -27 -14.5 -41t-40.5 -14h-78v36z" />
    <glyph glyph-name="asciitilde" unicode="~" horiz-adv-x="298" 
d="M40 448q-3 81 59 81q18 0 55 -18l21 -11q11 -6 17 -6q25 0 26 36h40q0 -83 -60 -83q-20 0 -55 20q-27 15 -39 15q-23 0 -23 -34h-41z" />
    <glyph glyph-name="exclamdown" unicode="&#xa1;" horiz-adv-x="219" 
d="M90 222h53l12 -375h-76zM60 339q0 23 13.5 36.5t35.5 13.5q23 0 36.5 -13.5t13.5 -36.5q0 -22 -13.5 -36t-36.5 -14q-22 0 -35.5 14t-13.5 36z" />
    <glyph glyph-name="cent" unicode="&#xa2;" horiz-adv-x="370" 
d="M60 199q0 28 9 53.5t25 45.5t38 34.5t48 20.5v75h60v-71h70v-57h-70v-203h69v-57h-69v-73h-60v77q-22 5 -44 16t-38.5 29.5t-27 45.5t-10.5 64zM119 199q0 -13 2 -27.5t8.5 -28t18.5 -24.5t32 -17v190q-27 -11 -44 -36.5t-17 -56.5z" />
    <glyph glyph-name="sterling" unicode="&#xa3;" horiz-adv-x="466" 
d="M35 0v48h60v178h-60v48h60v117q0 37 13.5 67.5t38.5 52t60.5 33.5t78.5 12q35 0 70 -4.5t67 -13.5l-9 -45q-68 14 -129 14q-62 0 -98.5 -31t-36.5 -85v-117h191v-48h-191v-178h309v-48h-424z" />
    <glyph glyph-name="currency" unicode="&#xa4;" horiz-adv-x="456" 
d="M89 362q0 23 7 44t20 38l-56 37l30 44l67 -46q32 19 72 19t71 -18l66 45l29 -43l-54 -37q30 -36 30 -83q0 -24 -7.5 -44.5t-19.5 -36.5l52 -35l-30 -43l-64 42q-16 -8 -34.5 -13t-38.5 -5q-41 0 -74 19l-65 -44l-30 43l55 37q-12 17 -19 36.5t-7 43.5zM142 362
q0 -36 25.5 -62t61.5 -26q38 0 62.5 26t24.5 62q0 37 -24.5 63t-62.5 26q-36 0 -61.5 -26t-25.5 -63z" />
    <glyph glyph-name="yen" unicode="&#xa5;" horiz-adv-x="466" 
d="M208 144l-17 46h-131v47h113l-109 286l60 1l109 -287h13l65 286h60l-66 -286h101v-47h-111l-11 -46h122v-47h-133l-22 -97h-60l22 97h-153v47h148z" />
    <glyph glyph-name="brokenbar" unicode="&#xa6;" horiz-adv-x="172" 
d="M60 530h52v-275h-52v275zM112 137v-275h-52v275h52z" />
    <glyph glyph-name="section" unicode="&#xa7;" horiz-adv-x="564" 
 />
    <glyph glyph-name="copyright" unicode="&#xa9;" horiz-adv-x="542" 
d="M87 246q0 -36 14.5 -69.5t39.5 -58.5t58.5 -40t70.5 -15t70.5 15t59 40t40.5 58.5t15 69.5q0 37 -15 71t-40.5 60t-59 41.5t-70.5 15.5t-70.5 -15.5t-58.5 -41.5t-39.5 -60t-14.5 -71zM364 368l-6 -28q-45 12 -79 12q-54 0 -82.5 -28.5t-28.5 -74.5q0 -48 29 -76.5
t78 -28.5q34 0 88 14l6 -26q-25 -8 -49.5 -12t-45.5 -4q-63 0 -100 36t-37 96t37.5 96.5t101.5 36.5q22 0 44.5 -3t43.5 -10zM60 248q0 46 16 84.5t44 67t67 44.5t84 16q46 0 84.5 -16t66.5 -44.5t44 -67t16 -84.5q0 -45 -16 -83.5t-44 -66.5t-66.5 -44t-84.5 -16
q-45 0 -84 16t-67 44t-44 66.5t-16 83.5z" />
    <glyph glyph-name="ordfeminine" unicode="&#xaa;" horiz-adv-x="387" 
 />
    <glyph glyph-name="guillemotleft" unicode="&#xab;" horiz-adv-x="569" 
d="M40 174v52l300 249v-62l-250 -213l250 -213v-63zM229 174v52l300 249v-62l-249 -213l249 -213v-63z" />
    <glyph glyph-name="logicalnot" unicode="&#xac;" horiz-adv-x="406" 
d="M0 314h406v-219h-50v171h-356v48z" />
    <glyph glyph-name="registered" unicode="&#xae;" horiz-adv-x="542" 
d="M87 246q0 -36 14.5 -69.5t39.5 -58.5t58.5 -40t70.5 -15t70.5 15t59 40t40.5 58.5t15 69.5q0 37 -15 71t-40.5 60t-59 41.5t-70.5 15.5t-70.5 -15.5t-58.5 -41.5t-39.5 -60t-14.5 -71zM216 241h58q30 0 49 15t19 43q0 29 -19 42t-51 13h-56v-113zM60 248q0 46 16 84.5
t44 67t67 44.5t84 16q46 0 84.5 -16t66.5 -44.5t44 -67t16 -84.5q0 -45 -16 -83.5t-44 -66.5t-66.5 -44t-84.5 -16q-45 0 -84 16t-67 44t-44 66.5t-16 83.5zM351 121l-67 93q-5 0 -9.5 -0.5t-9.5 -0.5h-49v-92h-30v261h85q45 0 73 -20.5t28 -62.5q0 -29 -15.5 -49t-42.5 -29
l75 -100h-38z" />
    <glyph glyph-name="macron" unicode="&#xaf;" horiz-adv-x="193" 
d="M0 509h193v-48h-193v48z" />
    <glyph glyph-name="degree" unicode="&#xb0;" horiz-adv-x="320" 
d="M260 584q0 -48 -30 -73.5t-69 -25.5q-41 0 -71 25.5t-30 73.5q0 25 8 44t22 32t32.5 19.5t38.5 6.5q39 0 69 -25.5t30 -76.5zM113 584q0 -24 14 -37.5t34 -13.5q18 0 32 13t14 38q0 27 -14 40t-32 13q-20 0 -34 -13.5t-14 -39.5z" />
    <glyph glyph-name="plusminus" unicode="&#xb1;" horiz-adv-x="425" 
d="M187 319v130h49v-130h129v-49h-129v-129h-49v129h-130v49h130zM62 110h309v-49h-309v49z" />
    <glyph glyph-name="twosuperior" unicode="&#xb2;" horiz-adv-x="287" 
d="M96 349h125v-30h-161v33q15 20 29 39t27 36q22 30 43 59t29 42q9 12 9 31q0 25 -16.5 40.5t-42.5 15.5q-21 0 -32.5 -5.5t-22.5 -16.5l-16 16q5 11 22.5 23.5t50.5 12.5q17 0 33 -7t28 -19t19 -28t7 -34q0 -32 -16 -51z" />
    <glyph glyph-name="threesuperior" unicode="&#xb3;" horiz-adv-x="276" 
d="M216 408q0 -18 -7 -33.5t-19 -27.5t-27.5 -19t-33.5 -7h-69v30h67q24 0 41.5 17t17.5 40v14q0 23 -17.5 40.5t-41.5 17.5h-36v29h29l56 105h-113v30h150v-33l-57 -106q26 -11 43 -32.5t17 -49.5v-15z" />
    <glyph glyph-name="mu" unicode="&#xb5;" horiz-adv-x="685" 
 />
    <glyph glyph-name="paragraph" unicode="&#xb6;" horiz-adv-x="721" 
 />
    <glyph glyph-name="periodcentered" unicode="&#xb7;" horiz-adv-x="212" 
d="M72 171q-12 15 -12 36t13 35t34 14q19 0 33 -14q12 -13 12 -35q0 -21 -12 -36q-14 -14 -34 -14t-34 14z" />
    <glyph glyph-name="cedilla" unicode="&#xb8;" horiz-adv-x="248" 
 />
    <glyph glyph-name="onesuperior" unicode="&#xb9;" horiz-adv-x="198" 
d="M138 647v-322h-30v293h-48v29h78z" />
    <glyph glyph-name="ordmasculine" unicode="&#xba;" horiz-adv-x="467" 
d="M234 400q45 0 82 -14.5t64 -40.5t42 -63t15 -82t-15 -81.5t-42 -63t-64 -41t-82 -14.5t-82.5 14.5t-64.5 41t-42 63t-15 81.5t15 82t42 63t64.5 40.5t82.5 14.5zM234 59q30 0 55.5 10t44 29t28.5 45t10 57q0 64 -38.5 102t-99.5 38q-62 0 -101 -38t-39 -102
q0 -31 10.5 -57t29 -45t44 -29t56.5 -10z" />
    <glyph glyph-name="guillemotright" unicode="&#xbb;" horiz-adv-x="569" 
d="M529 210v-51l-300 -250v63l250 212l-250 214v62zM340 210v-51l-300 -250v63l250 212l-250 214v62z" />
    <glyph glyph-name="onequarter" unicode="&#xbc;" horiz-adv-x="641" 
d="M138 393v-322h-30v293h-48v29h78zM581 70h-33v-71h-30v71h-147v33l141 218h36v-221h33v-30zM518 100v172l-111 -172h111zM396 336l-169 -300l-28 16l168 298z" />
    <glyph glyph-name="onehalf" unicode="&#xbd;" horiz-adv-x="661" 
d="M138 393v-322h-30v293h-48v29h78zM470 30h125v-30h-161v33q15 20 29 39t27 36q22 30 43 59t29 42q9 12 9 31q0 25 -16.5 40.5t-42.5 15.5q-21 0 -32.5 -5.5t-22.5 -16.5l-16 16q5 11 22.5 23.5t50.5 12.5q17 0 33 -7t28 -19t19 -28t7 -34q0 -32 -16 -51zM396 336
l-169 -300l-28 16l168 298z" />
    <glyph glyph-name="threequarters" unicode="&#xbe;" horiz-adv-x="681" 
d="M621 70h-33v-71h-30v71h-148v33l142 218h36v-221h33v-30zM558 100v172l-111 -172h111zM216 158q0 -18 -7 -34t-19 -27.5t-27.5 -18.5t-33.5 -7h-69v29h67q24 0 41.5 17.5t17.5 40.5v14q0 23 -17.5 40t-41.5 17h-36v30h29l56 105h-113v29h150v-32l-57 -106q26 -11 43 -33
t17 -50v-14zM435 336l-168 -300l-29 16l168 298z" />
    <glyph glyph-name="questiondown" unicode="&#xbf;" horiz-adv-x="379" 
d="M244 311q-17 0 -28 11t-11 27q0 17 11 28t28 11q16 0 27 -11t11 -28q0 -16 -11 -27t-27 -11zM319 -135q-20 -22 -48 -34t-60 -12q-30 0 -57.5 12t-48.5 32.5t-33 48t-12 59.5q0 42 25 76t56 65q30 31 55 60t25 60v24h45v-36q0 -26 -11 -48.5t-27 -42t-35 -38t-35 -36.5
t-27 -37t-11 -40t8 -39.5t22 -32.5t32 -22.5t39 -8.5q38 0 65 24z" />
    <glyph glyph-name="multiply" unicode="&#xd7;" horiz-adv-x="431" 
d="M40 27l146 164l-135 151l34 29l131 -146l131 146l34 -29l-135 -151l145 -163l-36 -27l-139 156l-139 -156z" />
    <glyph glyph-name="Ucircumflex" unicode="&#xdb;" horiz-adv-x="590" 
d="M530 220q0 -53 -17 -96t-48 -73t-74.5 -46.5t-96.5 -16.5q-52 0 -95.5 16.5t-74 46.5t-47.5 73t-17 96v327h66v-327q0 -78 46 -124t122 -46q38 0 69.5 12t54 34t34.5 53.5t12 70.5v327h66v-327z" />
    <glyph glyph-name="ocircumflex" unicode="&#xf4;" horiz-adv-x="0" 
 />
    <glyph glyph-name="otilde" unicode="&#xf5;" horiz-adv-x="268" 
 />
    <glyph glyph-name="divide" unicode="&#xf7;" horiz-adv-x="467" 
d="M229 90q16 0 27.5 -12t11.5 -28t-11.5 -27.5t-27.5 -11.5t-27.5 11.5t-11.5 27.5t11.5 28t27.5 12zM427 167h-387v62h387v-62zM229 387q16 0 27.5 -11.5t11.5 -27.5q0 -17 -11.5 -28.5t-27.5 -11.5t-27.5 11.5t-11.5 28.5q0 16 11.5 27.5t27.5 11.5z" />
    <glyph glyph-name="florin" unicode="&#x192;" horiz-adv-x="378" 
 />
    <glyph glyph-name="ring" unicode="&#x2da;" horiz-adv-x="330" 
d="M211 410q0 -40 -25.5 -61.5t-57.5 -21.5q-33 0 -58.5 21.5t-25.5 61.5q0 42 25.5 63.5t58.5 21.5q32 0 57.5 -21.5t25.5 -63.5zM88 410q0 -20 12 -31.5t28 -11.5q15 0 27 11t12 32q0 22 -12 33t-27 11q-16 0 -28 -11.5t-12 -32.5z" />
    <glyph glyph-name="tilde" unicode="&#x2dc;" horiz-adv-x="513" 
d="M60 166q-2 56 26 88q27 30 68 30q36 0 112 -36q66 -33 97 -33q42 0 42 66h48q2 -63 -26 -92q-24 -27 -66 -27q-35 0 -113 35q-75 35 -94 35q-45 0 -47 -66h-47z" />
    <glyph glyph-name="uni05DA" unicode="&#x5da;" horiz-adv-x="792" 
d="M792 60q31 0 31 -29q0 -31 -31 -31h-16q-35 0 -64 14.5t-50 40.5q-2 -3 -5.5 -6t-5.5 -6q-20 -20 -45 -31.5t-55 -11.5h-304q-39 0 -73 14.5t-59.5 40t-40 59.5t-14.5 73v101h60v-101q0 -26 10 -49t27.5 -40.5t40.5 -27.5t49 -10h304q9 0 23 4.5t27.5 15t23.5 26.5t10 38
q0 23 -5.5 38.5t-15 27t-22 20t-26.5 17.5l-192 123v57l164 163l41 -41l-142 -150l158 -99q24 -15 42 -30t30 -33t18.5 -40.5t6.5 -52.5q2 -36 25.5 -60t58.5 -24h16z" />
    <glyph glyph-name="uni060C" unicode="&#x60c;" horiz-adv-x="236" 
d="M138 77q35 -12 35 -47q0 -23 -16.5 -38.5t-39.5 -15.5t-40 15.5t-17 38.5q0 9 4 20.5t11.5 28t19 40t27.5 58.5h54z" />
    <glyph glyph-name="uni061B" unicode="&#x61b;" horiz-adv-x="232" 
d="M114 -13q-23 0 -38.5 15t-15.5 38t15.5 37.5t38.5 14.5t38.5 -14.5t15.5 -37.5t-15.5 -38t-38.5 -15zM136 312q33 -10 33 -45q0 -23 -15 -37.5t-38 -14.5t-39 14.5t-16 37.5q0 9 3.5 19.5t11 26.5t18.5 39t27 57h51z" />
    <glyph glyph-name="uni061F" unicode="&#x61f;" horiz-adv-x="379" 
d="M286 488q-27 24 -65 24q-21 0 -39 -8.5t-32 -22.5t-22 -32.5t-8 -39.5q0 -32 23 -59t50.5 -54.5t50.5 -58.5t23 -70v-36h-46v24q0 21 -12 40.5t-30 39.5t-38.5 40t-38.5 42t-30 46.5t-12 52.5q0 32 12 59.5t33 48t48.5 32.5t57.5 12q33 0 60.5 -12t47.5 -34zM244 76
q17 0 27.5 -11t10.5 -27q0 -17 -10.5 -28t-27.5 -11t-27.5 11t-10.5 28q0 16 10.5 27t27.5 11z" />
    <glyph glyph-name="uni0621" unicode="&#x621;" horiz-adv-x="301" 
d="M67 -3l-29 56l70 35q-26 16 -42 39.5t-16 56.5q0 45 30.5 77t81.5 32q36 0 69 -16l8 -2l-16 -50l-8 1q-10 3 -24.5 5t-25.5 2q-22 0 -37.5 -14.5t-15.5 -34.5q0 -18 17.5 -32.5t37.5 -14.5q25 0 42 6t41 18l9 4l28 -51z" />
    <glyph glyph-name="uni0622" unicode="&#x622;" horiz-adv-x="233" 
d="M218 602h-152l-32 -2q-7 -1 -18 -6q-5 -6 -9 -13.5t-8 -15.5l-49 18q9 20 17.5 33t20 21.5t26 12t35.5 4.5h169v-52zM91 0v523h60v-523h-60z" />
    <glyph glyph-name="uni0623" unicode="&#x623;" horiz-adv-x="223" 
d="M97 0v523h60v-523h-60zM65 550l-16 31l38 18q-14 9 -22.5 22t-8.5 31q0 25 16.5 42.5t44.5 17.5q20 0 38 -9l5 -1l-10 -28l-4 1q-5 2 -13 3t-14 1q-12 0 -20.5 -8t-8.5 -19q0 -10 9.5 -17.5t20.5 -7.5q14 0 23 3t23 9l4 3l15 -28z" />
    <glyph glyph-name="uni0624" unicode="&#x624;" horiz-adv-x="437" 
d="M377 -1q0 -60 -19 -101t-53 -70q-16 -14 -37.5 -24.5t-44 -18.5t-43.5 -14t-37 -11l-15 49q34 12 72 25.5t64 34.5q23 19 34.5 42t15.5 43q2 11 3.5 23t0.5 23h-100q-33 0 -62 13t-50.5 35t-33.5 51t-12 60q0 32 12 60.5t33.5 51t50.5 35.5t62 13q34 0 63 -13t50.5 -35
t33.5 -51t12 -61v-160zM118 159q0 -21 8 -39t21.5 -31.5t32 -21t38.5 -7.5h101v99q0 20 -8 38.5t-21.5 32.5t-32 22t-39.5 8q-20 0 -38.5 -8t-32 -22t-21.5 -32t-8 -39zM153 356l-16 31l38 18q-14 9 -22.5 22t-8.5 31q0 25 16.5 42.5t44.5 17.5q20 0 38 -9l5 -1l-10 -28
l-4 1q-5 2 -13 3t-14 1q-12 0 -20.5 -8t-8.5 -19q0 -10 9.5 -17.5t20.5 -7.5q14 0 23 3t23 9l4 3l15 -28z" />
    <glyph glyph-name="uni0625" unicode="&#x625;" horiz-adv-x="187" 
d="M116 0h-60v550h60v-550zM54 -192l-16 31l38 18q-14 9 -22.5 22t-8.5 31q0 25 16.5 42.5t44.5 17.5q20 0 38 -9l5 -1l-10 -28l-4 1q-5 2 -13 3t-14 1q-12 0 -20.5 -8t-8.5 -19q0 -10 9.5 -17.5t20.5 -7.5q14 0 23 3t23 9l4 3l15 -28z" />
    <glyph glyph-name="uni0626" unicode="&#x626;" horiz-adv-x="639" 
d="M496 82q45 -14 74 -51t29 -85q0 -30 -11.5 -56.5t-31 -46t-45.5 -30.5t-56 -11h-235q-35 0 -66 13.5t-54 36.5t-36.5 54t-13.5 66v194h60v-194q0 -23 8.5 -43t23.5 -35t35 -23.5t43 -8.5h235q35 0 59.5 24t24.5 60q0 27 -16 50t-41 29l-207 53v79q0 31 10.5 59t29.5 49.5
t45.5 34t58.5 12.5l140 -3v-56h-140q-14 0 -29.5 -6.5t-28.5 -17.5t-21.5 -25.5t-8.5 -29.5v-58q42 -8 82.5 -16t82.5 -18zM71 268l-16 31l38 18q-14 9 -22.5 22t-8.5 31q0 25 16.5 42.5t44.5 17.5q20 0 38 -9l5 -1l-10 -28l-4 1q-5 2 -13 3t-14 1q-12 0 -20.5 -8t-8.5 -19
q0 -10 9.5 -17.5t20.5 -7.5q14 0 23 3t23 9l4 3l15 -28z" />
    <glyph glyph-name="uni0627" unicode="&#x627;" horiz-adv-x="180" 
d="M60 0v550h60v-550h-60z" />
    <glyph glyph-name="uni0628" unicode="&#x628;" horiz-adv-x="804" 
d="M379 -116h60v-62h-60v62zM744 288v-101q0 -39 -14.5 -73t-40 -59.5t-59.5 -40t-73 -14.5h-310q-39 0 -73 14.5t-59.5 40t-40 59.5t-14.5 73v101h58v-101q0 -27 10 -50t27.5 -40t41 -27t50.5 -10h310q27 0 50.5 10t41 27.5t27.5 40.5t10 50v100h58z" />
    <glyph glyph-name="uni0629" unicode="&#x629;" horiz-adv-x="398" 
d="M311 248q23 -24 35 -53t12 -59t-11.5 -59t-35.5 -53t-53 -35.5t-59 -11.5q-46 0 -87.5 26.5t-59.5 73.5q-17 43 -8.5 89.5t43.5 81.5l71 71l-29 29l41 40zM270 207l-71 71l-29 -29q-12 -10 -23.5 -22t-19.5 -20q-15 -15 -21.5 -33.5t-6 -37.5t8 -37.5t21.5 -32.5
q15 -15 34 -22.5t38 -7.5t37 7t32 21q15 15 22 33.5t7 38t-7 38t-22 33.5zM264 518h-60v-62h60v62zM144 518h-60v-62h60v62z" />
    <glyph glyph-name="uni062A" unicode="&#x62a;" horiz-adv-x="804" 
d="M744 288v-101q0 -39 -14.5 -73t-40 -59.5t-59.5 -40t-73 -14.5h-310q-39 0 -73 14.5t-59.5 40t-40 59.5t-14.5 73v101h58v-101q0 -27 10 -50t27.5 -40t41 -27t50.5 -10h310q27 0 50.5 10t41 27.5t27.5 40.5t10 50v100h58zM492 350h-60v-62h60v62zM372 350h-60v-62h60v62z
" />
    <glyph glyph-name="uni062B" unicode="&#x62b;" horiz-adv-x="804" 
d="M744 288v-101q0 -39 -14.5 -73t-40 -59.5t-59.5 -40t-73 -14.5h-310q-39 0 -73 14.5t-59.5 40t-40 59.5t-14.5 73v101h58v-101q0 -27 10 -50t27.5 -40t41 -27t50.5 -10h310q27 0 50.5 10t41 27.5t27.5 40.5t10 50v100h58zM444 450h-60v-62h60v62zM504 350h-60v-62h60v62z
M384 350h-60v-62h60v62z" />
    <glyph glyph-name="uni062C" unicode="&#x62c;" horiz-adv-x="580" 
d="M444 197q-34 -27 -72.5 -56.5l-77 -59t-75.5 -57t-68 -50.5q-50 -41 -53 -100q0 -27 10.5 -50.5t28.5 -41.5t42 -28t51 -10h249v-53l-252 -7q-39 0 -73 14.5t-59.5 40t-40 59.5t-14.5 73q0 45 18.5 82t48.5 62l278 206l-112 58q-25 13 -58 13q-39 0 -72 -18t-52 -53
l-41 24q12 26 30 45.5t40 33.5t47.5 21t51.5 7q42 0 81 -18l126 -68q13 -6 31 -10t33 -4h50v-55q-7 -1 -13.5 -1t-12.5 -1q-11 -1 -20 -1.5t-13 -0.5q-22 0 -37 4zM319 -76h60v-62h-60v62z" />
    <glyph glyph-name="uni062D" unicode="&#x62d;" horiz-adv-x="580" 
d="M444 197q-34 -27 -72.5 -56.5l-77 -59t-75.5 -57t-68 -50.5q-50 -41 -53 -100q0 -27 10.5 -50.5t28.5 -41.5t42 -28t51 -10h249v-53l-252 -7q-39 0 -73 14.5t-59.5 40t-40 59.5t-14.5 73q0 45 18.5 82t48.5 62l278 206l-112 58q-25 13 -58 13q-39 0 -72 -18t-52 -53
l-41 24q12 26 30 45.5t40 33.5t47.5 21t51.5 7q42 0 81 -18l126 -68q13 -6 31 -10t33 -4h50v-55q-7 -1 -13.5 -1t-12.5 -1q-11 -1 -20 -1.5t-13 -0.5q-22 0 -37 4z" />
    <glyph glyph-name="uni062E" unicode="&#x62e;" horiz-adv-x="580" 
d="M444 197q-34 -27 -72.5 -56.5l-77 -59t-75.5 -57t-68 -50.5q-50 -41 -53 -100q0 -27 10.5 -50.5t28.5 -41.5t42 -28t51 -10h249v-53l-252 -7q-39 0 -73 14.5t-59.5 40t-40 59.5t-14.5 73q0 45 18.5 82t48.5 62l278 206l-112 58q-25 13 -58 13q-39 0 -72 -18t-52 -53
l-41 24q12 26 30 45.5t40 33.5t47.5 21t51.5 7q42 0 81 -18l126 -68q13 -6 31 -10t33 -4h50v-55q-7 -1 -13.5 -1t-12.5 -1q-11 -1 -20 -1.5t-13 -0.5q-22 0 -37 4zM251 444h-60v62h60v-62z" />
    <glyph glyph-name="uni062F" unicode="&#x62f;" horiz-adv-x="450" 
d="M330 259q27 -18 43.5 -49t16.5 -69q0 -28 -11 -53.5t-30 -45t-45 -31t-56 -11.5h-198v60h198q35 0 59.5 24t24.5 57q0 24 -10.5 43t-27.5 29l-161 111l31 48q23 -16 43.5 -29.5t38.5 -25.5q16 -10 31 -20t26.5 -18t19 -13.5t7.5 -6.5z" />
    <glyph glyph-name="uni0630" unicode="&#x630;" horiz-adv-x="430" 
d="M116 550h63v-65h-63v65zM330 259q27 -18 43.5 -49t16.5 -69q0 -28 -11 -53.5t-30 -45t-45 -31t-56 -11.5h-198v60h198q35 0 59.5 24t24.5 57q0 24 -10.5 43t-27.5 29l-161 111l31 48q23 -16 43.5 -29.5t38.5 -25.5q16 -10 31 -20t26.5 -18t19 -13.5t7.5 -6.5z" />
    <glyph glyph-name="uni0631" unicode="&#x631;" horiz-adv-x="259" 
d="M199 297v-316q-3 -53 -19.5 -90t-44.5 -63t-66 -43t-85 -31l-14 49q33 13 63.5 27t54 34t37.5 48t14 69v316h60z" />
    <glyph glyph-name="uni0632" unicode="&#x632;" horiz-adv-x="259" 
d="M199 297v-316q-3 -53 -19.5 -90t-44.5 -63t-66 -43t-85 -31l-14 49q33 13 63.5 27t54 34t37.5 48t14 69v316h60zM199 444h-60v62h60v-62z" />
    <glyph glyph-name="uni0633" unicode="&#x633;" horiz-adv-x="1065" 
d="M60 205h60v-138q0 -39 14.5 -73.5t40 -60t59.5 -40.5t73 -15q38 0 71.5 15t59 40.5t40.5 60t15 73.5v203h61v-122q0 -37 25 -62.5t62 -25.5t63 25.5t26 62.5v122h59v-124q2 -36 27 -61t62 -25h65v237h62v-297h-127q-37 0 -67 16t-48 44q-21 -28 -53 -44t-69 -16
q-56 0 -89 35q-6 -46 -27.5 -85t-54.5 -68t-74.5 -45.5t-88.5 -16.5q-52 0 -97 19.5t-78.5 53.5t-52.5 78.5t-19 95.5v138z" />
    <glyph glyph-name="uni0634" unicode="&#x634;" horiz-adv-x="1065" 
d="M60 205h60v-138q0 -39 14.5 -73.5t40 -60t59.5 -40.5t73 -15q38 0 71.5 15t59 40.5t40.5 60t15 73.5v203h61v-122q0 -37 25 -62.5t62 -25.5t63 25.5t26 62.5v122h59v-124q2 -36 27 -61t62 -25h65v237h62v-297h-127q-37 0 -67 16t-48 44q-21 -28 -53 -44t-69 -16
q-56 0 -89 35q-6 -46 -27.5 -85t-54.5 -68t-74.5 -45.5t-88.5 -16.5q-52 0 -97 19.5t-78.5 53.5t-52.5 78.5t-19 95.5v138zM669 451h60v-62h-60v62zM729 489v62h60v-62h-60zM789 451h60v-62h-60v62z" />
    <glyph glyph-name="uni0635" unicode="&#x635;" horiz-adv-x="1050" 
d="M60 226h58v-135q0 -38 14 -71t39 -57q24 -24 57 -38t70 -14q38 0 71 14t58 38q24 24 39 57q14 33 14 71v197h58v-70l208 96q37 19 81 19q43 0 77 -15q34 -16 57.5 -40.5t36.5 -55.5q12 -32 12 -64t-12 -61q-13 -29 -34 -50q-22 -22 -51 -34q-29 -13 -61 -13h-230
q-26 0 -49 9q-24 9 -40 31q-7 -40 -28 -75q-22 -34 -53 -60q-32 -25 -71 -40q-40 -14 -83 -14q-49 0 -92 19q-44 19 -76 51q-33 33 -51 77q-19 44 -19 93v135zM538 158v-14q0 -36 25 -60q24 -24 59 -24h230q42 0 70 28t28 70q0 26 -10 48q-11 21 -28 36q-18 15 -40 24
q-23 8 -47 8q-28 0 -55 -12z" />
    <glyph glyph-name="uni0636" unicode="&#x636;" horiz-adv-x="1050" 
d="M60 91v135h58v-135q0 -38 14 -71t39 -57q24 -24 57 -38t70 -14q38 0 71 14t58 38q24 24 39 57q14 33 14 71v197h58v-70l208 96q37 19 81 19q43 0 77 -15q34 -16 57.5 -40.5t36.5 -55.5q12 -32 12 -64t-12 -61q-13 -29 -34 -50q-22 -22 -51 -34q-29 -13 -61 -13h-230
q-26 0 -49 9q-24 9 -40 31q-7 -40 -28 -75q-22 -34 -53 -60q-32 -25 -71 -40q-40 -14 -83 -14q-49 0 -92 19q-44 19 -76 51q-33 33 -51 77q-19 44 -19 93zM538 158v-14q0 -36 25 -60q24 -24 59 -24h230q42 0 70 28t28 70q0 26 -10 48q-11 21 -28 36q-18 15 -40 24
q-23 8 -47 8q-28 0 -55 -12zM855 506v-62h-60v62h60z" />
    <glyph glyph-name="uni0637" unicode="&#x637;" horiz-adv-x="554" 
d="M514 171q0 -34 -13.5 -65.5t-36.5 -54.5t-54 -37t-66 -14h-304v60h304q23 0 43.5 9t35.5 24.5t24 36t9 43.5q0 48 -34 79t-85 31q-46 0 -80 -28l-180 -147l-36 48l58 46q13 13 21 29t8 36v283h57v-276l34 26q26 22 57 32t62 10q47 0 80 -15.5t54.5 -40t31.5 -55t10 -60.5
z" />
    <glyph glyph-name="uni0638" unicode="&#x638;" horiz-adv-x="554" 
d="M514 171q0 -34 -13.5 -65.5t-36.5 -54.5t-54 -37t-66 -14h-304v60h304q23 0 43.5 9t35.5 24.5t24 36t9 43.5q0 48 -34 79t-85 31q-46 0 -80 -28l-180 -147l-36 48l58 46q13 13 21 29t8 36v257h57v-250l34 26q26 22 57 32t62 10q47 0 80 -15.5t54.5 -40t31.5 -55t10 -60.5
zM370 444h-60v62h60v-62z" />
    <glyph glyph-name="uni0639" unicode="&#x639;" horiz-adv-x="435" 
d="M355 0h-94q-33 0 -63 -13t-52 -35t-35 -52t-13 -64q0 -33 13 -62.5t35 -52t52 -35.5t63 -13h131v-50l-131 -7q-46 0 -86.5 17t-70.5 47t-47 70t-17 86q0 60 28.5 109t74.5 79q-38 22 -61 62.5t-23 85.5q0 36 13.5 66.5t36.5 53t54 35.5t67 13h90v-57h-88q-31 0 -53 -11.5
t-35 -28.5t-19 -36.5t-6 -34.5q0 -23 8.5 -43.5t23.5 -35.5t35 -24t44 -9h125v-60z" />
    <glyph glyph-name="uni063A" unicode="&#x63a;" horiz-adv-x="432" 
d="M281 444h-60v62h60v-62zM355 0h-94q-33 0 -63 -13t-52 -35t-35 -52t-13 -64q0 -33 13 -62.5t35 -52t52 -35.5t63 -13h131v-50l-131 -7q-46 0 -86.5 17t-70.5 47t-47 70t-17 86q0 60 28.5 109t74.5 79q-38 22 -61 62.5t-23 85.5q0 36 13.5 66.5t36.5 53t54 35.5t67 13h90
v-57h-88q-31 0 -53 -11.5t-35 -28.5t-19 -36.5t-6 -34.5q0 -23 8.5 -43.5t23.5 -35.5t35 -24t44 -9h125v-60z" />
    <glyph glyph-name="uni0640" unicode="&#x640;" horiz-adv-x="104" 
d="M0 0q-31 0 -31 31q0 29 31 29h104q31 0 31 -29q0 -31 -31 -31h-104z" />
    <glyph glyph-name="uni0641" unicode="&#x641;" horiz-adv-x="780" 
d="M610 547h-60v62h60v-62zM581 466q34 0 63 -13t50.5 -35.5t33.5 -52t12 -61.5v-145q0 -34 -12.5 -63t-34.5 -50.5t-51 -33.5t-61 -12h-334q-38 0 -72 15t-59.5 40.5t-40.5 59.5t-15 72v104h60v-104q0 -26 10 -49t27.5 -40.5t40.5 -27.5t49 -10l334 1q38 0 66.5 23.5
t33.5 60.5h-100q-33 0 -62 13t-50.5 35t-33.5 51t-12 60q0 32 12 61t33.5 51.5t50.5 36t62 13.5zM682 205v99q0 20 -8 38.5t-21.5 32.5t-32 22t-39.5 8q-20 0 -38.5 -8t-32 -22t-21.5 -32t-8 -39t8 -39t21.5 -31.5t32 -21t38.5 -7.5h101z" />
    <glyph glyph-name="uni0642" unicode="&#x642;" horiz-adv-x="660" 
d="M563 60v99q0 20 -8 38.5t-21.5 32.5t-32 22t-39.5 8q-20 0 -38.5 -8t-32 -22t-21.5 -32t-8 -39t8 -39t21.5 -31.5t32 -21t38.5 -7.5h101zM562 0h-101q-33 0 -62 13t-50.5 35t-33.5 51t-12 60q0 32 12 61t33.5 51.5t50.5 36t62 13.5q34 0 63 -13t50.5 -35.5t33.5 -52
t12 -61.5v-159q0 -59 -22 -110t-60 -89.5t-88.5 -60.5t-108.5 -22t-109 22t-89.5 60t-60.5 89t-22 110v163h58v-163q0 -46 17.5 -86.5t48 -71t71 -48t86.5 -17.5q47 0 87 18t70 48.5t47 71t17 86.5zM546 389h-60v62h60v-62zM426 389h-60v62h60v-62z" />
    <glyph glyph-name="uni0643" unicode="&#x643;" horiz-adv-x="804" 
d="M744 550v-363q0 -39 -14.5 -73t-40 -59.5t-59.5 -40t-73 -14.5h-310q-39 0 -73 14.5t-59.5 40t-40 59.5t-14.5 73v101h58v-101q0 -27 10 -50t27.5 -40t41 -27t50.5 -10h310q27 0 50.5 10t41 27t27.5 40t10 50v363h58zM456 288l-119 -64l-11 20l42 22q-37 19 -37 53
q0 22 17 42q20 20 41 20q8 -1 16 -3l16 -4l-5 -17q-2 1 -5.5 1t-7.5 1h-11q-16 0 -27 -12q-12 -16 -12 -28q0 -33 32 -33q20 0 62 21z" />
    <glyph glyph-name="uni0644" unicode="&#x644;" horiz-adv-x="600" 
d="M60 175h60v-134q0 -38 14 -71t38 -57t57 -38t71 -14q37 0 69.5 14t57 38t39 57t14.5 71v509h60v-509q0 -50 -19 -93.5t-51.5 -76t-76 -51.5t-93.5 -19q-51 0 -94.5 18.5t-76 51t-51 76t-18.5 94.5v134z" />
    <glyph glyph-name="uni0645" unicode="&#x645;" horiz-adv-x="583" 
d="M394 60q42 0 71.5 28t29.5 70t-28 70.5t-68 30.5h-7q-42 -2 -69 -30.5t-27 -70.5q0 -21 7.5 -39t21 -31t31 -20.5t38.5 -7.5zM394 0q-33 2 -61.5 14t-50 33t-34 49t-12.5 62q0 58 36 101h-74q-18 0 -33 -6.5t-26.5 -18t-18 -27t-6.5 -32.5v-396h-58v396q0 30 11 55.5
t30 45t45 30.5t56 11h204q31 -1 58.5 -14t48 -34t32.5 -49.5t12 -61.5q0 -32 -12.5 -61t-34.5 -50.5t-51 -34t-61 -12.5z" />
    <glyph glyph-name="uni0646" unicode="&#x646;" horiz-adv-x="600" 
d="M60 175h60v-135q0 -37 14.5 -70t39 -57.5t57.5 -38.5t69 -14q38 0 71.5 14t58 38.5t39 57.5t14.5 70v197h57v-197q0 -49 -18.5 -92.5t-51 -76.5t-76 -52t-94.5 -19q-49 0 -92.5 19t-76.5 52t-52 76.5t-19 92.5v135zM267 236h63v-65h-63v65z" />
    <glyph glyph-name="uni0647" unicode="&#x647;" horiz-adv-x="398" 
d="M311 248q23 -24 35 -53t12 -59t-11.5 -59t-35.5 -53t-53 -35.5t-59 -11.5q-31 0 -60 11.5t-52 35.5q-24 23 -35.5 52t-11.5 60t12 60t35 52l71 71l-29 29l41 40zM270 207l-71 71l-29 -29q-12 -10 -23.5 -23t-19.5 -19q-14 -15 -21 -33.5t-7 -37.5t7.5 -37t22.5 -33
t34 -22.5t38 -7.5t37 7t32 21q15 15 22 33.5t7 38t-7 38t-22 33.5z" />
    <glyph glyph-name="uni0648" unicode="&#x648;" horiz-adv-x="437" 
d="M377 -1q0 -60 -19 -101t-53 -70q-16 -14 -37.5 -24.5t-44 -18.5t-43.5 -14t-37 -11l-15 49q34 12 72 25.5t64 34.5q23 19 34.5 42t15.5 43q2 11 3.5 23t0.5 23h-100q-33 0 -62 13t-50.5 35t-33.5 51t-12 60q0 32 12 60.5t33.5 51t50.5 35.5t62 13q34 0 63 -13t50.5 -35
t33.5 -51t12 -61v-160zM118 159q0 -21 8 -39t21.5 -31.5t32 -21t38.5 -7.5h101v99q0 20 -8 38.5t-21.5 32.5t-32 22t-39.5 8q-20 0 -38.5 -8t-32 -22t-21.5 -32t-8 -39z" />
    <glyph glyph-name="uni0649" unicode="&#x649;" horiz-adv-x="639" 
d="M496 82q45 -14 74 -51t29 -85q0 -30 -11.5 -56.5t-31 -46t-45.5 -30.5t-56 -11h-235q-35 0 -66 13.5t-54 36.5t-36.5 54t-13.5 66v194h60v-194q0 -23 8.5 -43t23.5 -35t35 -23.5t43 -8.5h235q35 0 59.5 24t24.5 60q0 27 -16 50t-41 29l-207 53v79q0 31 10.5 59t29.5 49.5
t45.5 34t58.5 12.5l140 -3v-56h-140q-14 0 -29.5 -6.5t-28.5 -17.5t-21.5 -25.5t-8.5 -29.5v-58q42 -8 82.5 -16t82.5 -18z" />
    <glyph glyph-name="uni064A" unicode="&#x64a;" horiz-adv-x="640" 
d="M497 82q45 -14 74 -51t29 -85q0 -30 -11.5 -56.5t-31 -46t-45.5 -30.5t-56 -11h-235q-35 0 -66 13.5t-54 36.5t-36.5 54t-13.5 66v194h60v-194q0 -23 8.5 -43t23.5 -35t35 -23.5t43 -8.5h235q35 0 59.5 24t24.5 60q0 27 -16 50t-41 29l-207 53v79q0 31 10.5 59t29.5 49.5
t45.5 34t58.5 12.5l140 -3v-56h-140q-14 0 -29.5 -6.5t-28.5 -17.5t-21.5 -25.5t-8.5 -29.5v-58q42 -8 82.5 -16t82.5 -18zM236 -331h60v62h-60v-62zM356 -331h60v62h-60v-62z" />
    <glyph glyph-name="uni064B" unicode="&#x64b;" 
d="M316 698l-134 -103l-26 41l136 93zM271 763l-135 -103l-26 41l137 94z" />
    <glyph glyph-name="uni064C" unicode="&#x64c;" 
d="M135 642q15 15 3 32q-9 9 -19 9q-5 0 -13 -5l-26 36q20 14 40 14q35 0 54 -28q3 -5 6.5 -10.5t5.5 -11.5l33 22l-14 19q-17 20 -12 46q3 26 26 43q16 13 36 13q32 0 53 -27q15 -18 12 -46q-4 -23 -24 -43q-5 -4 -17 -12.5t-21 -14.5q-13 -10 -31 -23.5t-34.5 -26
t-29.5 -22.5t-18 -14l-27 38zM270 738q7 6 8.5 15t-4.5 17q-7 9 -18 9q-10 0 -18 -11t0 -25q4 -4 7.5 -8.5t7.5 -8.5z" />
    <glyph glyph-name="uni064D" unicode="&#x64d;" 
d="M231 -67l-134 -104l-27 41l137 94zM277 -132l-135 -103l-26 40l137 94z" />
    <glyph glyph-name="uni064E" unicode="&#x64e;" horiz-adv-x="334" 
d="M253 695l-135 -103l-26 40l137 94z" />
    <glyph glyph-name="uni064F" unicode="&#x64f;" horiz-adv-x="336" 
d="M254 782q7 -9 10.5 -20.5t1.5 -24.5q-3 -25 -24 -43q-5 -5 -18 -13t-21 -14q-13 -9 -27.5 -20t-28 -21.5t-24 -19t-16.5 -13.5l-26 38l84 58l-15 19q-7 9 -10.5 21t-1.5 25q3 23 21.5 39t41.5 16q15 0 29 -6.5t24 -20.5zM189 763q-8 -5 -9.5 -14t4.5 -17q3 -5 7 -9t7 -8
l17 12q8 5 9 14.5t-4 16.5q-6 9 -18 9q-9 0 -13 -4z" />
    <glyph glyph-name="uni0650" unicode="&#x650;" horiz-adv-x="323" 
d="M244 -69l-135 -103l-26 40l137 94z" />
    <glyph glyph-name="uni0651" unicode="&#x651;" horiz-adv-x="355" 
d="M222 602q-12 0 -23 3.5t-20 12.5q-19 -16 -45 -16q-29 0 -49.5 19t-20.5 48v48h48v-48q0 -9 6.5 -15.5t15.5 -6.5t15 6.5t6 15.5v38h46v-38q0 -9 6 -15.5t15 -6.5t15.5 6.5t6.5 15.5v53h48v-53q0 -29 -20.5 -48t-49.5 -19z" />
    <glyph glyph-name="uni0652" unicode="&#x652;" horiz-adv-x="259" 
d="M209 668q0 -31 -21.5 -53t-52.5 -22t-52.5 22t-21.5 53q0 15 6 28t16.5 23t24 16t27.5 6t27.5 -6t24 -16t16.5 -23t6 -28zM173 669q0 15 -10 25.5t-29 10.5q-14 0 -25.5 -11.5t-11.5 -25.5q0 -17 11 -28.5t27 -10.5q16 0 26 10q12 11 12 30z" />
    <glyph glyph-name="uni0653" unicode="&#x653;" 
d="M344 639h-163l-38 -3q-14 -3 -22 -8q-12 -11 -22 -35l-59 23q25 52 43 65q13 13 37 17t41 4l183 1v-64z" />
    <glyph glyph-name="uni0654" unicode="&#x654;" 
d="M150 591l-16 31l38 18q-14 9 -22.5 22t-8.5 31q0 25 16.5 42.5t44.5 17.5q20 0 38 -9l5 -1l-10 -28l-4 1q-5 2 -13 3t-14 1q-12 0 -20.5 -8t-8.5 -19q0 -10 9.5 -17.5t20.5 -7.5q14 0 23 3t23 9l4 3l15 -28z" />
    <glyph glyph-name="uni0655" unicode="&#x655;" 
d="M116 -217l-16 31l38 18q-14 9 -22.5 22t-8.5 31q0 25 16.5 42.5t44.5 17.5q20 0 38 -9l5 -1l-10 -28l-4 1q-5 2 -13 3t-14 1q-12 0 -20.5 -8t-8.5 -19q0 -10 9.5 -17.5t20.5 -7.5q14 0 23 3t23 9l4 3l15 -28z" />
    <glyph glyph-name="uni0656" unicode="&#x656;" 
d="M216 -39v-169h-62v169h62z" />
    <glyph glyph-name="uni0660" unicode="&#x660;" horiz-adv-x="240" 
d="M119 190q20 0 33 -12.5t13 -31.5q0 -20 -13 -33t-33 -13q-19 0 -31.5 13t-12.5 33q0 19 12.5 31.5t31.5 12.5z" />
    <glyph glyph-name="uni0661" unicode="&#x661;" horiz-adv-x="214" 
d="M154 321v-381h-58v381q0 32 -9 64.5t-27 58.5q0 1 7.5 6t15.5 10q5 4 10.5 7.5t12.5 7.5q2 -2 4 -5l4 -6q3 -5 6 -9.5t5 -8.5q29 -60 29 -125z" />
    <glyph glyph-name="uni0662" unicode="&#x662;" horiz-adv-x="535" 
d="M475 466v-99q0 -39 -14.5 -73t-40 -59.5t-59.5 -40t-73 -14.5h-17q-36 0 -67.5 13.5t-57.5 36.5v-290h-58v382q0 32 -10 63.5t-28 58.5q0 2 11.5 9t22.5 15v2l2 -2q5 4 9 5q1 1 1.5 1t1.5 1q19 -25 30 -53.5t16 -59.5v-7q3 -24 14 -45t28 -36.5t39 -24.5t46 -9h17
q26 0 49 10t40.5 27.5t27.5 40.5t10 49v99h60z" />
    <glyph glyph-name="uni0663" unicode="&#x663;" horiz-adv-x="677" 
d="M617 323q0 -30 -11.5 -56t-31 -45.5t-45.5 -31t-56 -11.5q-36 0 -65.5 15t-49.5 42q-20 -27 -49.5 -42t-65.5 -15q-24 0 -46.5 7t-40.5 22v-269h-57v379q0 32 -10.5 63.5t-28.5 58.5q-1 2 6.5 7t16.5 10q5 4 11.5 7.5t13.5 7.5l4 -6t4 -5q20 -35 30 -65.5t10 -72.5
q0 -36 25.5 -61.5t61.5 -25.5t61 25.5t25 61.5v120h58v-120q0 -36 25 -61.5t61 -25.5t60 25.5t24 61.5v141h60v-141z" />
    <glyph glyph-name="uni0664" unicode="&#x664;" horiz-adv-x="410" 
d="M194 -60q-30 0 -56 11t-45.5 30.5t-31 45t-11.5 54.5q0 40 19.5 72.5t50.5 52.5q-27 18 -42.5 48.5t-15.5 66.5q0 30 11 55.5t30 45t45 30.5t56 11h86v-58h-86q-35 0 -59.5 -24.5t-24.5 -59.5q0 -17 6.5 -32t18 -26.5t26.5 -18.5t33 -7q3 1 6.5 1t7.5 1q7 2 16 4t20 4
q2 2 7 2q17 5 30.5 8.5t15.5 3.5h2l19 -55l-156 -43h-2q-27 -9 -43.5 -31t-16.5 -51q0 -34 24.5 -57.5t59.5 -23.5h166v-60h-166z" />
    <glyph glyph-name="uni0665" unicode="&#x665;" horiz-adv-x="510" 
d="M419 262q20 -23 35.5 -57.5t15.5 -76.5q0 -51 -17 -87.5t-42 -59t-52 -33t-48 -10.5h-115q-29 0 -57 12.5t-50 36.5t-35.5 58.5t-13.5 77.5q0 42 14 79t34 60q13 15 48 50l77 77q-12 14 -25 27l-26 26l34 36q28 -26 54 -50.5t49 -46.5q20 -19 39.5 -37.5t36 -34.5
t28.5 -28.5t16 -18.5zM309 -4q14 0 32 4.5t34 18.5t27.5 39t11.5 65q0 22 -6.5 46t-24.5 50q-1 2 -12.5 14t-29.5 30.5t-41 41t-46 44.5q-27 -26 -50 -49t-40 -40.5t-27 -28t-11 -12.5q-18 -23 -25.5 -47t-7.5 -44q0 -42 11 -68t26.5 -40.5t34 -19t33.5 -4.5h111z" />
    <glyph glyph-name="uni0666" unicode="&#x666;" horiz-adv-x="485" 
d="M35 470q28 -4 57 -8q25 -3 54.5 -5.5t56.5 -2.5q51 0 94 3.5t61 5.5q4 1 17 2t15 1l1 -368q0 -31 12 -63.5t32 -63.5l-43 -26q-11 10 -21.5 27t-19 37.5t-13.5 43.5t-5 45v304q-18 -2 -54 -3.5t-74 -1.5q-28 0 -57.5 2.5t-55.5 5.5q-29 3 -57 7v58z" />
    <glyph glyph-name="uni0667" unicode="&#x667;" horiz-adv-x="487" 
d="M405 481q5 -5 10 -9.5t9 -8.5q8 -7 13.5 -13t3.5 -7q-23 -22 -39.5 -52.5t-25.5 -63.5l-100 -384h-68l-100 384q-9 33 -24.5 64.5t-38.5 51.5q-1 2 4.5 8t11.5 13q4 4 8.5 8t9.5 9q2 -2 4.5 -4t4.5 -4q11 -10 15 -16q44 -47 62 -115l77 -293l79 293q15 67 60 115
q5 6 11 12t13 12z" />
    <glyph glyph-name="uni0668" unicode="&#x668;" horiz-adv-x="487" 
d="M405 -57q-7 6 -13 12t-11 12q-45 48 -60 115l-79 293l-77 -293q-18 -68 -62 -115q-4 -6 -15 -16q-2 -2 -4.5 -4t-4.5 -4q-5 5 -9.5 9t-8.5 8q-6 7 -11.5 13t-4.5 8q23 20 38.5 51.5t24.5 64.5l100 384h68l100 -384q9 -33 25.5 -63.5t39.5 -52.5q2 -1 -3.5 -7t-13.5 -13
q-4 -4 -9 -8.5t-10 -9.5z" />
    <glyph glyph-name="uni0669" unicode="&#x669;" horiz-adv-x="446" 
d="M401 -24q2 -2 -5.5 -7.5t-17.5 -11.5q-5 -4 -11.5 -7.5t-13.5 -7.5q-2 2 -4 5l-4 6l-6 10t-5 10q-29 56 -29 125l-1 78q-27 -2 -55 -3.5t-46 -1.5q-32 0 -61 12.5t-50.5 34t-34 50.5t-12.5 62q0 32 12.5 61t34 50.5t50.5 34t61 12.5q33 0 62 -12.5t50.5 -34t34 -50.5
t12.5 -61v-161l1 -71q0 -34 10 -65.5t28 -56.5zM203 229h101v101q0 21 -8 38.5t-21.5 31t-32 21t-39.5 7.5q-42 0 -70 -28t-28 -70q0 -21 7.5 -39.5t21 -32t31 -21.5t38.5 -8z" />
    <glyph glyph-name="uni066A" unicode="&#x66a;" horiz-adv-x="395" 
d="M82 -18l-32 45l257 484l22 -64zM299 21q23 0 39.5 15.5t16.5 38.5q0 24 -16.5 39.5t-39.5 15.5t-40 -15.5t-17 -39.5q0 -23 17 -38.5t40 -15.5zM97 333q23 0 39.5 15.5t16.5 38.5q0 24 -16.5 39.5t-39.5 15.5t-40 -15.5t-17 -39.5q0 -23 17 -38.5t40 -15.5z" />
    <glyph glyph-name="uni066B" unicode="&#x66b;" horiz-adv-x="236" 
d="M98 -1q-35 12 -35 47q0 23 16 39t40 16q23 0 40 -16t17 -39q0 -9 -4 -20t-11.5 -27.5t-19.5 -40.5t-28 -59h-53z" />
    <glyph glyph-name="uni0670" unicode="&#x670;" 
d="M206 764v-169h-62v169h62z" />
    <glyph glyph-name="uni0671" unicode="&#x671;" horiz-adv-x="259" 
 />
    <glyph glyph-name="uni0674" unicode="&#x674;" horiz-adv-x="215" 
 />
    <glyph glyph-name="uni067E" unicode="&#x67e;" horiz-adv-x="804" 
d="M744 288v-101q0 -39 -14.5 -73t-40 -59.5t-59.5 -40t-73 -14.5h-310q-39 0 -73 14.5t-59.5 40t-40 59.5t-14.5 73v101h58v-101q0 -27 10 -50t27.5 -40t41 -27t50.5 -10h310q27 0 50.5 10t41 27.5t27.5 40.5t10 50v100h58zM398 -278h60v62h-60v-62zM338 -178h60v62h-60
v-62zM458 -178h60v62h-60v-62z" />
    <glyph glyph-name="uni0686" unicode="&#x686;" horiz-adv-x="580" 
d="M59 -47q18 37 48 62l278 206l-112 58q-25 13 -58 13q-39 0 -72 -18t-52 -53l-41 24q12 26 30 46q18 19 40 33t48 21q25 7 51 7q42 0 81 -18l126 -68q13 -6 31 -10t33 -4h50v-55q-7 -1 -13 -1q-7 0 -13 -1q-11 -1 -20 -1.5t-13 -0.5q-22 0 -37 4q-34 -27 -72 -56l-77 -59
q-39 -30 -76 -57q-37 -28 -68 -51q-50 -41 -53 -100q0 -27 11 -51q10 -23 28 -41t42 -28t51 -10h249v-53l-252 -7q-39 0 -73 14q-34 15 -59 40q-26 26 -40 60q-15 34 -15 73q0 45 19 82zM256 -66h60v-62h60v62h60v-62h-60v-62h-60v62h-60v62z" />
    <glyph glyph-name="uni0698" unicode="&#x698;" horiz-adv-x="305" 
d="M199 297v-316q-3 -53 -19.5 -90t-44.5 -63t-66 -43t-85 -31l-14 49q33 13 63.5 27t54 34t37.5 48t14 69v316h60zM199 489h-60v62h60v-62zM259 389h-60v62h60v-62zM139 389h-60v62h60v-62z" />
    <glyph glyph-name="uni06A4" unicode="&#x6a4;" horiz-adv-x="780" 
d="M581 466q34 0 63 -13t50.5 -35.5t33.5 -52t12 -61.5v-145q0 -34 -12.5 -63t-34.5 -50.5t-51 -33.5t-61 -12h-334q-38 0 -72 15t-59.5 40.5t-40.5 59.5t-15 72v104h60v-104q0 -26 10 -49t27.5 -40.5t40.5 -27.5t49 -10l334 1q38 0 66.5 23.5t33.5 60.5h-100q-33 0 -62 13
t-50.5 35t-33.5 51t-12 60q0 32 12 61t33.5 51.5t50.5 36t62 13.5zM682 205v99q0 20 -8 38.5t-21.5 32.5t-32 22t-39.5 8q-20 0 -38.5 -8t-32 -22t-21.5 -32t-8 -39t8 -39t21.5 -31.5t32 -21t38.5 -7.5h101zM604 650h-60v62h60v-62zM664 550h-60v62h60v-62zM544 550h-60v62
h60v-62z" />
    <glyph glyph-name="uni06A9" unicode="&#x6a9;" horiz-adv-x="722" 
d="M566 247l-198 128v57l161 159l41 -41l-139 -146l164 -104q24 -15 42 -30t30 -33t18.5 -40.5t6.5 -52.5t-11 -56t-30 -45.5t-44.5 -31t-55.5 -11.5h-304q-39 0 -73 14.5t-59.5 40t-40 59.5t-14.5 73v101h60v-101q0 -26 10 -49t27.5 -40.5t40.5 -27.5t49 -10h304
q34 0 59 24t25 60q0 21 -5.5 36.5t-15 27.5t-22 21t-26.5 18z" />
    <glyph glyph-name="uni06AF" unicode="&#x6af;" horiz-adv-x="722" 
d="M378 473l35 -38l164 164l-35 36zM692 144q1 -8 -4 -31.5t-20.5 -48.5t-43.5 -44.5t-73 -19.5h-304q-39 0 -73 14.5t-59.5 40t-40 59.5t-14.5 73v101h60v-101q0 -26 10 -49t27.5 -40.5t40.5 -27.5t49 -10h304q9 0 23 4.5t27.5 15t23.5 26.5t10 38t-5.5 37.5t-15 27
t-22 20.5t-26.5 18l-143 96v57l190 191l41 -41l-168 -178l109 -72q24 -16 42 -31t30 -32.5t18.5 -40t6.5 -52.5z" />
    <glyph glyph-name="uni06C0" unicode="&#x6c0;" horiz-adv-x="398" 
d="M311 253q23 -24 35 -53t12 -59t-11.5 -59t-35.5 -53t-53 -35.5t-59 -11.5q-46 0 -87.5 26.5t-59.5 73.5q-17 43 -8.5 89.5t43.5 81.5l71 71l-29 29l41 40zM270 212l-71 71l-29 -29q-12 -10 -23.5 -22t-19.5 -20q-15 -15 -21.5 -33.5t-6 -37.5t8 -37.5t21.5 -32.5
q15 -15 34 -22.5t38 -7.5t37 7t32 21q15 15 22 33.5t7 38t-7 38t-22 33.5zM114 417l-16 31l38 18q-14 9 -22.5 22t-8.5 31q0 25 16.5 42.5t44.5 17.5q20 0 38 -9l5 -1l-10 -28l-4 1q-5 2 -13 3t-14 1q-12 0 -20.5 -8t-8.5 -19q0 -10 9.5 -17.5t20.5 -7.5q14 0 23 3t23 9l4 3
l15 -28z" />
    <glyph glyph-name="uni06CC" unicode="&#x6cc;" horiz-adv-x="639" 
d="M496 82q45 -14 74 -51t29 -85q0 -30 -11.5 -56.5t-31 -46t-45.5 -30.5t-56 -11h-235q-35 0 -66 13.5t-54 36.5t-36.5 54t-13.5 66v194h60v-194q0 -23 8.5 -43t23.5 -35t35 -23.5t43 -8.5h235q35 0 59.5 24t24.5 60q0 27 -16 50t-41 29l-207 53v79q0 31 10.5 59t29.5 49.5
t45.5 34t58.5 12.5l140 -3v-56h-140q-14 0 -29.5 -6.5t-28.5 -17.5t-21.5 -25.5t-8.5 -29.5v-58q42 -8 82.5 -16t82.5 -18z" />
    <glyph glyph-name="uni06E4" unicode="&#x6e4;" 
 />
    <glyph glyph-name="uni06F0" unicode="&#x6f0;" horiz-adv-x="406" 
d="M202 287q30 0 56 -11t45.5 -30.5t31 -46t11.5 -56.5t-11.5 -56t-31 -45.5t-45.5 -31t-56 -11.5t-56 11.5t-45 31t-30 45.5t-11 56t11 56.5t30 46t45 30.5t56 11zM202 59q34 0 59 25t25 59q0 18 -7 33t-18.5 26.5t-26.5 18t-32 6.5q-35 0 -59.5 -24.5t-24.5 -59.5
q0 -17 6.5 -32t18 -26.5t26.5 -18.5t33 -7z" />
    <glyph glyph-name="uni06F1" unicode="&#x6f1;" horiz-adv-x="214" 
d="M154 321v-381h-58v381q0 32 -9 64.5t-27 58.5q0 1 7.5 6t15.5 10q5 4 10.5 7.5t12.5 7.5q2 -2 4 -5l4 -6q3 -5 6 -9.5t5 -8.5q29 -60 29 -125z" />
    <glyph glyph-name="uni06F2" unicode="&#x6f2;" horiz-adv-x="545" 
d="M485 466v-99q0 -39 -14.5 -73t-40 -59.5t-59.5 -40t-73 -14.5h-17q-36 0 -67.5 13.5t-57.5 36.5v-290h-58v382q0 32 -10 63.5t-28 58.5q0 2 11.5 9t22.5 15v2l2 -2q5 4 9 5q1 1 1.5 1t1.5 1q19 -25 30 -53.5t16 -59.5v-7q3 -24 14 -45t28 -36.5t39 -24.5t46 -9h17
q26 0 49 10t40.5 27.5t27.5 40.5t10 49v99h60z" />
    <glyph glyph-name="uni06F3" unicode="&#x6f3;" horiz-adv-x="677" 
d="M617 323q0 -30 -11.5 -56t-31 -45.5t-45.5 -31t-56 -11.5q-36 0 -65.5 15t-49.5 42q-20 -27 -49.5 -42t-65.5 -15q-24 0 -46.5 7t-40.5 22v-269h-57v379q0 32 -10.5 63.5t-28.5 58.5q-1 2 6.5 7t16.5 10q5 4 11.5 7.5t13.5 7.5l4 -6t4 -5q20 -35 30 -65.5t10 -72.5
q0 -36 25.5 -61.5t61.5 -25.5t61 25.5t25 61.5v120h58v-120q0 -36 25 -61.5t61 -25.5t60 25.5t24 61.5v141h60v-141z" />
    <glyph glyph-name="uni06F4" unicode="&#x6f4;" horiz-adv-x="542" 
d="M492 200l-33 -24q-26 -16 -52 -22.5t-56 -6.5q-2 -1 -22 -1q-24 0 -68.5 6t-104.5 29v-240h-57v382q0 32 -10.5 63.5t-28.5 58.5q-1 1 6 5.5t15 9.5q5 3 10 6.5t12 7.5q2 -2 3.5 -5t3.5 -6q2 -5 5 -10t5 -10q14 -27 25 -54.5t11 -65.5v-72q11 -8 33 -15t37 -12
q-33 59 -15 125q16 52 59 83t94 31q22 0 44 -6q17 -5 24.5 -7.5t9.5 -3.5t0 -1l-12 -48q-3 1 -10 1q-5 1 -13 2t-20 2q-5 1 -9 1h-9q-35 0 -63 -18t-39 -53q-11 -40 9 -76t60 -49q9 0 15 -2h7q26 0 58.5 11.5t56.5 24.5z" />
    <glyph glyph-name="uni06F5" unicode="&#x6f5;" horiz-adv-x="593" 
d="M494 263q16 -19 28.5 -47.5t17.5 -61.5t0 -69t-24 -69q-20 -34 -54.5 -55.5t-77.5 -21.5q-29 0 -51 12t-38 32q-14 -20 -37 -32t-52 -12q-28 0 -55.5 12.5t-50 35.5t-36.5 56t-14 74q0 45 14.5 84t35.5 62q6 8 22.5 25t38 39.5t46.5 47.5l47 47l-36 41l38 38
q33 -32 70 -68.5t71 -70t60 -60t37 -39.5zM382 -3q14 0 33 6t35.5 20.5t28 39.5t11.5 64q0 22 -8 46t-26 48q-1 2 -13.5 15.5t-34 35t-50.5 50t-63 59.5q-27 -26 -54.5 -53.5t-50 -51t-37 -38.5t-16.5 -17q-18 -24 -24.5 -48t-6.5 -46q0 -42 10.5 -68t26.5 -39.5t33.5 -18
t32.5 -4.5q25 0 43.5 18.5t18.5 44.5v26h51v-26q0 -26 17 -44.5t43 -18.5z" />
    <glyph glyph-name="uni06F6" unicode="&#x6f6;" horiz-adv-x="520" 
d="M448 376q1 -1 4.5 -8l7.5 -15q4 -9 10 -20q-13 -4 -28 -16q-12 -10 -27.5 -29t-31.5 -53l-158 -296l-53 27l109 193q-30 -15 -66 -15q-31 0 -60.5 12.5t-52.5 34t-37 50t-15 59.5q-1 32 14 64t36 54l69 72l31 -36l-64 -71q-6 -6 -11 -15.5t-9 -21.5t-6 -24t-2 -22
q1 -19 10.5 -37t25 -32t34 -22t37.5 -8q39 0 64 15.5t44.5 39t39 50.5t47.5 49q11 7 20.5 12t17.5 9z" />
    <glyph glyph-name="uni06F7" unicode="&#x6f7;" horiz-adv-x="487" 
d="M405 481q5 -5 10 -9.5t9 -8.5q8 -7 13.5 -13t3.5 -7q-23 -22 -39.5 -52.5t-25.5 -63.5l-100 -384h-68l-100 384q-9 33 -24.5 64.5t-38.5 51.5q-1 2 4.5 8t11.5 13q4 4 8.5 8t9.5 9q2 -2 4.5 -4t4.5 -4q11 -10 15 -16q44 -47 62 -115l77 -293l79 293q15 67 60 115
q5 6 11 12t13 12z" />
    <glyph glyph-name="uni06F8" unicode="&#x6f8;" horiz-adv-x="487" 
d="M405 -57q-7 6 -13 12t-11 12q-45 48 -60 115l-79 293l-77 -293q-18 -68 -62 -115q-4 -6 -15 -16q-2 -2 -4.5 -4t-4.5 -4q-5 5 -9.5 9t-8.5 8q-6 7 -11.5 13t-4.5 8q23 20 38.5 51.5t24.5 64.5l100 384h68l100 -384q9 -33 25.5 -63.5t39.5 -52.5q2 -1 -3.5 -7t-13.5 -13
q-4 -4 -9 -8.5t-10 -9.5z" />
    <glyph glyph-name="uni06F9" unicode="&#x6f9;" horiz-adv-x="446" 
d="M406 -24q2 -2 -5.5 -7.5t-17.5 -11.5q-5 -4 -11.5 -7.5t-13.5 -7.5q-2 2 -4 5l-4 6l-6 10t-5 10q-29 56 -29 125l-1 78q-27 -2 -55 -3.5t-46 -1.5q-32 0 -61 12.5t-50.5 34t-34 50.5t-12.5 62q0 32 12.5 61t34 50.5t50.5 34t61 12.5q33 0 62 -12.5t50.5 -34t34 -50.5
t12.5 -61v-161l1 -71q0 -34 10 -65.5t28 -56.5zM208 229h101v101q0 21 -8 38.5t-21.5 31t-32 21t-39.5 7.5q-42 0 -70 -28t-28 -70q0 -21 7.5 -39.5t21 -32t31 -21.5t38.5 -8z" />
    <glyph glyph-name="uni08E5" unicode="&#x8e5;" 
 />
    <glyph glyph-name="uni200C" unicode="&#x200c;" horiz-adv-x="0" 
 />
    <glyph glyph-name="uni200D" unicode="&#x200d;" horiz-adv-x="0" 
d="M15 -118h-30v597l-58 -59l-21 21l73 73l-73 72l21 21l73 -73l73 73l21 -21l-73 -72l73 -73l-21 -21l-58 59v-597z" />
    <glyph glyph-name="uni200E" unicode="&#x200e;" horiz-adv-x="0" 
d="M185 515l-93 -92l-22 21l59 56h-114v-618h-30v648h144l-59 56l22 21z" />
    <glyph glyph-name="uni200F" unicode="&#x200f;" horiz-adv-x="0" 
d="M15 -118h-30v618h-115l59 -56l-21 -21l-93 92l93 92l21 -21l-59 -56h145v-648z" />
    <glyph glyph-name="endash" unicode="&#x2013;" horiz-adv-x="336" 
d="M336 180h-336v66h336v-66z" />
    <glyph glyph-name="emdash" unicode="&#x2014;" horiz-adv-x="598" 
d="M598 180h-598v66h598v-66z" />
    <glyph glyph-name="quoteleft" unicode="&#x2018;" horiz-adv-x="187" 
d="M60 500q0 6 4 26.5t9 42.5t9 41t4 22h41q0 -3 -2 -22t-4 -41t-4 -42.5t-2 -26.5h-55z" />
    <glyph glyph-name="quoteright" unicode="&#x2019;" horiz-adv-x="187" 
d="M127 632q0 -6 -4 -26t-9.5 -42.5t-9.5 -41t-4 -22.5h-40q0 4 2 22.5t4 41t4 42.5t2 26h55z" />
    <glyph glyph-name="quotesinglbase" unicode="&#x201a;" horiz-adv-x="192" 
d="M132 97l-40 -187h-32l4 187h68z" />
    <glyph glyph-name="quotedblleft" unicode="&#x201c;" horiz-adv-x="262" 
d="M194 632q0 -3 1.5 -22t3 -41t2.5 -42.5t1 -26.5h-56q0 6 1.5 26.5t3.5 42.5t3.5 41t1.5 22h38zM60 500q0 6 1 26.5t2.5 42.5t2.5 41t1 22h41q0 -3 1 -22t2.5 -41t2.5 -42.5t1 -26.5h-55z" />
    <glyph glyph-name="quotedblright" unicode="&#x201d;" horiz-adv-x="262" 
d="M156 500q0 4 -1.5 22.5t-3.5 41t-3.5 42.5t-1.5 26h56q0 -6 -1 -26t-2.5 -42.5t-3 -41t-1.5 -22.5h-38zM115 632q0 -6 -1 -26t-2.5 -42.5t-2.5 -41t-1 -22.5h-41q0 4 -1 22.5t-2.5 41t-2.5 42.5t-1 26h55z" />
    <glyph glyph-name="quotedblbase" unicode="&#x201e;" horiz-adv-x="291" 
d="M231 97l-41 -187h-31l4 187h68zM132 97l-41 -187h-31l4 187h68z" />
    <glyph glyph-name="dagger" unicode="&#x2020;" horiz-adv-x="346" 
d="M147 -196v440h-65l-22 21l22 22h65v302h52v-302h87v-43h-87v-440h-52z" />
    <glyph glyph-name="daggerdbl" unicode="&#x2021;" horiz-adv-x="324" 
d="M136 -196v387h-76v43h76v57h-76v46h76v252h52v-252h76v-46h-76v-57h76v-43h-76v-387h-52z" />
    <glyph glyph-name="bullet" unicode="&#x2022;" horiz-adv-x="215" 
d="M110 479q19 0 32 -13t13 -32t-13 -32t-32 -13t-34.5 13t-15.5 32t15.5 32t34.5 13z" />
    <glyph glyph-name="ellipsis" unicode="&#x2026;" horiz-adv-x="620" 
d="M105 90q20 0 32 -13t12 -33q0 -18 -12 -30t-32 -12q-19 0 -32 12t-13 30q0 20 13 33t32 13zM301 90q20 0 32 -13t12 -33q0 -18 -12 -30t-32 -12q-18 0 -31.5 12t-13.5 30q0 20 13.5 33t31.5 13zM516 90q20 0 32 -13t12 -33q0 -18 -12 -30t-32 -12q-19 0 -32 12t-13 30
q0 20 13 33t32 13z" />
    <glyph glyph-name="perthousand" unicode="&#x2030;" horiz-adv-x="932" 
d="M143 351q0 -28 4.5 -45.5t12 -27.5t17.5 -13.5t22 -3.5q11 0 21 3.5t17.5 13.5t12 27.5t4.5 45.5q0 27 -4.5 44.5t-12 27.5t-17.5 14t-21 4q-12 0 -22 -4t-17.5 -14t-12 -27.5t-4.5 -44.5zM308 351q0 -80 -30.5 -112t-78.5 -32t-78.5 32t-30.5 112t30.5 112t78.5 32
t78.5 -32t30.5 -112zM463 130q0 -27 4.5 -44.5t12 -27.5t17.5 -13.5t21 -3.5q12 0 22 3.5t17.5 13.5t12 27.5t4.5 44.5q0 28 -4.5 45.5t-12 27.5t-17.5 13.5t-22 3.5q-11 0 -21 -3.5t-17.5 -13.5t-12 -27.5t-4.5 -45.5zM627 130q0 -79 -29.5 -111t-79.5 -32q-48 0 -78 32
t-30 111q0 41 8 68.5t22 44.5t34 24t44 7q25 0 45 -7t34.5 -24t22 -44.5t7.5 -68.5zM531 497l-272 -487l-59 1l272 483zM721 130q0 -27 4.5 -44.5t12 -27.5t17.5 -13.5t21 -3.5q12 0 22 3.5t17.5 13.5t12 27.5t4.5 44.5q0 28 -4.5 45.5t-12 27.5t-17.5 13.5t-22 3.5
q-11 0 -21 -3.5t-17.5 -13.5t-12 -27.5t-4.5 -45.5zM885 130q0 -79 -29.5 -111t-79.5 -32q-48 0 -78 32t-30 111q0 41 8 68.5t22 44.5t34 24t44 7q25 0 45 -7t34.5 -24t22 -44.5t7.5 -68.5z" />
    <glyph glyph-name="guilsinglleft" unicode="&#x2039;" horiz-adv-x="436" 
d="M40 170v50l356 179v-49l-308 -155l308 -155v-49z" />
    <glyph glyph-name="guilsinglright" unicode="&#x203a;" horiz-adv-x="436" 
d="M40 -9v49l308 155l-308 155v49l356 -179v-50z" />
    <glyph glyph-name="fraction" unicode="&#x2044;" horiz-adv-x="399" 
d="M359 491l-273 -486l-46 26l273 483z" />
    <glyph glyph-name="Euro" unicode="&#x20ac;" horiz-adv-x="652" 
d="M32 345h67q10 48 34 87q23 39 59 67q35 27 81 42q45 15 100 15q44 0 91 -8t90 -23l-10 -50q-45 12 -88 19q-43 6 -76 6q-85 0 -141 -41q-57 -42 -75 -114h253l-10 -41h-253q-1 -8 -1 -16q-1 -9 -1 -18q0 -11 1 -22q1 -12 3 -23h231l-11 -41h-208q21 -66 74 -104
q52 -38 130 -38q33 0 81 7q47 7 101 22l11 -49q-52 -17 -103 -26q-51 -8 -93 -8q-103 0 -173 53q-70 52 -93 143h-71v41h63q-2 11 -3 23q-1 11 -1 22q0 9 1 18v16h-60v41z" />
    <glyph glyph-name="trademark" unicode="&#x2122;" horiz-adv-x="413" 
d="M234 579l41 -181l41 181h37v-219h-26v148l-36 -148h-32l-36 148v-148h-26v219h37zM60 554v25h121v-25h-46v-194h-25v194h-50z" />
    <glyph glyph-name="minus" unicode="&#x2212;" horiz-adv-x="425" 
d="M60 283h305v-57h-305v57z" />
    <glyph glyph-name="uniFE00" unicode="&#xfe00;" horiz-adv-x="253" 
d="M253 60q31 0 31 -29q0 -31 -31 -31h-49q-30 0 -56 11.5t-45.5 31t-31 45.5t-11.5 56v406h58v-407q0 -35 25 -59t61 -24h49z" />
    <glyph glyph-name="uniFE01" unicode="&#xfe01;" horiz-adv-x="240" 
d="M211 654h-139q-21 -1 -35.5 -4.5t-26 -12t-20 -21.5t-17.5 -33l49 -18q4 8 8 15.5t9 13.5q11 5 18 6l32 2h122v52zM240 60q31 0 31 -29q0 -31 -31 -31h-49q-30 0 -56 11.5t-45.5 31t-31 45.5t-11.5 56v385h58v-386q0 -35 25 -59t61 -24h49z" />
    <glyph glyph-name="uniFE03" unicode="&#xfe03;" horiz-adv-x="253" 
d="M253 60q31 0 31 -29q0 -31 -31 -31h-49q-30 0 -56 11.5t-45.5 31t-31 45.5t-11.5 56v376h58v-377q0 -35 25 -59t61 -24h49zM65 550l-16 31l38 18q-14 9 -22.5 22t-8.5 31q0 25 16.5 42.5t44.5 17.5q20 0 38 -9l5 -1l-10 -28l-4 1q-5 2 -13 3t-14 1q-12 0 -20.5 -8
t-8.5 -19q0 -10 9.5 -17.5t20.5 -7.5q14 0 23 3t23 9l4 3l15 -28z" />
    <glyph glyph-name="uniFE05" unicode="&#xfe05;" horiz-adv-x="253" 
d="M253 60q31 0 31 -29q0 -31 -31 -31h-49q-30 0 -56 11.5t-45.5 31t-31 45.5t-11.5 56v406h58v-407q0 -35 25 -59t61 -24h49zM54 -192l-16 31l38 18q-14 9 -22.5 22t-8.5 31q0 25 16.5 42.5t44.5 17.5q20 0 38 -9l5 -1l-10 -28l-4 1q-5 2 -13 3t-14 1q-12 0 -20.5 -8
t-8.5 -19q0 -10 9.5 -17.5t20.5 -7.5q14 0 23 3t23 9l4 3l15 -28z" />
    <glyph glyph-name="uniFE06" unicode="&#xfe06;" horiz-adv-x="275" 
 />
    <glyph glyph-name="uniFE07" unicode="&#xfe07;" horiz-adv-x="275" 
 />
    <glyph glyph-name="uniFE08" unicode="&#xfe08;" horiz-adv-x="275" 
 />
    <glyph glyph-name="uniFE09" unicode="&#xfe09;" horiz-adv-x="849" 
d="M384 -116h60v-62h-60v62zM828 60h21q31 0 31 -29q0 -31 -31 -31h-21q-39 0 -71.5 21t-50.5 53q-26 -34 -64.5 -54t-84.5 -20h-310q-39 0 -73 14.5t-59.5 40t-40 59.5t-14.5 73v101h58v-100q0 -27 10 -50t27.5 -40.5t41 -27.5t50.5 -10l310 1q27 0 50.5 9.5t41 26.5
t27.5 40t10 50v101h58v-149q0 -33 25.5 -56t58.5 -23z" />
    <glyph glyph-name="uniFE0A" unicode="&#xfe0a;" horiz-adv-x="304" 
d="M285 60h19q31 0 31 -29q0 -31 -31 -31q-42 0 -74.5 10t-59.5 45q-20 -26 -49 -40.5t-64 -14.5h-57q-31 0 -31 31q0 29 31 29h57q17 0 32.5 7t27 18.5t18 27.5t6.5 34v138h60v-141q0 -34 24 -59t60 -25zM140 -116h60v-62h-60v62z" />
    <glyph glyph-name="uniFE0B" unicode="&#xfe0b;" horiz-adv-x="270" 
d="M60 -116h60v-62h-60v62zM0 0q-32 0 -32 31q0 29 32 29h66q17 0 32 7t26.5 18.5t18.5 27.5t7 34v139h60v-142q0 -30 -11.5 -56t-31 -45.5t-45.5 -31t-56 -11.5h-66z" />
    <glyph glyph-name="uniFE0C" unicode="&#xfe0c;" horiz-adv-x="849" 
d="M828 60h21q31 0 31 -29q0 -31 -31 -31h-21q-39 0 -71.5 21t-50.5 53q-26 -34 -64.5 -54t-84.5 -20h-310q-39 0 -73 14.5t-59.5 40t-40 59.5t-14.5 73v101h58v-100q0 -27 10 -50t27.5 -40.5t41 -27.5t50.5 -10l310 1q27 0 50.5 9.5t41 26.5t27.5 40t10 50v101h58v-149
q0 -33 25.5 -56t58.5 -23zM374 -216h60v-62h-60v62zM314 -116h60v-62h-60v62zM434 -116h60v-62h-60v62z" />
    <glyph glyph-name="uniFE0D" unicode="&#xfe0d;" horiz-adv-x="304" 
d="M138 -216h60v-62h-60v62zM78 -116h60v-62h-60v62zM198 -116h60v-62h-60v62zM285 60h19q31 0 31 -29q0 -31 -31 -31q-42 0 -74.5 10t-59.5 45q-20 -26 -49 -40.5t-64 -14.5h-57q-31 0 -31 31q0 29 31 29h57q17 0 32.5 7t27 18.5t18 27.5t6.5 34v138h60v-141q0 -34 24 -59
t60 -25z" />
    <glyph glyph-name="uniFE0E" unicode="&#xfe0e;" horiz-adv-x="300" 
d="M0 0q-32 0 -32 31q0 29 32 29h96q17 0 32 7t26.5 18.5t18.5 27.5t7 34v139h60v-142q0 -30 -11.5 -56t-31 -45.5t-45.5 -31t-56 -11.5h-96zM88 -216h60v-62h-60v62zM28 -116h60v-62h-60v62zM148 -116h60v-62h-60v62z" />
    <glyph glyph-name="uniFE0F" unicode="&#xfe0f;" horiz-adv-x="849" 
d="M828 60h21q31 0 31 -29q0 -31 -31 -31h-21q-39 0 -71.5 21t-50.5 53q-26 -34 -64.5 -54t-84.5 -20h-310q-39 0 -73 14.5t-59.5 40t-40 59.5t-14.5 73v101h58v-100q0 -27 10 -50t27.5 -40.5t41 -27.5t50.5 -10l310 1q27 0 50.5 9.5t41 26.5t27.5 40t10 50v101h58v-149
q0 -33 25.5 -56t58.5 -23zM492 288h-60v62h60v-62zM372 288h-60v62h60v-62z" />
    <glyph glyph-name="uniFE10" unicode="&#xfe10;" horiz-adv-x="304" 
d="M285 60h19q31 0 31 -29q0 -31 -31 -31q-42 0 -74.5 10t-59.5 45q-20 -26 -49 -40.5t-64 -14.5h-57q-31 0 -31 31q0 29 31 29h57q17 0 32.5 7t27 18.5t18 27.5t6.5 34v138h60v-141q0 -34 24 -59t60 -25zM264 389h-60v62h60v-62zM144 389h-60v62h60v-62z" />
    <glyph glyph-name="uniFE11" unicode="&#xfe11;" horiz-adv-x="285" 
d="M0 0q-32 0 -32 31q0 29 32 29h66q17 0 32 7t26.5 18.5t18.5 27.5t7 34v139h60v-142q0 -30 -11.5 -56t-31 -45.5t-45.5 -31t-56 -11.5h-66zM270 389h-60v62h60v-62zM150 389h-60v62h60v-62z" />
    <glyph glyph-name="uniFE12" unicode="&#xfe12;" horiz-adv-x="849" 
d="M828 60h21q31 0 31 -29q0 -31 -31 -31h-21q-39 0 -71.5 21t-50.5 53q-26 -34 -64.5 -54t-84.5 -20h-310q-39 0 -73 14.5t-59.5 40t-40 59.5t-14.5 73v101h58v-100q0 -27 10 -50t27.5 -40.5t41 -27.5t50.5 -10l310 1q27 0 50.5 9.5t41 26.5t27.5 40t10 50v101h58v-149
q0 -33 25.5 -56t58.5 -23zM432 388h-60v62h60v-62zM492 288h-60v62h60v-62zM372 288h-60v62h60v-62z" />
    <glyph glyph-name="uniFE13" unicode="&#xfe13;" horiz-adv-x="304" 
d="M285 60h19q31 0 31 -29q0 -31 -31 -31q-42 0 -74.5 10t-59.5 45q-20 -26 -49 -40.5t-64 -14.5h-57q-31 0 -31 31q0 29 31 29h57q17 0 32.5 7t27 18.5t18 27.5t6.5 34v138h60v-141q0 -34 24 -59t60 -25zM204 489h-60v62h60v-62zM264 389h-60v62h60v-62zM144 389h-60v62h60
v-62z" />
    <glyph glyph-name="uniFE14" unicode="&#xfe14;" horiz-adv-x="286" 
d="M0 0q-32 0 -32 31q0 29 32 29h66q17 0 32 7t26.5 18.5t18.5 27.5t7 34v139h60v-142q0 -30 -11.5 -56t-31 -45.5t-45.5 -31t-56 -11.5h-66zM144 489h-60v62h60v-62zM204 389h-60v62h60v-62zM84 389h-60v62h60v-62z" />
    <glyph glyph-name="uniFE15" unicode="&#xfe15;" horiz-adv-x="595" 
d="M595 60q31 0 31 -30t-31 -30h-141q-51 0 -83 27.5t-46 72.5q-48 -34 -87 -63q-16 -12 -31.5 -23.5t-27.5 -20t-20 -14l-8 -5.5q-50 -41 -53 -100q0 -27 10.5 -50.5t28.5 -41.5t42 -28t51 -10h249v-53l-252 -7q-39 0 -73 14.5t-59.5 40t-40 59.5t-14.5 73q0 45 18.5 82
t48.5 62l278 206l-112 58q-25 13 -58 13q-39 0 -72 -18t-52 -53l-41 24q12 26 30 45.5t40 33.5t47.5 21t51.5 7q42 0 81 -18l126 -68q13 -6 31 -10t33 -4h50v-55q-7 -1 -13.5 -1t-12.5 -1q-11 -1 -20 -1.5t-13 -0.5q-22 0 -37 4l-74 -63q3 -32 27 -53t57 -21h141zM319 -76
h60v-62h-60v62z" />
    <glyph glyph-name="uniFE16" unicode="&#xfe16;" horiz-adv-x="645" 
d="M0 60h257q31 0 57.5 14.5t47.5 41.5l78 100l-140 67q-27 12 -55 12q-21 0 -36.5 -4.5t-29 -13.5t-27 -22.5t-29.5 -31.5l-49 24q30 51 71.5 79t98.5 28q40 0 80 -18l151 -72q13 -5 27 -8.5t28 -3.5h48v-57l-39 -3q-15 0 -26.5 1.5t-20.5 3.5l-38 -55q0 -35 24.5 -57.5
t59.5 -24.5h107q31 0 31 -29q0 -31 -31 -31h-107q-50 0 -78.5 26.5t-42.5 60.5q-27 -38 -72.5 -61.5t-90.5 -25.5h-254q-31 0 -31 30t31 30zM250 -178h60v62h-60v-62z" />
    <glyph glyph-name="uniFE17" unicode="&#xfe17;" horiz-adv-x="611" 
d="M0 0q-14 0 -23 8t-9 22t9 22t23 8h246q31 0 59 15.5t48 41.5l78 99l-141 67q-24 12 -53 12q-40 0 -71 -20.5t-54 -51.5l-45 24q29 51 70.5 78.5t98.5 27.5q42 0 81 -17l151 -72q21 -12 53 -12h50v-57l-42 -3q-12 0 -22 1t-22 4l-84 -118q-29 -42 -68.5 -60.5t-85.5 -18.5
h-247zM247 -116h60v-62h-60v62z" />
    <glyph glyph-name="uniFE18" unicode="&#xfe18;" horiz-adv-x="595" 
d="M59 -47q18 37 48 62l278 206l-112 58q-25 13 -58 13q-39 0 -72 -18t-52 -53l-41 24q12 26 30 46q18 19 40 33t48 21q25 7 51 7q42 0 81 -18l126 -68q13 -6 31 -10t33 -4h50v-55q-7 -1 -13 -1q-7 0 -13 -1q-11 -1 -20 -1.5t-13 -0.5q-22 0 -37 4l-74 -63q3 -32 27 -53
t57 -21h141q31 0 31 -30t-31 -30h-141q-51 0 -83 28q-32 27 -46 72q-48 -34 -87 -63q-16 -12 -31 -23l-28 -21q-12 -8 -20 -14l-8 -5q-50 -41 -53 -100q0 -27 11 -51q10 -23 28 -41t42 -28t51 -10h249v-53l-252 -7q-39 0 -73 14q-34 15 -59 40q-26 26 -40 60q-15 34 -15 73
q0 45 19 82zM216 -128v62h60v-62h60v62h60v-62h-60v-62h-60v62h-60z" />
    <glyph glyph-name="uniFE19" unicode="&#xfe19;" horiz-adv-x="645" 
d="M0 60h257q31 0 57.5 14.5t47.5 41.5l78 100l-140 67q-27 12 -55 12q-21 0 -36.5 -4.5t-29 -13.5t-27 -22.5t-29.5 -31.5l-49 24q30 51 71.5 79t98.5 28q40 0 80 -18l151 -72q13 -5 27 -8.5t28 -3.5h48v-57l-39 -3q-15 0 -26.5 1.5t-20.5 3.5l-38 -55q0 -35 24.5 -57.5
t59.5 -24.5h107q31 0 31 -29q0 -31 -31 -31h-107q-50 0 -78.5 26.5t-42.5 60.5q-27 -38 -72.5 -61.5t-90.5 -25.5h-254q-31 0 -31 30t31 30zM272 -278h60v62h-60v-62zM212 -178h60v62h-60v-62zM332 -178h60v62h-60v-62z" />
    <glyph glyph-name="uniFE1A" unicode="&#xfe1a;" horiz-adv-x="611" 
d="M0 0q-14 0 -23 8t-9 22t9 22t23 8h246q31 0 59 15.5t48 41.5l78 99l-141 67q-24 12 -53 12q-40 0 -71 -20.5t-54 -51.5l-45 24q29 51 70.5 78.5t98.5 27.5q42 0 81 -17l151 -72q21 -12 53 -12h50v-57l-42 -3q-12 0 -22 1t-22 4l-84 -118q-29 -42 -68.5 -60.5t-85.5 -18.5
h-247zM268 -216h60v-62h-60v62zM208 -116h60v-62h-60v62zM328 -116h60v-62h-60v62z" />
    <glyph glyph-name="uniFE1B" unicode="&#xfe1b;" horiz-adv-x="574" 
d="M595 60q31 0 31 -30t-31 -30h-141q-51 0 -83 27.5t-46 72.5q-48 -34 -87 -63q-16 -12 -31.5 -23.5t-27.5 -20t-20 -14l-8 -5.5q-50 -41 -53 -100q0 -27 10.5 -50.5t28.5 -41.5t42 -28t51 -10h249v-53l-252 -7q-39 0 -73 14.5t-59.5 40t-40 59.5t-14.5 73q0 45 18.5 82
t48.5 62l278 206l-112 58q-25 13 -58 13q-39 0 -72 -18t-52 -53l-41 24q12 26 30 45.5t40 33.5t47.5 21t51.5 7q42 0 81 -18l126 -68q13 -6 31 -10t33 -4h50v-55q-7 -1 -13.5 -1t-12.5 -1q-11 -1 -20 -1.5t-13 -0.5q-22 0 -37 4l-74 -63q3 -32 27 -53t57 -21h141z" />
    <glyph glyph-name="uniFE1C" unicode="&#xfe1c;" horiz-adv-x="645" 
d="M0 60h257q31 0 57.5 14.5t47.5 41.5l78 100l-140 67q-27 12 -55 12q-21 0 -36.5 -4.5t-29 -13.5t-27 -22.5t-29.5 -31.5l-49 24q30 51 71.5 79t98.5 28q40 0 80 -18l151 -72q13 -5 27 -8.5t28 -3.5h48v-57l-39 -3q-15 0 -26.5 1.5t-20.5 3.5l-38 -55q0 -35 24.5 -57.5
t59.5 -24.5h107q31 0 31 -29q0 -31 -31 -31h-107q-50 0 -78.5 26.5t-42.5 60.5q-27 -38 -72.5 -61.5t-90.5 -25.5h-254q-31 0 -31 30t31 30z" />
    <glyph glyph-name="uniFE1D" unicode="&#xfe1d;" horiz-adv-x="611" 
d="M0 0q-14 0 -23 8t-9 22t9 22t23 8h246q31 0 59 15.5t48 41.5l78 99l-141 67q-24 12 -53 12q-40 0 -71 -20.5t-54 -51.5l-45 24q29 51 70.5 78.5t98.5 27.5q42 0 81 -17l151 -72q21 -12 53 -12h50v-57l-42 -3q-12 0 -22 1t-22 4l-84 -118q-29 -42 -68.5 -60.5t-85.5 -18.5
h-247z" />
    <glyph glyph-name="uniFE1E" unicode="&#xfe1e;" horiz-adv-x="595" 
d="M595 60q31 0 31 -30t-31 -30h-141q-51 0 -83 27.5t-46 72.5q-48 -34 -87 -63q-16 -12 -31.5 -23.5t-27.5 -20t-20 -14l-8 -5.5q-50 -41 -53 -100q0 -27 10.5 -50.5t28.5 -41.5t42 -28t51 -10h249v-53l-252 -7q-39 0 -73 14.5t-59.5 40t-40 59.5t-14.5 73q0 45 18.5 82
t48.5 62l278 206l-112 58q-25 13 -58 13q-39 0 -72 -18t-52 -53l-41 24q12 26 30 45.5t40 33.5t47.5 21t51.5 7q42 0 81 -18l126 -68q13 -6 31 -10t33 -4h50v-55q-7 -1 -13.5 -1t-12.5 -1q-11 -1 -20 -1.5t-13 -0.5q-22 0 -37 4l-74 -63q3 -32 27 -53t57 -21h141zM251 444
h-60v62h60v-62z" />
    <glyph glyph-name="uniFE1F" unicode="&#xfe1f;" horiz-adv-x="645" 
d="M0 60h257q31 0 57.5 14.5t47.5 41.5l78 100l-140 67q-27 12 -55 12q-21 0 -36.5 -4.5t-29 -13.5t-27 -22.5t-29.5 -31.5l-49 24q30 51 71.5 79t98.5 28q40 0 80 -18l151 -72q13 -5 27 -8.5t28 -3.5h48v-57l-39 -3q-15 0 -26.5 1.5t-20.5 3.5l-38 -55q0 -35 24.5 -57.5
t59.5 -24.5h107q31 0 31 -29q0 -31 -31 -31h-107q-50 0 -78.5 26.5t-42.5 60.5q-27 -38 -72.5 -61.5t-90.5 -25.5h-254q-31 0 -31 30t31 30zM271 506h-60v-62h60v62z" />
    <glyph glyph-name="uniFE20" unicode="&#xfe20;" horiz-adv-x="611" 
d="M0 0q-14 0 -23 8t-9 22t9 22t23 8h246q31 0 59 15.5t48 41.5l78 99l-141 67q-24 12 -53 12q-40 0 -71 -20.5t-54 -51.5l-45 24q29 51 70.5 78.5t98.5 27.5q42 0 81 -17l151 -72q21 -12 53 -12h50v-57l-42 -3q-12 0 -22 1t-22 4l-84 -118q-29 -42 -68.5 -60.5t-85.5 -18.5
h-247zM271 444h-60v62h60v-62z" />
    <glyph glyph-name="uniFE21" unicode="&#xfe21;" horiz-adv-x="501" 
d="M501 0h-21q-35 0 -57.5 14.5t-42.5 43.5l-27 35q-14 -42 -50 -67.5t-84 -25.5h-169v60h169q17 0 32 6.5t26.5 17.5t18.5 26t7 31q0 13 -3.5 25t-8.5 21l-106 156l48 34l185 -271q14 -21 24 -33.5t29 -12.5h30q31 0 31 -29q0 -31 -31 -31z" />
    <glyph glyph-name="uniFE22" unicode="&#xfe22;" horiz-adv-x="500" 
d="M155 550h63v-65h-63v65zM501 0h-21q-35 0 -57.5 14.5t-42.5 43.5l-27 35q-14 -42 -50 -67.5t-84 -25.5h-169v60h169q17 0 32 6.5t26.5 17.5t18.5 26t7 31q0 13 -3.5 25t-8.5 21l-106 156l48 34l185 -271q14 -21 24 -33.5t29 -12.5h30q31 0 31 -29q0 -31 -31 -31z" />
    <glyph glyph-name="uniFE23" unicode="&#xfe23;" horiz-adv-x="290" 
d="M290 0q-26 0 -48 6t-43 23v-48q-3 -53 -19.5 -90t-44.5 -63t-66 -43t-85 -31l-14 49q33 13 63.5 27t54 34t37.5 48t14 69v316h60v-155q0 -19 7.5 -34t20.5 -25.5t29 -16.5t34 -6q31 0 31 -29q0 -31 -31 -31z" />
    <glyph glyph-name="uniFE24" unicode="&#xfe24;" horiz-adv-x="290" 
d="M321 31q0 -19 -10.5 -25t-27.5 -6q-46 0 -84 29v-48q-3 -53 -19.5 -90t-44.5 -63t-66 -43t-85 -31l-14 49q33 13 63.5 27t54 34t37.5 48t14 69v316h60v-155q0 -16 7 -31t18.5 -26.5t27 -18t31.5 -6.5q15 0 26.5 -5.5t11.5 -23.5zM199 444h-60v62h60v-62z" />
    <glyph glyph-name="uniFE25" unicode="&#xfe25;" horiz-adv-x="290" 
d="M321 31q0 -19 -10.5 -25t-27.5 -6q-46 0 -84 29v-48q-3 -53 -19.5 -90t-44.5 -63t-66 -43t-85 -31l-14 49q33 13 63.5 27t54 34t37.5 48t14 69v316h60v-155q0 -16 7 -31t18.5 -26.5t27 -18t31.5 -6.5q15 0 26.5 -5.5t11.5 -23.5zM197 489h-60v62h60v-62zM257 389h-60v62
h60v-62zM137 389h-60v62h60v-62z" />
    <glyph glyph-name="uniFE26" unicode="&#xfe26;" horiz-adv-x="1121" 
d="M969 55q-20 -25 -50 -40t-65 -15q-36 0 -65.5 16.5t-47.5 43.5q-20 -27 -50.5 -43.5t-66.5 -16.5q-26 0 -48 8.5t-39 22.5q-6 -44 -27 -81.5t-52.5 -65.5t-72 -43.5t-85.5 -15.5q-51 0 -94.5 19t-76 51.5t-51 76.5t-18.5 93v134h57v-134q0 -38 14.5 -71.5t39 -58t58 -39
t71.5 -14.5q37 0 69.5 14.5t57 39t39 58t14.5 71.5v197h60v-118q0 -36 24 -61t60 -25t61 25t25 61v118h58v-118q0 -36 25 -61t61 -25t61 25t25 61v139h58v-137q0 -36 25 -61t62 -25h36q31 0 31 -29q0 -31 -31 -31h-36q-37 0 -67 15.5t-49 39.5z" />
    <glyph glyph-name="uniFE27" unicode="&#xfe27;" horiz-adv-x="765" 
d="M765 0h-26q-36 0 -66.5 15.5t-50.5 41.5q-21 -26 -52.5 -41.5t-66.5 -15.5q-37 0 -67.5 15.5t-51.5 41.5q-21 -26 -51 -41.5t-68 -15.5q-35 0 -66 15.5t-52 41.5q-21 -26 -51 -41.5t-67 -15.5h-30q-31 0 -31 31q0 29 31 29h30q37 0 62.5 25.5t25.5 62.5v122h62v-122
q0 -37 24.5 -62.5t61.5 -25.5q19 0 35.5 7t28.5 19t19 28t7 34v122h59v-122q0 -37 26 -62.5t63 -25.5t63 25.5t26 62.5v144h60v-146q0 -36 25.5 -61t61.5 -25h26q31 0 31 -29q0 -31 -31 -31z" />
    <glyph glyph-name="uniFE28" unicode="&#xfe28;" horiz-adv-x="718" 
d="M0 0q-31 0 -31 31q0 29 31 29h77q36 0 61 24t25 60v120h60v-132q0 -38 26 -55t60 -17q35 0 59 24.5t26 59.5v120h57l1 -127q0 -34 20 -55.5t56 -21.5h70v228h60v-288h-122q-38 0 -66 15t-48 43q-20 -28 -48.5 -43t-66.5 -15q-34 0 -64.5 15t-50.5 43q-20 -28 -49.5 -43
t-65.5 -15h-77z" />
    <glyph glyph-name="uniFE29" unicode="&#xfe29;" horiz-adv-x="1120" 
d="M969 55q-20 -25 -50 -40t-65 -15q-36 0 -65.5 16.5t-47.5 43.5q-20 -27 -50.5 -43.5t-66.5 -16.5q-26 0 -48 8.5t-39 22.5q-6 -44 -27 -81.5t-52.5 -65.5t-72 -43.5t-85.5 -15.5q-51 0 -94.5 19t-76 51.5t-51 76.5t-18.5 93v134h57v-134q0 -38 14.5 -71.5t39 -58t58 -39
t71.5 -14.5q37 0 69.5 14.5t57 39t39 58t14.5 71.5v197h60v-118q0 -36 24 -61t60 -25t61 25t25 61v118h58v-118q0 -36 25 -61t61 -25t61 25t25 61v139h58v-137q0 -36 25 -61t62 -25h36q31 0 31 -29q0 -31 -31 -31h-36q-37 0 -67 15.5t-49 39.5zM773 551h-60v-62h60v62z
M833 451h-60v-62h60v62zM713 451h-60v-62h60v62z" />
    <glyph glyph-name="uniFE2A" unicode="&#xfe2a;" horiz-adv-x="766" 
d="M766 0h-26q-37 0 -67 15.5t-50 41.5q-22 -26 -53 -41.5t-66 -15.5q-37 0 -67.5 15.5t-51.5 41.5q-21 -26 -51 -41.5t-68 -15.5q-35 0 -66 15.5t-52 41.5q-21 -26 -51 -41.5t-67 -15.5h-30q-31 0 -31 31q0 29 31 29h30q37 0 62.5 25.5t25.5 62.5v122h62v-122
q0 -37 24.5 -62.5t61.5 -25.5q19 0 35.5 7t28.5 19t19 28t7 34v122h59v-122q0 -37 26 -62.5t63 -25.5t63 25.5t26 62.5v143h60v-145q0 -36 25 -61t62 -25h26q31 0 31 -29q0 -31 -31 -31zM420 551h-60v-62h60v62zM480 451h-60v-62h60v62zM360 451h-60v-62h60v62z" />
    <glyph glyph-name="uniFE2B" unicode="&#xfe2b;" horiz-adv-x="718" 
d="M0 0q-31 0 -31 31q0 29 31 29h77q36 0 61 24t25 60v120h60v-132q0 -38 26 -55t60 -17q35 0 59 24.5t26 59.5v120h57l1 -127q0 -34 20 -55.5t56 -21.5h70v228h60v-288h-122q-38 0 -66 15t-48 43q-20 -28 -48.5 -43t-66.5 -15q-34 0 -64.5 15t-50.5 43q-20 -28 -49.5 -43
t-65.5 -15h-77zM460 489h-60v62h60v-62zM520 389h-60v62h60v-62zM400 389h-60v62h60v-62z" />
    <glyph glyph-name="uniFE2C" unicode="&#xfe2c;" horiz-adv-x="1119" 
d="M60 226h58v-135q0 -38 14 -71t39 -57q24 -24 57 -38t70 -14q38 0 71 14t58 38q24 24 39 57q14 33 14 71v197h58v-70l208 96q37 19 81 19q43 0 77 -15q34 -16 57.5 -40.5t36.5 -55.5q12 -32 12 -64v-16q-1 -35 23 -58q24 -24 60 -24h26q31 0 31 -29q0 -31 -31 -31h-26
q-46 0 -72 18t-43 44q-23 -27 -56 -44q-33 -18 -70 -18h-230q-26 0 -49 9q-24 9 -40 31q-7 -40 -28 -75q-22 -34 -53 -60q-32 -25 -71 -40q-40 -14 -83 -14q-49 0 -92 19q-44 19 -76 51q-33 33 -51 77q-19 44 -19 93v135zM538 144q0 -36 25 -60q24 -24 59 -24h230
q42 0 70 28t28 70q0 26 -10 47q-11 21 -28 36q-18 15 -40 23q-23 8 -47 8q-28 0 -55 -12l-232 -102v-14z" />
    <glyph glyph-name="uniFE2D" unicode="&#xfe2d;" horiz-adv-x="748" 
d="M0 60h26q35 0 59 23t24 58v147h58v-70l208 96q37 19 81 19q43 0 77 -15t57.5 -40t36 -56t12.5 -63v-18q0 -35 24 -58t59 -23h26q30 0 30 -30t-30 -30h-26q-35 0 -66 17.5t-51 42.5q-20 -31 -54.5 -45.5t-69.5 -14.5h-230q-32 0 -62.5 14t-49.5 41q-20 -25 -49 -40
t-64 -15h-26q-30 0 -30 30t30 30zM251 60h230q42 0 70 28t28 70q0 26 -10.5 47.5t-28 36.5t-40 23.5t-46.5 8.5q-28 0 -55 -12l-232 -104v-14q0 -36 24.5 -60t59.5 -24z" />
    <glyph glyph-name="uniFE2E" unicode="&#xfe2e;" horiz-adv-x="679" 
d="M0 60h26q35 0 59 23t24 58v147h58v-70l208 96q37 19 81 19q43 0 77 -15.5t57.5 -40t36 -56t12.5 -63.5t-12.5 -61t-34 -50.5t-50.5 -34t-61 -12.5h-230q-32 0 -62.5 14t-49.5 41q-20 -25 -49 -40t-64 -15h-26q-14 0 -22 9t-8 23q0 28 30 28zM251 60h230q42 0 70 28t28 70
q0 26 -10.5 47.5t-28 36.5t-40 23.5t-46.5 8.5q-28 0 -55 -12l-232 -104v-14q0 -36 24.5 -60t59.5 -24z" />
    <glyph glyph-name="uniFE30" unicode="&#xfe30;" horiz-adv-x="1119" 
d="M60 226h58v-135q0 -38 14 -71t39 -57q24 -24 57 -38t70 -14q38 0 71 14t58 38q24 24 39 57q14 33 14 71v197h58v-70l208 96q37 19 81 19q43 0 77 -15q34 -16 57.5 -40.5t36.5 -55.5q12 -32 12 -64v-16q-1 -35 23 -58q24 -24 60 -24h26q31 0 31 -29q0 -31 -31 -31h-26
q-46 0 -72 18t-43 44q-23 -27 -56 -44q-33 -18 -70 -18h-230q-26 0 -49 9q-24 9 -40 31q-7 -40 -28 -75q-22 -34 -53 -60q-32 -25 -71 -40q-40 -14 -83 -14q-49 0 -92 19q-44 19 -76 51q-33 33 -51 77q-19 44 -19 93v135zM538 144q0 -36 25 -60q24 -24 59 -24h230
q42 0 70 28t28 70q0 26 -10 47q-11 21 -28 36q-18 15 -40 23q-23 8 -47 8q-28 0 -55 -12l-232 -102v-14zM811 444v62h60v-62h-60z" />
    <glyph glyph-name="uniFE31" unicode="&#xfe31;" horiz-adv-x="748" 
d="M0 60h26q35 0 59 23t24 58v147h58v-70l208 96q37 19 81 19q43 0 77 -15t57.5 -40t36 -56t12.5 -63v-18q0 -35 24 -58t59 -23h26q30 0 30 -30t-30 -30h-26q-35 0 -66 17.5t-51 42.5q-20 -31 -54.5 -45.5t-69.5 -14.5h-230q-32 0 -62.5 14t-49.5 41q-20 -25 -49 -40
t-64 -15h-26q-30 0 -30 30t30 30zM167 144q0 -36 24.5 -60t59.5 -24h230q42 0 70 28t28 70q0 26 -10.5 47.5t-28 36.5t-40 23.5t-46.5 8.5q-28 0 -55 -12l-232 -104v-14zM431 444v62h60v-62h-60z" />
    <glyph glyph-name="uniFE32" unicode="&#xfe32;" horiz-adv-x="679" 
d="M-30 32q0 28 30 28h26q35 0 59 23t24 58v147h58v-70l208 96q37 19 81 19q43 0 77 -15.5t57.5 -40t36 -56t12.5 -63.5t-12.5 -61t-34 -50.5t-50.5 -34t-61 -12.5h-230q-32 0 -62.5 14t-49.5 41q-20 -25 -49 -40t-64 -15h-26q-14 0 -22 9t-8 23zM251 60h230q42 0 70 28
t28 70q0 26 -10.5 47.5t-28 36.5t-40 23.5t-46.5 8.5q-28 0 -55 -12l-232 -104v-14q0 -36 24.5 -60t59.5 -24zM421 444v62h60v-62h-60z" />
    <glyph glyph-name="uniFE33" unicode="&#xfe33;" horiz-adv-x="619" 
d="M619 60q31 0 31 -29q0 -31 -31 -31h-22q-38 0 -69 18.5t-51 49.5q-24 -31 -58 -49.5t-76 -18.5h-291v60h291q23 0 43.5 9t35.5 24.5t24 36t9 43.5q0 48 -34 79t-85 31q-46 0 -80 -28l-180 -147l-36 48l58 46q13 13 21 29t8 36v283h57v-276l34 26q26 22 57 32t62 10
q47 0 80 -15.5t54.5 -40t31.5 -55t10 -60.5v-27q0 -16 6.5 -31.5t18 -27t27 -18.5t32.5 -7h22z" />
    <glyph glyph-name="uniFE34" unicode="&#xfe34;" horiz-adv-x="613" 
d="M0 60h348q23 0 43.5 9t35.5 24.5t24 36t9 43.5q0 48 -34 79t-85 31q-46 0 -80 -28l-180 -147l-36 48l58 46q13 13 21 29t8 36v284h57v-277l34 26q26 22 57 32t62 10q47 0 80 -15.5t54.5 -40t31.5 -55t10 -60.5v-27q0 -16 6.5 -31.5t18 -27t27 -18.5t32.5 -7h11
q31 0 31 -29q0 -31 -31 -31h-11q-38 0 -69 18.5t-51 49.5q-24 -31 -58 -49.5t-76 -18.5h-348q-31 0 -31 31q0 29 31 29z" />
    <glyph glyph-name="uniFE35" unicode="&#xfe35;" horiz-adv-x="553" 
d="M343 60q23 0 43.5 9t35.5 24.5t24 36t9 43.5q0 48 -34 79t-85 31q-46 0 -80 -28l-180 -147l-36 48l58 46q13 13 21 29t8 36v283h57v-276l34 26q26 22 57 32t62 10q47 0 80 -15.5t54.5 -40t31.5 -55t10 -60.5q0 -34 -13.5 -65.5t-36.5 -54.5t-54 -37t-66 -14h-343
q-31 0 -31 31q0 29 31 29h343z" />
    <glyph glyph-name="uniFE36" unicode="&#xfe36;" horiz-adv-x="610" 
d="M610 60q31 0 31 -29q0 -31 -31 -31h-13q-38 0 -69 18.5t-51 49.5q-24 -31 -58 -49.5t-76 -18.5h-291v60h291q23 0 43.5 9t35.5 24.5t24 36t9 43.5q0 48 -34 79t-85 31q-46 0 -80 -28l-180 -147l-36 48l58 46q13 13 21 29t8 36v257h57v-250l34 26q26 22 57 32t62 10
q47 0 80 -15.5t54.5 -40t31.5 -55t10 -60.5v-27q0 -16 6.5 -31.5t18 -27t27 -18.5t32.5 -7h13zM371 444h-60v62h60v-62z" />
    <glyph glyph-name="uniFE37" unicode="&#xfe37;" horiz-adv-x="629" 
d="M0 60h348q23 0 43.5 9t35.5 24.5t24 36t9 43.5q0 48 -34 79t-85 31q-46 0 -80 -28l-180 -147l-36 48l58 46q13 13 21 29t8 36v257h57v-250l34 26q26 22 57 32t62 10q47 0 80 -15.5t54.5 -40t31.5 -55t10 -60.5v-27q0 -16 6.5 -31.5t18 -27t27 -18.5t32.5 -7h26
q31 0 31 -29q0 -31 -31 -31h-26q-38 0 -69 18.5t-51 49.5q-24 -31 -58 -49.5t-76 -18.5h-348q-31 0 -31 31q0 29 31 29zM371 506h-60v-62h60v62z" />
    <glyph glyph-name="uniFE38" unicode="&#xfe38;" horiz-adv-x="553" 
d="M343 60q23 0 43.5 9t35.5 24.5t24 36t9 43.5q0 48 -34 79t-85 31q-46 0 -80 -28l-180 -147l-36 48l58 46q13 13 21 29t8 36v257h57v-250l34 26q26 22 57 32t62 10q47 0 80 -15.5t54.5 -40t31.5 -55t10 -60.5q0 -34 -13.5 -65.5t-36.5 -54.5t-54 -37t-66 -14h-343
q-31 0 -31 31q0 29 31 29h343zM361 506h-60v-62h60v62z" />
    <glyph glyph-name="uniFE39" unicode="&#xfe39;" horiz-adv-x="500" 
d="M501 60q31 0 31 -29q0 -31 -31 -31h-240q-33 0 -63 -13t-52 -35t-35 -52t-13 -64q0 -33 13 -62.5t35 -52t52 -35.5t63 -13h151v-50l-151 -7q-46 0 -86.5 17t-70.5 47t-47 70t-17 86q0 60 28.5 109t74.5 79q-38 22 -61 62.5t-23 85.5q0 36 13.5 66.5t36.5 53t54 35.5
t67 13h160v-155h-52l-8 98h-98q-31 0 -53 -11.5t-35 -28.5t-19 -36.5t-6 -34.5q0 -23 8.5 -43.5t23.5 -35.5t35 -24t44 -9h271z" />
    <glyph glyph-name="uniFE3A" unicode="&#xfe3a;" horiz-adv-x="489" 
d="M0 0q-31 0 -31 31q0 29 31 29h127q-20 21 -30.5 50.5t-10.5 62.5q0 42 16 73.5t41 52.5t55 31.5t58 10.5h160v-156h-56l-4 98h-97q-24 0 -44.5 -8.5t-36.5 -23t-25 -34.5t-9 -44t8.5 -44.5t23.5 -35.5t35.5 -24t44.5 -9h233q31 0 31 -29q0 -31 -31 -31h-489z" />
    <glyph glyph-name="uniFE3B" unicode="&#xfe3b;" horiz-adv-x="425" 
d="M0 0q-31 0 -31 31q0 29 31 29h127q-20 21 -30.5 50.5t-10.5 62.5q0 42 16 73.5t41 52.5t55 31.5t58 10.5h89v-58h-86q-24 0 -44.5 -8.5t-36.5 -23t-25 -34.5t-9 -44t8.5 -44.5t23.5 -35.5t35.5 -24t44.5 -9h129v-60h-385z" />
    <glyph glyph-name="uniFE3C" unicode="&#xfe3c;" horiz-adv-x="501" 
d="M501 60q31 0 31 -29q0 -31 -31 -31h-240q-33 0 -63 -13t-52 -35t-35 -52t-13 -64q0 -33 13 -62.5t35 -52t52 -35.5t63 -13h151v-50l-151 -7q-46 0 -86.5 17t-70.5 47t-47 70t-17 86q0 60 28.5 109t74.5 79q-38 22 -61 62.5t-23 85.5q0 36 13.5 66.5t36.5 53t54 35.5
t67 13h160v-155h-52l-8 98h-98q-31 0 -53 -11.5t-35 -28.5t-19 -36.5t-6 -34.5q0 -23 8.5 -43.5t23.5 -35.5t35 -24t44 -9h271zM291 444h-60v62h60v-62z" />
    <glyph glyph-name="uniFE3D" unicode="&#xfe3d;" horiz-adv-x="489" 
d="M301 444h-60v62h60v-62zM0 0q-31 0 -31 31q0 29 31 29h127q-20 21 -30.5 50.5t-10.5 62.5q0 42 16 73.5t41 52.5t55 31.5t58 10.5h160v-156h-56l-4 98h-97q-24 0 -44.5 -8.5t-36.5 -23t-25 -34.5t-9 -44t8.5 -44.5t23.5 -35.5t35.5 -24t44.5 -9h233q31 0 31 -29
q0 -31 -31 -31h-489z" />
    <glyph glyph-name="uniFE3E" unicode="&#xfe3e;" horiz-adv-x="443" 
d="M0 0q-31 0 -31 31q0 29 31 29h127q-20 21 -30.5 50.5t-10.5 62.5q0 42 16 73.5t41 52.5t55 31.5t58 10.5h80v-58h-77q-24 0 -44.5 -8.5t-36.5 -23t-25 -34.5t-9 -44t8.5 -44.5t23.5 -35.5t35.5 -24t44.5 -9h149v-60h-405zM301 444h-60v62h60v-62z" />
    <glyph glyph-name="uniFE3F" unicode="&#xfe3f;" horiz-adv-x="851" 
d="M653 444h-60v62h60v-62zM630 260q-48 0 -73.5 -26t-25.5 -74t25.5 -74t73.5 -26t73.5 26t25.5 74t-25.5 74t-73.5 26zM506 60q-36 44 -36 100q0 33 12.5 62t34 51t51 34.5t62.5 12.5q34 0 63 -12.5t50.5 -34.5t34 -51t12.5 -62q0 -57 -34 -100h95q31 0 31 -28
q0 -14 -8.5 -23t-22.5 -9h-604q-38 0 -72 15t-59.5 40.5t-40.5 59.5t-15 72v104h60v-104q0 -26 10 -49t27.5 -40.5t40.5 -27.5t49 -10h259z" />
    <glyph glyph-name="uniFE40" unicode="&#xfe40;" horiz-adv-x="470" 
d="M269 444h-60v62h60v-62zM469 59q31 0 31 -28q0 -14 -8.5 -23t-22.5 -9h-468q-14 0 -22 9t-8 23q0 28 30 28h116q-36 44 -36 100q0 33 12.5 62t34 51t51 34.5t62.5 12.5q34 0 63 -12.5t50.5 -34.5t34 -51t12.5 -62q0 -57 -34 -100h102zM241 259q-48 0 -73.5 -26t-25.5 -74
t25.5 -74t73.5 -26t73.5 26t25.5 74t-25.5 74t-73.5 26z" />
    <glyph glyph-name="uniFE41" unicode="&#xfe41;" horiz-adv-x="391" 
d="M207 431q30 0 56 -11.5t45.5 -31t31 -45.5t11.5 -56v-128q0 -34 -12.5 -63t-34.5 -50.5t-51 -33.5t-61 -12h-192q-31 0 -31 31q0 29 31 29h192q38 0 66.5 24t33.5 61h-85q-30 0 -55.5 11t-45 30.5t-30.5 45t-11 55.5t11 56t30.5 45.5t45 31t55.5 11.5zM291 287
q0 36 -24 60t-60 24q-35 0 -59.5 -24t-24.5 -60q0 -35 24.5 -59.5t59.5 -24.5h84v84zM240 547h-60v62h60v-62z" />
    <glyph glyph-name="uniFE42" unicode="&#xfe42;" horiz-adv-x="851" 
d="M633 519h-60v62h60v-62zM693 419h-60v62h60v-62zM573 419h-60v62h60v-62zM630 260q-48 0 -73.5 -26t-25.5 -74t25.5 -74t73.5 -26t73.5 26t25.5 74t-25.5 74t-73.5 26zM506 60q-36 44 -36 100q0 33 12.5 62t34 51t51 34.5t62.5 12.5q34 0 63 -12.5t50.5 -34.5t34 -51
t12.5 -62q0 -57 -34 -100h95q31 0 31 -28q0 -14 -8.5 -23t-22.5 -9h-604q-38 0 -72 15t-59.5 40.5t-40.5 59.5t-15 72v104h60v-104q0 -26 10 -49t27.5 -40.5t40.5 -27.5t49 -10h259z" />
    <glyph glyph-name="uniFE43" unicode="&#xfe43;" horiz-adv-x="502" 
d="M281 519h-60v62h60v-62zM341 419h-60v62h60v-62zM221 419h-60v62h60v-62zM501 59q31 0 31 -28q0 -14 -8.5 -23t-22.5 -9h-499q-14 0 -22 9t-8 23q0 28 30 28h135q-36 44 -36 100q0 33 12.5 62t34 51t51 34.5t62.5 12.5q34 0 63 -12.5t50.5 -34.5t34 -51t12.5 -62
q0 -57 -34 -100h114zM261 259q-48 0 -73.5 -26t-25.5 -74t25.5 -74t73.5 -26t73.5 26t25.5 74t-25.5 74t-73.5 26z" />
    <glyph glyph-name="uniFE44" unicode="&#xfe44;" horiz-adv-x="391" 
d="M207 431q30 0 56 -11.5t45.5 -31t31 -45.5t11.5 -56v-128q0 -34 -12.5 -63t-34.5 -50.5t-51 -33.5t-61 -12h-192q-31 0 -31 31q0 29 31 29h192q38 0 66.5 24t33.5 61h-85q-30 0 -55.5 11t-45 30.5t-30.5 45t-11 55.5t11 56t30.5 45.5t45 31t55.5 11.5zM291 287
q0 36 -24 60t-60 24q-35 0 -59.5 -24t-24.5 -60q0 -35 24.5 -59.5t59.5 -24.5h84v84zM239 650h-60v62h60v-62zM299 550h-60v62h60v-62zM179 550h-60v62h60v-62z" />
    <glyph glyph-name="uniFE45" unicode="&#xfe45;" horiz-adv-x="667" 
d="M563 60v99q0 20 -8 38.5t-21.5 32.5t-32 22t-39.5 8q-20 0 -38.5 -8t-32 -22t-21.5 -32t-8 -39t8 -39t21.5 -31.5t32 -21t38.5 -7.5h101zM667 60q31 0 31 -29q0 -31 -31 -31h-47q0 -59 -22 -110t-60 -89.5t-88.5 -60.5t-108.5 -22t-109 22t-89.5 60t-60.5 89t-22 110v163
h58v-163q0 -46 17.5 -86.5t48 -71t71 -48t86.5 -17.5q47 0 87 18t70 48.5t47 71t17 86.5h-101q-33 0 -62 13t-50.5 35t-33.5 51t-12 60q0 32 12 61t33.5 51.5t50.5 36t62 13.5q34 0 63 -13t50.5 -35.5t33.5 -52t12 -61.5v-99h47zM545 389h-60v62h60v-62zM425 389h-60v62h60
v-62z" />
    <glyph glyph-name="uniFE46" unicode="&#xfe46;" horiz-adv-x="470" 
d="M336 389h-60v62h60v-62zM216 389h-60v62h60v-62zM469 59q31 0 31 -28q0 -14 -8.5 -23t-22.5 -9h-468q-14 0 -22 9t-8 23q0 28 30 28h116q-36 44 -36 100q0 33 12.5 62t34 51t51 34.5t62.5 12.5q34 0 63 -12.5t50.5 -34.5t34 -51t12.5 -62q0 -57 -34 -100h102zM241 259
q-48 0 -73.5 -26t-25.5 -74t25.5 -74t73.5 -26t73.5 26t25.5 74t-25.5 74t-73.5 26z" />
    <glyph glyph-name="uniFE47" unicode="&#xfe47;" horiz-adv-x="391" 
d="M296 519h-60v62h60v-62zM176 519h-60v62h60v-62zM207 431q30 0 56 -11.5t45.5 -31t31 -45.5t11.5 -56v-128q0 -34 -12.5 -63t-34.5 -50.5t-51 -33.5t-61 -12h-192q-31 0 -31 31q0 29 31 29h192q38 0 66.5 24t33.5 61h-85q-30 0 -55.5 11t-45 30.5t-30.5 45t-11 55.5
t11 56t30.5 45.5t45 31t55.5 11.5zM291 287q0 36 -24 60t-60 24q-35 0 -59.5 -24t-24.5 -60q0 -35 24.5 -59.5t59.5 -24.5h84v84z" />
    <glyph glyph-name="uniFE48" unicode="&#xfe48;" horiz-adv-x="845" 
d="M445 308q-42 -21 -62 -21q-32 0 -32 33q0 12 12 28q11 12 27 12h11q4 -1 7.5 -1t5.5 -1l5 17l-16 4t-16 3q-21 0 -41 -20q-17 -20 -17 -42q0 -34 37 -53l-42 -22l11 -20l119 64zM845 60q31 0 31 -29q0 -31 -31 -31h-17q-39 0 -71.5 20t-50.5 52q-27 -32 -65.5 -52
t-83.5 -20h-309q-39 0 -73 15t-59.5 40.5t-40.5 59.5t-15 72v101h58v-101q0 -26 10 -49t27.5 -40.5t41.5 -27.5t51 -10h309q27 0 50.5 10t41.5 27.5t28 40.5t10 49v365h57v-410q0 -17 7 -32t18.5 -26t27 -17.5t31.5 -6.5h17z" />
    <glyph glyph-name="uniFE4A" unicode="&#xfe4a;" horiz-adv-x="453" 
d="M212 60q9 0 23 4.5t27.5 15t23.5 26.5t10 38q0 23 -5.5 38.5t-15 27t-22 20t-26.5 17.5l-198 126v57l163 161l41 -41l-141 -148l164 -102q48 -29 72.5 -63t24.5 -93q2 -36 25.5 -60t58.5 -24h16q31 0 31 -29q0 -31 -31 -31h-16q-35 0 -64 14.5t-50 40.5q-2 -3 -5.5 -6
t-5.5 -6q-20 -20 -45 -31.5t-55 -11.5h-212q-31 0 -31 31q0 29 31 29h212z" />
    <glyph glyph-name="uniFE4B" unicode="&#xfe4b;" horiz-adv-x="372" 
d="M0 0q-31 0 -31 31q0 29 31 29h201q34 0 59 24t25 60q0 22 -5.5 37.5t-15 27t-22 20.5t-26.5 18l-190 124v57l164 163l41 -41l-142 -150l156 -100q24 -15 42 -30t30 -33t18.5 -40.5t6.5 -52.5t-11 -56t-30 -45.5t-44.5 -31t-55.5 -11.5h-201z" />
    <glyph glyph-name="uniFE4C" unicode="&#xfe4c;" horiz-adv-x="792" 
d="M375 473l164 161l35 -36l-164 -163zM792 60q31 0 31 -29q0 -31 -31 -31h-16q-35 0 -64 14.5t-50 40.5q-20 -26 -49.5 -40.5t-61.5 -14.5h-304q-39 0 -73 14.5t-59.5 40t-40 59.5t-14.5 73v101h60v-101q0 -26 10 -49t27.5 -40.5t40.5 -27.5t49 -10h304q9 0 23 4.5t27.5 15
t23.5 26.5t10 38t-5.5 37.5t-15 27t-22 20.5t-26.5 18l-146 96v57l190 190l41 -41l-168 -177l112 -72q24 -15 42 -30t30 -33t18.5 -40.5t6.5 -52.5q2 -36 25.5 -60t58.5 -24h16z" />
    <glyph glyph-name="uniFE4D" unicode="&#xfe4d;" horiz-adv-x="443" 
d="M27 473l35 -38l165 164l-35 36zM0 0q-31 0 -31 31q0 29 31 29h202q9 0 23 4.5t27.5 15t23.5 26.5t10 38t-5.5 37.5t-15 27t-22 20.5t-26.5 18l-145 96v57l191 191l41 -41l-169 -178l111 -72q24 -15 42 -30t30 -33t18.5 -40.5t6.5 -52.5q2 -36 25.5 -60t58.5 -24h16
q31 0 31 -29q0 -31 -31 -31h-16q-35 0 -64 14.5t-50 40.5q-20 -26 -49.5 -40.5t-61.5 -14.5h-202z" />
    <glyph glyph-name="uniFE4E" unicode="&#xfe4e;" horiz-adv-x="379" 
d="M32 473l35 -38l165 165l-35 36zM0 0q-31 0 -31 31q0 29 31 29h208q9 0 23 4.5t27.5 15t23.5 26.5t10 38t-5.5 37.5t-15 27t-22 20.5t-26.5 18l-146 96v57l191 192l41 -41l-169 -179l112 -72q24 -15 42 -30t30 -33t18.5 -40.5t6.5 -52.5q1 -8 -4 -31.5t-20.5 -48.5
t-43.5 -44.5t-73 -19.5h-208z" />
    <glyph glyph-name="uniFE4F" unicode="&#xfe4f;" horiz-adv-x="640" 
d="M640 60q31 0 31 -29q0 -31 -31 -31h-16q-27 0 -51 10t-42 26q-11 -38 -33 -69.5t-52.5 -54.5t-67.5 -36t-78 -13q-50 0 -94 19t-76.5 51.5t-51 76t-18.5 93.5v135h60v-135q0 -37 14 -70t38.5 -57.5t57.5 -38.5t70 -14q38 0 70.5 14t57 38.5t38.5 57.5t14 70v447h60v-408
q0 -17 7 -32t18.5 -26t27 -17.5t31.5 -6.5h16z" />
    <glyph glyph-name="uniFE50" unicode="&#xfe50;" horiz-adv-x="450" 
d="M390 523v-336q0 -39 -14.5 -73t-40 -59.5t-59.5 -40t-73 -14.5h-125v60h125q26 0 49.5 10t40.5 27t27 40t10 50v336h60zM138 118l-98 396l58 14l98 -396z" />
    <glyph glyph-name="uniFE51" unicode="&#xfe51;" horiz-adv-x="506" 
d="M196 132l-98 396l-58 -14l98 -396zM506 60q31 0 31 -29q0 -31 -31 -31h-8q-48 0 -89 24t-67 62q-25 -39 -66 -62.5t-92 -23.5h-137v60h137q27 0 50.5 10t40.5 27t27.5 40t11.5 50v339h57v-339q0 -27 10 -50t27.5 -40t40.5 -27t49 -10h8z" />
    <glyph glyph-name="uniFE52" unicode="&#xfe52;" horiz-adv-x="515" 
d="M455 523v-336q0 -39 -15 -73t-40.5 -59.5t-59.5 -40t-72 -14.5h-125v60h125q26 0 49 10t40.5 27t27.5 40t10 50v336h60zM203 118l-99 396l58 14l98 -396zM248 602h-122l-32 -2q-7 -1 -18 -6q-5 -6 -9 -13.5t-8 -15.5l-49 18q9 20 17.5 33t20 21.5t26 12t35.5 4.5h139v-52
z" />
    <glyph glyph-name="uniFE53" unicode="&#xfe53;" horiz-adv-x="493" 
d="M248 654h-139q-21 -1 -35.5 -4.5t-26 -12t-20 -21.5t-17.5 -33l49 -18q4 8 8 15.5t9 13.5q11 5 18 6l32 2h122v52zM183 132l-98 396l-58 -14l98 -396zM493 60q31 0 31 -29q0 -31 -31 -31h-8q-48 0 -89 24t-67 62q-25 -39 -66 -62.5t-92 -23.5h-137v60h137q27 0 50.5 10
t40.5 27t27.5 40t11.5 50v339h57v-339q0 -27 10 -50t27.5 -40t40.5 -27t49 -10h8z" />
    <glyph glyph-name="uniFE54" unicode="&#xfe54;" horiz-adv-x="492" 
d="M432 523v-336q0 -39 -15 -73t-40.5 -59.5t-59.5 -40t-72 -14.5h-125v60h125q26 0 49 10t40.5 27t27.5 40t10 50v336h60zM180 118l-99 396l58 14l98 -396zM170 635l-119 -64l-11 20l42 22q-37 19 -37 53q0 22 17 42q20 20 41 20q8 -1 16 -3l16 -4l-5 -17q-2 1 -5.5 1
t-7.5 1h-11q-16 0 -27 -12q-12 -16 -12 -28q0 -33 32 -33q20 0 62 21z" />
    <glyph glyph-name="uniFE55" unicode="&#xfe55;" horiz-adv-x="506" 
d="M164 650q-42 -21 -62 -21q-32 0 -32 33q0 12 12 28q11 12 27 12h11q4 -1 7.5 -1t5.5 -1l5 17l-16 4t-16 3q-21 0 -41 -20q-17 -20 -17 -42q0 -34 37 -53l-42 -22l11 -20l119 64zM196 132l-98 396l-58 -14l98 -396zM506 60q31 0 31 -29q0 -31 -31 -31h-8q-48 0 -89 24
t-67 62q-25 -39 -66 -62.5t-92 -23.5h-137v60h137q27 0 50.5 10t40.5 27t27.5 40t11.5 50v339h57v-339q0 -27 10 -50t27.5 -40t40.5 -27t49 -10h8z" />
    <glyph glyph-name="uniFE56" unicode="&#xfe56;" horiz-adv-x="451" 
d="M391 523v-336q0 -39 -15 -73t-40.5 -59.5t-59.5 -40t-72 -14.5h-125v60h125q26 0 49 10t40.5 27t27.5 40t10 50v336h60zM139 118l-99 396l58 14l98 -396zM177 -155l-119 -64l-11 20l42 22q-37 19 -37 53q0 22 17 42q20 20 41 20q8 -1 16 -3l16 -4l-5 -17q-2 1 -5.5 1
t-7.5 1h-11q-16 0 -27 -12q-12 -17 -12 -28q0 -33 32 -33q20 0 62 21z" />
    <glyph glyph-name="uniFE57" unicode="&#xfe57;" horiz-adv-x="506" 
d="M197 -138q-42 -21 -62 -21q-32 0 -32 33q0 11 12 28q11 12 27 12h11q4 -1 7.5 -1t5.5 -1l5 17l-16 4t-16 3q-21 0 -41 -20q-17 -20 -17 -42q0 -34 37 -53l-42 -22l11 -20l119 64zM196 132l-98 396l-58 -14l98 -396zM506 60q31 0 31 -29q0 -31 -31 -31h-8q-48 0 -89 24
t-67 62q-25 -39 -66 -62.5t-92 -23.5h-137v60h137q27 0 50.5 10t40.5 27t27.5 40t11.5 50v339h57v-339q0 -27 10 -50t27.5 -40t40.5 -27t49 -10h8z" />
    <glyph glyph-name="uniFE58" unicode="&#xfe58;" horiz-adv-x="450" 
d="M390 523v-336q0 -39 -14.5 -73t-40 -59.5t-59.5 -40t-73 -14.5h-125v60h125q26 0 49.5 10t40.5 27t27 40t10 50v336h60zM138 118l-98 396l58 14l98 -396z" />
    <glyph glyph-name="uniFE59" unicode="&#xfe59;" horiz-adv-x="506" 
d="M196 132l-98 396l-58 -14l98 -396zM506 60q31 0 31 -29q0 -31 -31 -31h-8q-48 0 -89 24t-67 62q-25 -39 -66 -62.5t-92 -23.5h-137v60h137q27 0 50.5 10t40.5 27t27.5 40t11.5 50v339h57v-339q0 -27 10 -50t27.5 -40t40.5 -27t49 -10h8z" />
    <glyph glyph-name="uniFE5A" unicode="&#xfe5a;" horiz-adv-x="274" 
d="M274 60q31 0 31 -29q0 -31 -31 -31h-18q-34 0 -63.5 15.5t-50.5 41.5q-21 -26 -50.5 -41.5t-63.5 -15.5h-28q-31 0 -31 31q0 29 31 29h28q35 0 59.5 26t24.5 61v403h60v-403q0 -18 7 -34t18.5 -27.5t27 -18.5t31.5 -7h18z" />
    <glyph glyph-name="uniFE5B" unicode="&#xfe5b;" horiz-adv-x="274" 
d="M0 0q-31 0 -31 31q0 29 31 29h70q17 0 32 7t26.5 18.5t18.5 27.5t7 34v403h60v-406q0 -30 -11.5 -56t-31 -45.5t-45.5 -31t-56 -11.5h-70z" />
    <glyph glyph-name="uniFE5C" unicode="&#xfe5c;" horiz-adv-x="655" 
d="M398 60q42 0 71.5 28t29.5 70t-28 70.5t-68 30.5h-7q-42 -2 -69 -30.5t-27 -70.5q0 -21 7.5 -39t21 -31t31.5 -20.5t38 -7.5zM641 0q-37 0 -67.5 16.5t-50.5 45.5q-21 -29 -54 -45.5t-71 -16.5q-32 0 -61 12.5t-50.5 34t-34 50.5t-12.5 61q0 58 36 101h-74
q-18 0 -33 -6.5t-26.5 -18t-18 -27t-6.5 -32.5v-396h-58v396q0 30 11 55.5t30 45t45 30.5t56 11h204q31 -1 58.5 -14t48 -34.5t32.5 -50t12 -60.5v-14q0 -36 24.5 -60t59.5 -24h14q31 0 31 -31q0 -29 -31 -29h-14z" />
    <glyph glyph-name="uniFE5D" unicode="&#xfe5d;" horiz-adv-x="512" 
d="M512 60q31 0 31 -31q0 -29 -31 -29h-12q-36 0 -66.5 16.5t-50.5 45.5q-24 -29 -56.5 -46t-70.5 -17t-70.5 17t-54.5 45q-20 -28 -50.5 -44.5t-66.5 -16.5h-14q-31 0 -31 29q0 31 31 31h14q33 0 58.5 23.5t25.5 59.5v166l158 7q33 0 62 -12.5t50.5 -34t34 -50.5t12.5 -62
v-12q2 -38 26.5 -61.5t58.5 -23.5h12zM256 57q21 0 39 8t32 21.5t22 31.5t8 39t-8 39.5t-22 32t-32 21.5t-39 8l-101 -2v-99q0 -21 8 -39t22 -31.5t32 -21.5t39 -8z" />
    <glyph glyph-name="uniFE5E" unicode="&#xfe5e;" horiz-adv-x="467" 
d="M268 317q32 0 61 -12t51 -33.5t34.5 -50.5t12.5 -63q0 -33 -12.5 -62t-34.5 -50t-51 -33.5t-61 -12.5q-38 0 -70.5 17t-54.5 45q-20 -28 -50.5 -45t-66.5 -17h-26q-31 0 -31 31q0 29 31 29h26q33 0 58.5 24t25.5 60v115h-53v58h211zM268 58q21 0 39 8t32 21.5t22 32
t8 38.5q0 21 -8 39.5t-22 32t-32 21.5t-39 8h-101v-101q0 -20 8 -38.5t22 -32t32 -21.5t39 -8z" />
    <glyph glyph-name="uniFE5F" unicode="&#xfe5f;" horiz-adv-x="635" 
d="M277 296h62v-65h-62v65zM624 0q-27 0 -50 10t-43 26q-11 -38 -33 -69.5t-52 -54.5t-67 -36t-79 -13q-49 0 -93 19t-76.5 51.5t-51.5 76.5t-19 93v135h60v-135q0 -37 14.5 -70t39 -57.5t57 -38.5t69.5 -14q38 0 71.5 14t58 38.5t39 57.5t14.5 70v197h57v-158q0 -17 7 -32
t18.5 -26t27 -17.5t31.5 -6.5h11q31 0 31 -29q0 -31 -31 -31h-11z" />
    <glyph glyph-name="uniFE60" unicode="&#xfe60;" horiz-adv-x="304" 
d="M285 60h19q31 0 31 -29q0 -31 -31 -31q-42 0 -74.5 10t-59.5 45q-20 -26 -49 -40.5t-64 -14.5h-57q-31 0 -31 31q0 29 31 29h57q17 0 32.5 7t27 18.5t18 27.5t6.5 34v138h60v-141q0 -34 24 -59t60 -25zM195 389h-60v62h60v-62z" />
    <glyph glyph-name="uniFE61" unicode="&#xfe61;" horiz-adv-x="270" 
d="M0 0q-32 0 -32 31q0 29 32 29h66q17 0 32 7t26.5 18.5t18.5 27.5t7 34v139h60v-142q0 -30 -11.5 -56t-31 -45.5t-45.5 -31t-56 -11.5h-66zM209 389h-60v62h60v-62z" />
    <glyph glyph-name="uniFE62" unicode="&#xfe62;" horiz-adv-x="444" 
d="M445 60q31 0 31 -29q0 -31 -31 -31h-68q0 -60 -19 -101.5t-53 -70.5q-16 -14 -37.5 -24.5t-44 -18.5t-43.5 -14t-37 -11l-15 49q34 12 72 25.5t64 34.5q23 19 34.5 42t15.5 43q2 11 3.5 23t0.5 23h-100q-33 0 -62 13t-50.5 35t-33.5 51t-12 60q0 32 12 61t33.5 51
t50.5 35.5t62 13.5q34 0 63 -13t50.5 -35t33.5 -51.5t12 -61.5v-99h68zM319 60v99q0 20 -8 38.5t-21.5 32.5t-32 22t-39.5 8q-20 0 -38.5 -8t-32 -22t-21.5 -32t-8 -39t8 -39t21.5 -31.5t32 -21t38.5 -7.5h101z" />
    <glyph glyph-name="uniFE63" unicode="&#xfe63;" horiz-adv-x="445" 
d="M445 60q31 0 31 -29q0 -31 -31 -31h-68q0 -60 -19 -101.5t-53 -70.5q-16 -14 -37.5 -24.5t-44 -18.5t-43.5 -14t-37 -11l-15 49q34 12 72 25.5t64 34.5q23 19 34.5 42t15.5 43q2 11 3.5 23t0.5 23h-100q-33 0 -62 13t-50.5 35t-33.5 51t-12 60q0 32 12 61t33.5 51
t50.5 35.5t62 13.5q34 0 63 -13t50.5 -35t33.5 -51.5t12 -61.5v-99h68zM319 60v99q0 20 -8 38.5t-21.5 32.5t-32 22t-39.5 8q-20 0 -38.5 -8t-32 -22t-21.5 -32t-8 -39t8 -39t21.5 -31.5t32 -21t38.5 -7.5h101zM153 356l-16 31l38 18q-14 9 -22.5 22t-8.5 31q0 25 16.5 42.5
t44.5 17.5q20 0 38 -9l5 -1l-10 -28l-4 1q-5 2 -13 3t-14 1q-12 0 -20.5 -8t-8.5 -19q0 -10 9.5 -17.5t20.5 -7.5q14 0 23 3t23 9l4 3l15 -28z" />
    <glyph glyph-name="uniFE64" unicode="&#xfe64;" horiz-adv-x="461" 
d="M461 60q31 0 31 -29q0 -31 -31 -31h-20q-37 0 -67.5 16.5t-50.5 45.5q-21 -29 -54 -45.5t-71 -16.5q-33 0 -62 12.5t-50.5 33.5t-33.5 50t-12 62q0 34 12 63t33 50.5t50 33.5t63 12l101 -3v43h58v-213q0 -36 24.5 -60t59.5 -24h20zM299 259h-101q-20 0 -38.5 -8t-32 -22
t-21.5 -32t-8 -39q0 -20 8 -38.5t21.5 -32.5t32 -22t38.5 -8q21 0 39 8t31.5 22t21 32.5t7.5 38.5z" />
    <glyph glyph-name="uniFE65" unicode="&#xfe65;" horiz-adv-x="461" 
d="M461 60q31 0 31 -29q0 -31 -31 -31h-20q-37 0 -67.5 16.5t-50.5 45.5q-21 -29 -54 -45.5t-71 -16.5q-33 0 -62 12.5t-50.5 33.5t-33.5 50t-12 62q0 34 12 63t33 50.5t50 33.5t63 12l101 -3v43h58v-213q0 -36 24.5 -60t59.5 -24h20zM299 259h-101q-20 0 -38.5 -8t-32 -22
t-21.5 -32t-8 -39q0 -20 8 -38.5t21.5 -32.5t32 -22t38.5 -8q21 0 39 8t31.5 22t21 32.5t7.5 38.5zM264 456h-60v62h60v-62zM144 456h-60v62h60v-62z" />
    <glyph glyph-name="uniFE66" unicode="&#xfe66;" horiz-adv-x="461" 
d="M461 60q31 0 31 -29q0 -31 -31 -31h-20q-37 0 -67.5 16.5t-50.5 45.5q-21 -29 -54 -45.5t-71 -16.5q-33 0 -62 12.5t-50.5 33.5t-33.5 50t-12 62q0 34 12 63t33 50.5t50 33.5t63 12l101 -3v43h58v-213q0 -36 24.5 -60t59.5 -24h20zM299 259h-101q-20 0 -38.5 -8t-32 -22
t-21.5 -32t-8 -39q0 -20 8 -38.5t21.5 -32.5t32 -22t38.5 -8q21 0 39 8t31.5 22t21 32.5t7.5 38.5zM143 372l-16 31l38 18q-14 9 -22.5 22t-8.5 31q0 25 16.5 42.5t44.5 17.5q20 0 38 -9l5 -1l-10 -28l-4 1q-5 2 -13 3t-14 1q-12 0 -20.5 -8t-8.5 -19q0 -10 9.5 -17.5
t20.5 -7.5q14 0 23 3t23 9l4 3l15 -28z" />
    <glyph glyph-name="uniFE67" unicode="&#xfe67;" horiz-adv-x="493" 
d="M493 60q31 0 31 -29q0 -31 -31 -31h-58q-14 0 -27.5 -6.5t-24 -17t-17 -24t-6.5 -27.5v-15t1.5 -18.5t5.5 -17t12 -10.5h1v-60h-162q-30 0 -56 11.5t-45.5 31t-31 45.5t-11.5 56v52h-74q-31 0 -31 31q0 29 31 29h66v99q0 33 13 62t35 50.5t51 33.5t60 12q32 0 61 -12
t51.5 -33.5t36 -50.5t13.5 -62q0 -34 -13 -63t-35.5 -50.5t-52 -33.5t-61.5 -12h-91v-52q0 -17 7 -32t18.5 -26.5t27.5 -18.5t34 -7h93q-6 16 -8.5 32t-2.5 29q0 26 11 50.5t29.5 43t42.5 30t49 11.5h58zM126 158v-101h99q20 0 38.5 8t32.5 21.5t22 32t8 39.5q0 20 -8 38.5
t-22 32t-32 21.5t-39 8t-39 -8t-31.5 -21.5t-21 -32t-7.5 -38.5z" />
    <glyph glyph-name="uniFE68" unicode="&#xfe68;" horiz-adv-x="690" 
d="M153 159q0 -21 8 -39t21.5 -31.5t31.5 -21t37 -7.5q21 0 39.5 7.5t32 21t21.5 31.5t8 39q0 20 -8 37.5t-21.5 30.5t-32 21t-39.5 8q-19 0 -37 -8t-31.5 -21t-21.5 -30.5t-8 -37.5zM482 60q42 0 70 28.5t28 70.5q0 20 -7.5 38.5t-20.5 32t-31 21.5t-39 8l-106 -2
q36 -44 36 -98q0 -57 -36 -99h106zM129 60q-16 20 -26 45t-10 54q0 30 11.5 57t29.5 48q-25 6 -42.5 19.5t-33.5 36.5l35 33q42 -39 86 -39l303 3q32 0 61 -12t50.5 -33.5t34 -50.5t12.5 -62t-12.5 -61.5t-34 -50.5t-50.5 -34.5t-61 -12.5h-482q-31 0 -31 31q0 29 31 29h129
z" />
    <glyph glyph-name="uniFE69" unicode="&#xfe69;" horiz-adv-x="643" 
d="M643 60q31 0 31 -29q0 -31 -31 -31h-84q32 -24 43.5 -52t11.5 -61q0 -27 -9.5 -53t-24.5 -48q-23 -30 -58 -48.5t-78 -18.5h-214q-35 0 -66 13.5t-54 36.5t-36.5 54t-13.5 67v228h60v-228q0 -24 8.5 -44.5t23.5 -36t35 -24t43 -8.5h209q23 1 44 9.5t37 22.5t25 34t9 44
q0 45 -28.5 76t-69.5 37h-152v60h339z" />
    <glyph glyph-name="uniFE6A" unicode="&#xfe6a;" horiz-adv-x="644" 
d="M643 60q31 0 31 -29q0 -31 -31 -31h-84q32 -24 43.5 -52t11.5 -61q0 -27 -9.5 -53t-24.5 -48q-23 -30 -58 -48.5t-78 -18.5h-214q-35 0 -66 13.5t-54 36.5t-36.5 54t-13.5 67v228h60v-228q0 -24 8.5 -44.5t23.5 -36t35 -24t43 -8.5h209q23 1 44 9.5t37 22.5t25 34t9 44
q0 45 -28.5 76t-69.5 37h-152v60h339zM245 -350h60v-62h-60v62zM365 -350h60v-62h-60v62z" />
    <glyph glyph-name="uniFE6B" unicode="&#xfe6b;" horiz-adv-x="303" 
d="M82 -116h60v-62h-60v62zM202 -116h60v-62h-60v62zM285 60h19q31 0 31 -29q0 -31 -31 -31q-42 0 -74.5 10t-59.5 45q-20 -26 -49 -40.5t-64 -14.5h-57q-31 0 -31 31q0 29 31 29h57q17 0 32.5 7t27 18.5t18 27.5t6.5 34v138h60v-141q0 -34 24 -59t60 -25z" />
    <glyph glyph-name="uniFE6C" unicode="&#xfe6c;" horiz-adv-x="330" 
d="M0 0q-32 0 -32 31q0 29 32 29h126q17 0 32 7t26.5 18.5t18.5 27.5t7 34v139h60v-142q0 -30 -11.5 -56t-31 -45.5t-45.5 -31t-56 -11.5h-126zM1 -116h60v-62h-60v62zM121 -116h60v-62h-60v62z" />
    <glyph glyph-name="uniFE6D" unicode="&#xfe6d;" horiz-adv-x="643" 
d="M643 60q31 0 31 -29q0 -31 -31 -31h-84q32 -24 43.5 -52t11.5 -61q0 -27 -9.5 -53t-24.5 -48q-23 -30 -58 -48.5t-78 -18.5h-214q-35 0 -66 13.5t-54 36.5t-36.5 54t-13.5 67v228h60v-228q0 -24 8.5 -44.5t23.5 -36t35 -24t43 -8.5h209q23 1 44 9.5t37 22.5t25 34t9 44
q0 45 -28.5 76t-69.5 37h-152v60h339zM162 196l-16 31l38 18q-14 9 -22.5 22t-8.5 31q0 25 16.5 42.5t44.5 17.5q20 0 38 -9l5 -1l-10 -28l-4 1q-5 2 -13 3t-14 1q-12 0 -20.5 -8t-8.5 -19q0 -10 9.5 -17.5t20.5 -7.5q14 0 23 3t23 9l4 3l15 -28z" />
    <glyph glyph-name="uniFE6E" unicode="&#xfe6e;" horiz-adv-x="304" 
d="M285 60h19q31 0 31 -29q0 -31 -31 -31q-42 0 -74.5 10t-59.5 45q-20 -26 -49 -40.5t-64 -14.5h-57q-31 0 -31 31q0 29 31 29h57q17 0 32.5 7t27 18.5t18 27.5t6.5 34v138h60v-141q0 -34 24 -59t60 -25zM25 307l-16 31l38 18q-14 9 -22.5 22t-8.5 31q0 25 16.5 42.5
t44.5 17.5q20 0 38 -9l5 -1l-10 -28l-4 1q-5 2 -13 3t-14 1q-12 0 -20.5 -8t-8.5 -19q0 -10 9.5 -17.5t20.5 -7.5q14 0 23 3t23 9l4 3l15 -28z" />
    <glyph glyph-name="uniFE6F" unicode="&#xfe6f;" horiz-adv-x="270" 
d="M0 0q-32 0 -32 31q0 29 32 29h66q17 0 32 7t26.5 18.5t18.5 27.5t7 34v139h60v-142q0 -30 -11.5 -56t-31 -45.5t-45.5 -31t-56 -11.5h-66zM35 307l-16 31l38 18q-14 9 -22.5 22t-8.5 31q0 25 16.5 42.5t44.5 17.5q20 0 38 -9l5 -1l-10 -28l-4 1q-5 2 -13 3t-14 1
q-12 0 -20.5 -8t-8.5 -19q0 -10 9.5 -17.5t20.5 -7.5q14 0 23 3t23 9l4 3l15 -28z" />
    <glyph glyph-name="uniFE73" unicode="&#xfe73;" horiz-adv-x="550" 
 />
    <glyph glyph-name="_004" horiz-adv-x="810" 
 />
    <glyph glyph-name="uni064B0651" horiz-adv-x="355" 
d="M222 602q-12 0 -23 3.5t-20 12.5q-19 -16 -45 -16q-29 0 -49.5 19t-20.5 48v48h48v-48q0 -9 6.5 -15.5t15.5 -6.5t15 6.5t6 15.5v38h46v-38q0 -9 6 -15.5t15 -6.5t15.5 6.5t6.5 15.5v53h48v-53q0 -29 -20.5 -48t-49.5 -19zM310 1456l-134 -103l-26 41l136 93zM265 1521
l-135 -103l-26 41l137 94zM318 843l-134 -103l-26 41l136 93zM273 908l-135 -103l-26 41l137 94z" />
  </font>
</defs>
</svg>
