<?xml version="1.0" standalone="no"?>
<!DOCTYPE svg PUBLIC "-//W3C//DTD SVG 1.1//EN" "http://www.w3.org/Graphics/SVG/1.1/DTD/svg11.dtd" >
<svg xmlns="http://www.w3.org/2000/svg" xmlns:xlink="http://www.w3.org/1999/xlink" version="1.1">
<metadata>
Created by FontForge 20170731 at Mon Nov  2 11:16:23 1953
 By Aleksey,,,
Copyright (c) 2019 by www.fontiran.com All rights reserved.
</metadata>
<defs>
<font id="KalamehWeb-Black" horiz-adv-x="249" >
  <font-face 
    font-family="KalamehWeb Black"
    font-weight="900"
    font-stretch="normal"
    units-per-em="1100"
    panose-1="0 0 0 0 0 0 0 0 0 0"
    ascent="880"
    descent="-220"
    x-height="421"
    cap-height="578"
    bbox="-30 -426 1122 1015"
    underline-thickness="20"
    underline-position="-163"
    unicode-range="U+0020-FE87"
  />
<missing-glyph horiz-adv-x="550" 
 />
    <glyph glyph-name="uniFE00_uniFE5B" unicode="&#xfe5b;&#xfe00;" horiz-adv-x="499" 
d="M292 171q11 0 11 14v365h171v-368q0 -37 -14.5 -70.5t-39 -58t-57.5 -39t-71 -14.5h-235v171h235zM262 238l-81 332l-166 -41l81 -331z" />
    <glyph glyph-name="uniFE00_uniFE5A" unicode="&#xfe5a;&#xfe00;" horiz-adv-x="537" 
d="M96 198l-81 331l166 41l81 -332zM37 0v171h267q11 0 11 14v365h171v-368q0 -11 11 -11h40q16 0 22.5 -23.5t6.5 -61.5q0 -39 -5.5 -62.5t-23.5 -23.5h-41q-54 0 -97 26q-43 -26 -95 -26h-267z" />
    <glyph glyph-name="uniFC5E" unicode="&#xfc5e;" arabic-form="isolated" 
d="M49 838q6 8 0 14q-4 3 -8 3q-5 0 -8.5 -2.5t-7.5 -5.5l-25 58q15 12 37 15q23 0 38 -15t23 -35l24 17l-7 10q-11 12 -13 24.5t-1 29.5q1 14 8 26t17.5 20.5t23 13t24.5 4.5q13 0 26.5 -4.5t24.5 -13t18 -21t7 -29.5q0 -30 -13 -48t-25 -26q-37 -29 -74 -56.5t-75 -54.5
l-40 57zM181 930q4 2 4 6v6q0 12 -14 12t-14 -13q0 -6 3.5 -11t8.5 -8zM168 593q-12 0 -23 3t-19 11q-11 -8 -22 -11t-23 -3q-34 0 -57.5 22t-23.5 56v60h71v-60q0 -3 3 -6t7 -3q3 0 6 3t3 6v50h69v-50q0 -3 2.5 -6t6.5 -3t7 3t3 6v64h71v-64q0 -34 -23.5 -56t-57.5 -22z
" />
    <glyph glyph-name="uniFC5F" unicode="&#xfc5f;" arabic-form="isolated" 
d="M179 774l-126 -97l-46 71l131 83zM239 688l-126 -97l-46 71l131 83zM168 846q-12 0 -23 3t-19 11q-11 -8 -22 -11t-23 -3q-34 0 -57.5 22t-23.5 56v60h71v-60q0 -3 3 -6t7 -3q3 0 6 3t3 6v50h69v-50q0 -3 2.5 -6t6.5 -3t7 3t3 6v64h71v-64q0 -34 -23.5 -56t-57.5 -22z
" />
    <glyph glyph-name="uniFC60" unicode="&#xfc60;" horiz-adv-x="250" arabic-form="isolated" 
d="M229 871l-154 -118l-56 86l159 102zM168 593q-12 0 -23 3t-19 11q-11 -8 -22 -11t-23 -3q-34 0 -57.5 22t-23.5 56v60h71v-60q0 -3 3 -6t7 -3q3 0 6 3t3 6v50h69v-50q0 -3 2.5 -6t6.5 -3t7 3t3 6v64h71v-64q0 -34 -23.5 -56t-57.5 -22z" />
    <glyph glyph-name="uniFC61" unicode="&#xfc61;" horiz-adv-x="250" arabic-form="isolated" 
d="M84 753l-44 58l52 34l-9 11q-11 14 -15 30.5t-2 32.5q5 32 29 51.5t55 19.5h6.5t6.5 -1q34 -5 55 -32.5t16 -62.5q-2 -15 -10.5 -30t-22.5 -26zM159 890q10 10 10 19q1 11 -6.5 17t-15.5 6q-10 0 -17 -5t-7 -16t4 -16l14 -20zM168 593q-12 0 -23 3t-19 11q-11 -8 -22 -11
t-23 -3q-34 0 -57.5 22t-23.5 56v60h71v-60q0 -3 3 -6t7 -3q3 0 6 3t3 6v50h69v-50q0 -3 2.5 -6t6.5 -3t7 3t3 6v64h71v-64q0 -34 -23.5 -56t-57.5 -22z" />
    <glyph glyph-name="uniFC62" unicode="&#xfc62;" arabic-form="isolated" 
d="M229 710l-154 -118l-56 86l159 102zM168 812q-12 0 -23 3t-19 11q-11 -8 -22 -11t-23 -3q-34 0 -57.5 22t-23.5 56v60h71v-60q0 -3 3 -6t7 -3q3 0 6 3t3 6v50h69v-50q0 -3 2.5 -6t6.5 -3t7 3t3 6v64h71v-64q0 -34 -23.5 -56t-57.5 -22z" />
    <glyph glyph-name="uniFC63" unicode="&#xfc63;" arabic-form="isolated" 
d="M168 593q-12 0 -23 3t-19 11q-11 -8 -22 -11t-23 -3q-34 0 -57.5 22t-23.5 56v60h71v-60q0 -3 3 -6t7 -3q3 0 6 3t3 6v50h69v-50q0 -3 2.5 -6t6.5 -3t7 3t3 6v64h71v-64q0 -34 -23.5 -56t-57.5 -22zM167 938v-166h-79v166h79z" />
    <glyph glyph-name="uniFDF2" unicode="&#xfdf2;" horiz-adv-x="972" arabic-form="isolated" 
d="M549 577l-1 119h61l-1 -119h-59zM939 546v-333q0 -44 -16.5 -83t-45.5 -68t-67.5 -45.5t-82.5 -16.5h-18q-66 0 -116 35q-22 -16 -49 -25.5t-56 -9.5h-76q-54 0 -97 29q-43 -29 -101 -29q-39 0 -73.5 15t-60 40.5t-40.5 60t-15 73.5q0 40 15 74.5t40.5 60t60 40
t73.5 14.5h22v33h167v-234q0 -4 3 -6t6 -2h76q8 0 8 8v184h169v-148q0 -19 13 -31.5t31 -12.5h18q17 0 30 12.5t13 31.5v333h169zM235 211h-21q-9 0 -15.5 -6.5t-6.5 -15.5t6.5 -15.5t15.5 -6.5q8 0 14.5 6.5t6.5 15.5v22zM529 433q-28 0 -48 20t-20 48v41h64v-41
q0 -4 11 -4t11 4v41h63v-41v1q2 -5 10 -5h3q6 0 7 1t2 4v48h65v-48q0 -1 -0.5 -8t-3.5 -16t-8 -18.5t-14 -16.5q-18 -10 -37 -10h-19q-18 0 -36 10q-8 -5 -24 -7.5t-26 -2.5z" />
    <glyph glyph-name="uniFE71" unicode="&#xfe71;" horiz-adv-x="104" arabic-form="medial" 
 />
    <glyph glyph-name="uniFE72" unicode="&#xfe72;" horiz-adv-x="133" arabic-form="isolated" 
 />
    <glyph glyph-name="uniFE74" unicode="&#xfe74;" horiz-adv-x="133" arabic-form="isolated" 
 />
    <glyph glyph-name="uniFE76" unicode="&#xfe76;" horiz-adv-x="133" arabic-form="isolated" 
 />
    <glyph glyph-name="uniFE77" unicode="&#xfe77;" horiz-adv-x="104" arabic-form="medial" 
 />
    <glyph glyph-name="uniFE78" unicode="&#xfe78;" horiz-adv-x="133" arabic-form="isolated" 
 />
    <glyph glyph-name="uniFE79" unicode="&#xfe79;" horiz-adv-x="104" arabic-form="medial" 
 />
    <glyph glyph-name="uniFE7A" unicode="&#xfe7a;" horiz-adv-x="133" arabic-form="isolated" 
 />
    <glyph glyph-name="uniFE7B" unicode="&#xfe7b;" horiz-adv-x="104" arabic-form="medial" 
 />
    <glyph glyph-name="uniFE7C" unicode="&#xfe7c;" horiz-adv-x="133" arabic-form="isolated" 
 />
    <glyph glyph-name="uniFE7D" unicode="&#xfe7d;" horiz-adv-x="104" arabic-form="medial" 
 />
    <glyph glyph-name="uniFE7E" unicode="&#xfe7e;" horiz-adv-x="133" arabic-form="isolated" 
 />
    <glyph glyph-name="uniFE7F" unicode="&#xfe7f;" horiz-adv-x="104" arabic-form="medial" 
 />
    <glyph glyph-name="uniFE80" unicode="&#x621;" horiz-adv-x="327" arabic-form="isolated" 
 />
    <glyph glyph-name="uniFE81" unicode="&#x622;" horiz-adv-x="333" arabic-form="isolated" 
 />
    <glyph glyph-name="uniFE82" unicode="&#x622;" horiz-adv-x="333" arabic-form="final" 
 />
    <glyph glyph-name="uniFE83" unicode="&#x623;" horiz-adv-x="224" arabic-form="isolated" 
 />
    <glyph glyph-name="uniFE84" unicode="&#x623;" horiz-adv-x="224" arabic-form="final" 
 />
    <glyph glyph-name="uniFE85" unicode="&#x624;" horiz-adv-x="425" arabic-form="isolated" 
 />
    <glyph glyph-name="uniFE86" unicode="&#x624;" horiz-adv-x="425" arabic-form="final" 
 />
    <glyph glyph-name="uniFE87" unicode="&#x625;" horiz-adv-x="222" arabic-form="isolated" 
 />
    <glyph glyph-name=".notdef" horiz-adv-x="550" 
 />
    <glyph glyph-name=".null" horiz-adv-x="0" 
 />
    <glyph glyph-name="nonmarkingreturn" horiz-adv-x="215" 
 />
    <glyph glyph-name="space" unicode=" " horiz-adv-x="133" 
 />
    <glyph glyph-name="exclam" unicode="!" horiz-adv-x="259" 
d="M69 198q0 2 -0.5 14.5t-1 32.5t-1 46t-0.5 54q-1 35 -2 74t-2 73t-1.5 58t-0.5 27h125q0 -3 -0.5 -27t-1 -58t-1 -73t-0.5 -73q-1 -29 -1.5 -55t-1 -46t-0.5 -32.5v-14.5h-110zM127 131q30 0 48 -19.5t18 -46.5q0 -29 -18 -47.5t-48 -18.5q-29 0 -47 18.5t-18 47.5
q0 27 18 46.5t47 19.5z" />
    <glyph glyph-name="quotedbl" unicode="&#x22;" horiz-adv-x="297" 
d="M52 476l-11 158h91l-9 -158h-71zM180 476l-10 158h91l-9 -158h-72z" />
    <glyph glyph-name="numbersign" unicode="#" horiz-adv-x="507" 
d="M82 269h106l34 124h57l-34 -124h69l35 124h56l-34 -124h76v-50h-89l-24 -88h91v-50h-105l-34 -122h-57l33 122h-69l-33 -122h-58l34 122h-76v50h89l24 88h-91v50zM207 131h68l24 88h-67z" />
    <glyph glyph-name="dollar" unicode="$" horiz-adv-x="527" 
d="M487 167q0 -75 -46 -118t-123 -51v-89h-95v89q-42 5 -88.5 17t-94.5 32l27 95q60 -25 115 -37.5t97 -12.5q48 0 77.5 18t29.5 52q0 20 -11.5 33t-30 21.5t-42.5 14.5t-49 11q-36 7 -69.5 16t-59.5 26t-42 44t-16 70q0 69 42 110.5t115 51.5v95h95v-94q39 -4 81.5 -13.5
t77.5 -23.5l-27 -89q-51 15 -100.5 24t-84.5 9q-43 0 -69 -17.5t-26 -50.5q0 -26 25.5 -39t82.5 -24q46 -10 84.5 -21.5t66 -30t43 -47t15.5 -71.5z" />
    <glyph glyph-name="percent" unicode="%" horiz-adv-x="718" 
d="M523 144q0 -40 11.5 -52.5t25.5 -12.5q16 0 27.5 12.5t11.5 52.5q0 42 -11.5 55t-27.5 13q-14 0 -25.5 -13t-11.5 -55zM681 144q0 -86 -32.5 -120t-88.5 -34q-26 0 -48 8t-37.5 26t-24.5 47.5t-9 72.5q0 45 9 75t24.5 48t37.5 25.5t48 7.5q28 0 50.5 -7.5t38 -25.5
t24 -48t8.5 -75zM576 523l-285 -510l-109 1l287 509h107zM147 367q0 -40 11.5 -52.5t26.5 -12.5t27 12.5t12 52.5q0 42 -12 54.5t-27 12.5t-26.5 -12.5t-11.5 -54.5zM306 367q0 -87 -32.5 -121t-88.5 -34q-27 0 -49 8t-37.5 26t-24.5 48t-9 73q0 44 9 74t24.5 48t37.5 26
t49 8q28 0 50.5 -8t38 -26t24 -48t8.5 -74z" />
    <glyph glyph-name="ampersand" unicode="&#x26;" horiz-adv-x="549" 
d="M500 269l-57 -17q-8 -31 -18.5 -65t-27.5 -70q34 -26 64.5 -47.5t47.5 -32.5l-30 -51l-15 10q-11 8 -35.5 25t-62.5 47q-28 -35 -68.5 -57t-98.5 -22q-20 0 -47.5 5.5t-52 20.5t-42 42.5t-17.5 71.5q0 28 9 49.5t24 38.5t34.5 31t40.5 26q-39 56 -39 97q0 31 9.5 49.5
t24.5 29t32.5 14t33.5 3.5q44 0 73 -20.5t29 -65.5q0 -19 -6.5 -35.5t-17.5 -30.5t-25.5 -26t-30.5 -23q26 -29 57 -57.5t63 -55.5q16 36 24.5 71.5t16.5 70.5l91 29zM249 374q0 22 -9 32.5t-30 10.5q-20 0 -28.5 -12t-8.5 -33q0 -26 27 -67q21 15 35 31t14 38zM181 230
q-30 -20 -51.5 -44.5t-21.5 -56.5q0 -27 11.5 -44t27.5 -26.5t31.5 -13t23.5 -3.5q38 0 67.5 16.5t52.5 44.5q-38 30 -75.5 62.5t-65.5 64.5z" />
    <glyph glyph-name="quotesingle" unicode="'" horiz-adv-x="193" 
d="M61 476l-10 158h91l-9 -158h-72z" />
    <glyph glyph-name="parenleft" unicode="(" horiz-adv-x="354" 
d="M183 -99q-63 81 -93 161t-30 158t30 158.5t93 164.5h111l-30 -50q-43 -67 -65 -134t-22 -133q0 -68 22 -136t65 -140q1 -1 5.5 -8.5t9.5 -16.5q7 -11 15 -24h-111z" />
    <glyph glyph-name="parenright" unicode=")" horiz-adv-x="355" 
d="M60 -99q8 13 14 24q5 9 10 16.5t5 8.5q88 142 88 276t-88 268l-29 50h111q63 -84 93.5 -165t30.5 -159t-30.5 -158t-93.5 -161h-111z" />
    <glyph glyph-name="asterisk" unicode="*" horiz-adv-x="437" 
d="M281 452l88 -78l-100 -73l-49 107l-47 -107l-101 73l87 78l-119 12l38 118l105 -60l-25 119h124l-24 -118l101 59l38 -118z" />
    <glyph glyph-name="asterisk" unicode="&#x66d;" horiz-adv-x="437" 
d="M281 452l88 -78l-100 -73l-49 107l-47 -107l-101 73l87 78l-119 12l38 118l105 -60l-25 119h124l-24 -118l101 59l38 -118z" />
    <glyph glyph-name="plus" unicode="+" horiz-adv-x="493" 
d="M184 275v144h126v-144h143v-127h-143v-142h-126v142h-144v127h144z" />
    <glyph glyph-name="comma" unicode="," horiz-adv-x="275" 
d="M182 115q19 -19 19 -46q0 -30 -20.5 -49.5t-49.5 -19.5t-50 19.5t-21 49.5q0 14 5.5 28t18.5 38q5 11 14.5 31.5t16.5 36.5h100z" />
    <glyph glyph-name="hyphen" unicode="-" horiz-adv-x="403" 
d="M363 275v-121h-323v121h323z" />
    <glyph glyph-name="hyphen" unicode="&#x2010;" horiz-adv-x="403" 
d="M363 275v-121h-323v121h323z" />
    <glyph glyph-name="period" unicode="." horiz-adv-x="303" 
d="M152 -21q-19 0 -35.5 6.5t-29 18.5t-20 28.5t-7.5 35.5q0 39 27 64.5t65 25.5t64.5 -25.5t26.5 -64.5q0 -19 -7 -35.5t-19.5 -28.5t-29 -18.5t-35.5 -6.5z" />
    <glyph glyph-name="slash" unicode="/" horiz-adv-x="363" 
d="M323 447l-208 -542l-75 12l209 542z" />
    <glyph glyph-name="zero" unicode="0" horiz-adv-x="618" 
d="M309 588q61 0 110.5 -21.5t85 -60.5t54.5 -94t19 -123q0 -67 -19 -122t-54.5 -94t-85 -60.5t-110.5 -21.5t-110.5 21.5t-84.5 60.5t-54.5 94t-19.5 122q0 68 19.5 123t54.5 94t84.5 60.5t110.5 21.5zM309 160q42 0 68.5 36t26.5 93q0 58 -26.5 93.5t-68.5 35.5
q-43 0 -68.5 -35.5t-25.5 -93.5q0 -57 25.5 -93t68.5 -36z" />
    <glyph glyph-name="one" unicode="1" horiz-adv-x="351" 
d="M119 1v399l-89 1l2 177h259v-577h-172z" />
    <glyph glyph-name="two" unicode="2" horiz-adv-x="530" 
d="M54 1v121l180 169q29 26 50.5 50t21.5 42q0 17 -13.5 26t-35.5 9q-41 0 -167 -60l-50 158q59 33 119 52.5t105 19.5q53 0 93 -15.5t68 -42t42 -62.5t14 -78q0 -36 -11 -66.5t-30 -58t-44 -53t-53 -51.5l-13 -12h160v-148h-436z" />
    <glyph glyph-name="three" unicode="3" horiz-adv-x="513" 
d="M347 349q55 -14 90.5 -50.5t35.5 -106.5q0 -44 -16.5 -81t-47 -63.5t-73.5 -41.5t-95 -15h-199v166h200q23 0 40.5 10t17.5 25q0 11 -15.5 16t-44.5 5h-126v110l112 106h-186v149h417v-97z" />
    <glyph glyph-name="four" unicode="4" horiz-adv-x="581" 
d="M541 204v-117h-61v-86h-166v86h-279v108l306 383h139v-374h61zM314 204v113l-83 -113h83z" />
    <glyph glyph-name="five" unicode="5" horiz-adv-x="525" 
d="M263 395q105 -5 163.5 -56t58.5 -142q0 -47 -16.5 -85t-46.5 -65t-71 -41.5t-89 -14.5h-222v169h219q23 0 38 10t15 27q0 12 -16 19.5t-44 9.5l-200 9l32 343h385v-150h-230l-1 -32z" />
    <glyph glyph-name="six" unicode="6" horiz-adv-x="536" 
d="M326 211q0 14 -11 25.5t-27 11.5h-57v-46q0 -16 8 -26t25 -10h24q16 0 27 11t11 25v9zM302 393q41 0 76.5 -13t61.5 -37t41 -58.5t15 -77.5v-1q0 -42 -16 -79.5t-43.5 -65.5t-65 -44.5t-80.5 -16.5h-24q-43 0 -80.5 16.5t-65.5 43t-44.5 59.5t-16.5 66v188q0 42 16.5 79
t44 65t64.5 44.5t78 17.5h207v-149h-202q-13 0 -25 -10t-12 -27h71z" />
    <glyph glyph-name="seven" unicode="7" horiz-adv-x="522" 
d="M265 1h-191l194 407h-228v170h447v-106z" />
    <glyph glyph-name="eight" unicode="8" horiz-adv-x="558" 
d="M216 407q0 -17 17 -27t46 -10q28 0 45.5 10t17.5 27q0 12 -17.5 20.5t-45.5 8.5q-29 0 -46 -8.5t-17 -20.5zM279 151q35 0 56.5 11.5t21.5 28.5q0 14 -21.5 23.5t-56.5 9.5t-56.5 -9.5t-21.5 -23.5q0 -17 21.5 -28.5t56.5 -11.5zM463 309q29 -24 42 -52t13 -70
q0 -43 -17 -79t-48.5 -61.5t-75.5 -40t-98 -14.5t-98 14.5t-75.5 40t-48.5 61.5t-17 79q0 77 50 124q-12 20 -19 44t-7 52q0 41 15.5 74.5t44 57.5t68 37t87.5 13t88 -13t68 -37t43.5 -57.5t15.5 -74.5q0 -55 -31 -98z" />
    <glyph glyph-name="nine" unicode="9" horiz-adv-x="516" 
d="M210 368q0 -14 11 -25.5t27 -11.5h57v46q0 16 -8 26t-25 10h-24q-16 0 -27 -11t-11 -25v-9zM234 186q-41 0 -76.5 13t-61.5 37t-41 58.5t-15 77.5v1q0 42 16 79.5t44 65.5t65 44.5t80 16.5h24q43 0 80.5 -16.5t65.5 -43t44.5 -59.5t16.5 -66v-188q0 -42 -16.5 -79
t-44 -65t-64.5 -44.5t-78 -17.5h-207v149h202q13 0 25 10t12 27h-71z" />
    <glyph glyph-name="colon" unicode=":" horiz-adv-x="280" 
d="M140 200q-33 0 -56.5 23t-23.5 56q0 34 23.5 56t56.5 22t56.5 -22t23.5 -56q0 -33 -23.5 -56t-56.5 -23zM140 -12q-33 0 -56.5 23t-23.5 56q0 34 23.5 56t56.5 22t56.5 -22t23.5 -56q0 -33 -23.5 -56t-56.5 -23z" />
    <glyph glyph-name="semicolon" unicode=";" horiz-adv-x="276" 
d="M146 333q29 0 49.5 -19.5t20.5 -49.5q0 -29 -20.5 -49t-49.5 -20t-49.5 20t-20.5 49q0 30 20.5 49.5t49.5 19.5zM93 21q-18 18 -18 46q0 29 20.5 49t49.5 20t50 -20t21 -49q0 -14 -6 -28t-18 -39q-5 -10 -14.5 -30.5t-17.5 -37.5h-100z" />
    <glyph glyph-name="less" unicode="&#x3c;" horiz-adv-x="461" 
d="M40 181v82l381 193v-114l-237 -120l237 -120v-114z" />
    <glyph glyph-name="equal" unicode="=" horiz-adv-x="480" 
d="M40 372h400v-115h-400v115zM40 207h400v-116h-400v116z" />
    <glyph glyph-name="greater" unicode="&#x3e;" horiz-adv-x="461" 
d="M421 260v-82l-381 -193v114l237 120l-237 120v114z" />
    <glyph glyph-name="question" unicode="?" horiz-adv-x="430" 
d="M60 511q32 34 67.5 53t73.5 19q34 0 64.5 -13.5t54 -36.5t37 -54t13.5 -66q0 -25 -8 -47t-21 -41.5t-29.5 -36.5t-32.5 -34q-22 -23 -39.5 -43t-17.5 -38v-1h-103v12q0 24 7 43.5t19 37t26.5 33t29.5 30.5q21 21 37 40.5t16 38.5q0 26 -18 45t-44 19q-23 0 -62 -33z
M171 131q29 0 47 -19.5t18 -46.5q0 -29 -18 -47.5t-47 -18.5q-30 0 -48 18.5t-18 47.5q0 27 18 46.5t48 19.5z" />
    <glyph glyph-name="at" unicode="@" horiz-adv-x="498" 
d="M267 18q-42 0 -79.5 14t-66 39t-45 59t-16.5 74q0 24 7 50.5t19 51t28.5 45t36.5 32.5q47 29 112 29q23 -2 48.5 -6.5t42.5 -13.5q20 -10 35.5 -26.5t26 -35.5t16.5 -39.5t6 -40.5t-4 -38t-14 -35q-13 -23 -39.5 -44t-58.5 -21q-14 0 -29 5.5t-22 18.5q-24 -21 -51 -21
q-18 0 -31.5 7t-22.5 19t-13.5 27.5t-4.5 31.5q0 20 7 41t19.5 38t30.5 28t40 11q26 0 47 -19l5 20l47 -7l-26 -124q-1 -2 -1.5 -6.5t-2.5 -9.5q-1 -6 -2 -13q20 0 34 7.5t23 20.5t14 29t6 34q2 23 -9 43.5t-29 36t-42 24.5t-49 9q-30 0 -57 -13.5t-48 -35t-33.5 -50
t-12.5 -58.5t12.5 -55.5t34.5 -44t50.5 -29t59.5 -10.5h13q19 0 38 1.5t37 9.5l14 -39q-24 -11 -49 -16t-52 -5zM199 226q-5 -18 -5 -30q0 -19 9 -28.5t23 -9.5q20 0 37.5 20t17.5 57q0 18 -10 29t-24 11q-18 0 -30.5 -17.5t-17.5 -32.5v1z" />
    <glyph glyph-name="A" unicode="A" horiz-adv-x="713" 
d="M222 1h-192l263 580h127l263 -580h-192l-49 110h-171zM307 238h96l-47 144z" />
    <glyph glyph-name="B" unicode="B" horiz-adv-x="569" 
d="M233 421v-46h69q22 0 29.5 8t7.5 18q0 8 -6.5 14t-29.5 6h-70zM302 163q30 0 42 9t12 23q0 9 -10.5 15.5t-36.5 6.5h-76v-53q15 -1 35 -1h34zM446 297q14 -8 29 -20t27 -28t19.5 -37.5t7.5 -48.5q0 -47 -16.5 -78.5t-46.5 -50t-73 -26.5t-96 -8h-237v586h232
q100 0 157 -45.5t57 -133.5q0 -35 -14 -62t-46 -48z" />
    <glyph glyph-name="C" unicode="C" horiz-adv-x="618" 
d="M545 381q-68 17 -114.5 26.5t-73.5 9.5q-68 0 -104.5 -35t-36.5 -92q0 -58 36 -94t97 -36q26 0 77.5 10t126.5 30l35 -161q-75 -25 -136.5 -36.5t-104.5 -11.5q-70 0 -126.5 21.5t-96.5 60.5t-62 94t-22 122q0 68 22 123t62.5 94t98 60.5t129.5 21.5q44 0 101.5 -10.5
t124.5 -30.5z" />
    <glyph glyph-name="D" unicode="D" horiz-adv-x="615" 
d="M275 583q66 0 121.5 -20.5t95 -58t61.5 -91.5t22 -121q0 -68 -22 -122.5t-61 -93t-93 -59t-118 -20.5h-221v586h215zM281 166q52 0 85 33.5t33 92.5q0 57 -34 89t-90 32h-42v-246q13 -1 25 -1h23z" />
    <glyph glyph-name="E" unicode="E" horiz-adv-x="539" 
d="M471 364v-150h-239v-44h267v-169h-439v577h439v-170h-267v-44h239z" />
    <glyph glyph-name="F" unicode="F" horiz-adv-x="522" 
d="M464 358v-170h-231v-187h-173v577h432v-170h-259v-50h231z" />
    <glyph glyph-name="G" unicode="G" horiz-adv-x="671" 
d="M561 71q-55 -32 -108 -50t-110 -18q-68 0 -124 21.5t-95.5 61t-61.5 94.5t-22 122t22 122t61.5 94.5t95.5 61t124 21.5q44 0 104 -10.5t134 -31.5l-36 -140q-22 5 -50.5 8.5t-56.5 6t-52.5 4t-38.5 1.5q-30 0 -54.5 -10.5t-41.5 -29t-26.5 -43.5t-9.5 -54q0 -57 35.5 -92
t92.5 -35q23 0 37.5 3.5t40.5 9.5v28h-90v160h230v-305z" />
    <glyph glyph-name="H" unicode="H" horiz-adv-x="613" 
d="M380 1v201h-147v-201h-173v577h173v-207h147v207h173v-577h-173z" />
    <glyph glyph-name="I" unicode="I" horiz-adv-x="293" 
d="M233 1h-173v577h173v-577z" />
    <glyph glyph-name="J" unicode="J" horiz-adv-x="531" 
d="M471 229q0 -114 -58 -176t-160 -62q-44 0 -97.5 12.5t-125.5 38.5l40 163q69 -22 113 -32.5t70 -10.5q20 0 32 17t12 49v178h-184v172h358v-349z" />
    <glyph glyph-name="K" unicode="K" horiz-adv-x="598" 
d="M233 578v-156l110 156h215l-197 -274q38 -3 66.5 -18t48.5 -39t30 -55t10 -66v-125h-172v143q-1 20 -18.5 32t-45.5 12h-47v-187h-173v577h173z" />
    <glyph glyph-name="L" unicode="L" horiz-adv-x="514" 
d="M60 1v577h172v-409h252v-168h-424z" />
    <glyph glyph-name="M" unicode="M" horiz-adv-x="738" 
d="M208 578l161 -286l160 286h149v-577h-167v218l-81 -218h-122l-82 219v-219h-166v577h148z" />
    <glyph glyph-name="N" unicode="N" horiz-adv-x="631" 
d="M60 1v577h139l199 -255v255h173v-577h-142l-196 252v-252h-173z" />
    <glyph glyph-name="O" unicode="O" horiz-adv-x="680" 
d="M341 588q66 0 121 -21.5t94.5 -60.5t61.5 -94t22 -123q0 -67 -22 -122t-61.5 -94t-94.5 -60.5t-121 -21.5q-67 0 -122 21.5t-95 60.5t-62 94t-22 122q0 68 22 123t62 94t95 60.5t122 21.5zM340 160q56 0 90.5 36t34.5 93q0 58 -34.5 93t-90.5 35t-90.5 -35t-34.5 -93
q0 -57 34.5 -93t90.5 -36z" />
    <glyph glyph-name="P" unicode="P" horiz-adv-x="555" 
d="M275 582q54 0 98 -14.5t75.5 -42t49 -67.5t17.5 -91q0 -48 -17.5 -87.5t-49 -67.5t-75.5 -43.5t-98 -15.5h-42v-153h-173v582h215zM280 322q28 0 45.5 12.5t17.5 32.5q0 22 -17.5 33.5t-45.5 11.5h-47v-90h47z" />
    <glyph glyph-name="Q" unicode="Q" horiz-adv-x="681" 
d="M640 289q0 -74 -27 -133t-75 -99l103 -118h-227l-47 53q-7 -1 -13.5 -1h-13.5q-66 0 -121.5 21.5t-95 60.5t-61.5 94t-22 122q0 68 22 123t61.5 94t95 60.5t121.5 21.5q67 0 122 -21.5t94.5 -60.5t61.5 -94t22 -123zM340 160q56 0 90.5 36t34.5 93q0 58 -34.5 93
t-90.5 35t-90.5 -35t-34.5 -93q0 -57 34.5 -93t90.5 -36z" />
    <glyph glyph-name="R" unicode="R" horiz-adv-x="629" 
d="M264 163h-31v-162h-173v581h211q53 0 97 -13t75 -39.5t48 -65t17 -89.5q0 -103 -71 -157l162 -217h-217zM275 331q27 0 44 12t17 32t-17.5 29t-46.5 9h-39v-82h42z" />
    <glyph glyph-name="S" unicode="S" horiz-adv-x="557" 
d="M479 390q-30 9 -61 16.5t-58 13t-49.5 9t-36.5 3.5q-20 0 -32 -3.5t-13 -15.5q-1 -14 17.5 -20t53.5 -11q50 -7 91.5 -17.5t71.5 -30t46.5 -51.5t16.5 -83q0 -48 -17 -84.5t-47.5 -61.5t-73 -38t-93.5 -13t-120.5 17.5t-144.5 46.5l50 167q24 -10 56.5 -22.5t67 -23.5
t68 -18.5t60.5 -7.5q37 0 37 23q0 9 -10 15.5t-25 11t-33 8.5t-34 7q-42 7 -79 18t-64.5 31t-43.5 52t-16 80q0 44 16 79.5t45 60t69.5 37.5t90.5 13q24 0 54 -4t61.5 -11t64 -16t62.5 -20z" />
    <glyph glyph-name="T" unicode="T" horiz-adv-x="523" 
d="M346 1h-173v407h-143v170h463v-170h-147v-407z" />
    <glyph glyph-name="U" unicode="U" horiz-adv-x="632" 
d="M572 244q0 -58 -18.5 -105t-52 -80t-80.5 -50.5t-105 -17.5t-105 17.5t-80.5 50.5t-52 80t-18.5 105v334h173v-334q0 -38 22.5 -61t60.5 -23t60.5 23t22.5 61v334h173v-334z" />
    <glyph glyph-name="V" unicode="V" horiz-adv-x="709" 
d="M291 1l-261 577h194l130 -296l133 296h192l-261 -577h-127z" />
    <glyph glyph-name="W" unicode="W" horiz-adv-x="889" 
d="M526 1l-81 238l-82 -238h-135l-198 577h184l82 -243l82 243h132l83 -243l81 243h185l-198 -577h-135z" />
    <glyph glyph-name="X" unicode="X" horiz-adv-x="752" 
d="M722 1h-218l-128 152l-127 -152h-219l234 288l-223 289h218l117 -150l118 150h217l-222 -289z" />
    <glyph glyph-name="Y" unicode="Y" horiz-adv-x="720" 
d="M30 578h204l126 -189l126 189h204l-243 -372v-205h-173v205z" />
    <glyph glyph-name="Z" unicode="Z" horiz-adv-x="537" 
d="M287 170h220v-169h-477v115l220 292h-213v170h468v-115z" />
    <glyph glyph-name="bracketleft" unicode="[" horiz-adv-x="276" 
d="M236 523h-72v-602h72v-93h-140q-17 0 -26.5 10t-9.5 26v715q0 16 9.5 26.5t26.5 10.5h140v-93z" />
    <glyph glyph-name="backslash" unicode="\" horiz-adv-x="413" 
d="M40 556h113l220 -585h-114z" />
    <glyph glyph-name="bracketright" unicode="]" horiz-adv-x="277" 
d="M40 616h140q16 0 26.5 -10.5t10.5 -26.5v-715q0 -16 -10.5 -26t-26.5 -10h-140v93h72v603h-72v92z" />
    <glyph glyph-name="asciicircum" unicode="^" horiz-adv-x="515" 
d="M228 692h61l166 -372h-76l-120 296h-2l-122 -296h-75z" />
    <glyph glyph-name="underscore" unicode="_" horiz-adv-x="422" 
d="M422 6v-96h-422v96h422z" />
    <glyph glyph-name="a" unicode="a" horiz-adv-x="486" 
d="M243 258q-22 0 -33 -14.5t-11 -37.5t11 -37t30 -14q9 0 18.5 1.5t19.5 6.5v95h-35zM278 26q-8 -8 -18 -13q-9 -5 -21.5 -9.5t-27.5 -4.5q-40 0 -73.5 14.5t-57.5 41.5t-37 65.5t-13 86.5q1 48 15.5 87.5t41 67.5t64.5 43.5t86 15.5h209v-420h-168v25z" />
    <glyph glyph-name="b" unicode="b" horiz-adv-x="506" 
d="M229 428h37q50 0 89 -15.5t66 -43.5t41 -67t14 -87q0 -50 -15 -90t-42 -67.5t-64.5 -42.5t-82.5 -15h-212v571h169v-143zM262 264h-16.5t-16.5 -1v-102h35q22 0 33 15t11 39q0 23 -11.5 36t-34.5 13z" />
    <glyph glyph-name="c" unicode="c" horiz-adv-x="460" 
d="M396 246q-49 9 -87.5 13t-53.5 4q-26 0 -41 -14.5t-15 -38.5q0 -23 14 -37t37 -14q8 0 23 0.5t35 2.5t43.5 5.5t47.5 9.5l31 -143q-26 -8 -52 -15t-50 -12.5t-44 -8.5t-35 -3q-48 0 -88 15.5t-69.5 44t-45.5 68t-16 88.5t16 88.5t45.5 67.5t70.5 43t91 15q26 0 72 -9.5
t96 -26.5z" />
    <glyph glyph-name="d" unicode="d" horiz-adv-x="506" 
d="M446 0h-211q-45 0 -82.5 15t-65 42.5t-42.5 67.5t-15 90q0 48 14 87t41 67t66.5 43.5t89.5 15.5h37v143h168v-571zM244 264q-23 0 -34.5 -13t-11.5 -36q0 -24 11.5 -39t32.5 -15h35v102q-8 1 -16.5 1h-16.5z" />
    <glyph glyph-name="e" unicode="e" horiz-adv-x="470" 
d="M241 431q44 0 80 -14t62.5 -38.5t41 -57t15.5 -68.5v-97h-250q3 -18 15 -28.5t32 -10.5q8 0 23.5 -0.5t33.5 -0.5t36.5 -0.5t32.5 -0.5q9 0 15 0.5t8 0.5l28 -99l-50 -12.5t-41.5 -8.5t-37.5 -4t-38 -1q-60 0 -102.5 19t-68.5 51.5t-37.5 75.5t-8.5 91q3 43 19 80
t43 64.5t65 43t84 15.5zM252 300q-22 0 -41.5 -11t-21.5 -29v-11h117v15q-1 17 -18 26.5t-36 9.5z" />
    <glyph glyph-name="f" unicode="f" horiz-adv-x="405" 
d="M258 254v-254h-171v254h-62v106h62v60q0 80 46 125t120 45q14 0 45.5 -5.5t76.5 -16.5l-19 -143h-95q-3 0 -3 -6v-59h108v-106h-108z" />
    <glyph glyph-name="g" unicode="g" horiz-adv-x="495" 
d="M445 421v-411q0 -50 -14.5 -90.5t-42 -70t-68 -45.5t-91.5 -16q-37 0 -84 13.5t-95 32.5l33 154q48 -14 87.5 -24.5t57.5 -10.5q23 0 36 9.5t13 35.5h-43q-46 0 -83.5 15.5t-64.5 43t-41.5 66t-14.5 84.5q0 48 14 87.5t41 67.5t65.5 43.5t86.5 15.5h208zM242 257
q-22 0 -33 -14t-11 -37q0 -20 11 -33t31 -13h37v97h-35z" />
    <glyph glyph-name="h" unicode="h" horiz-adv-x="498" 
d="M279 421q83 0 131 -47.5t48 -132.5v-240h-169v230q0 24 -18 24h-42v-254h-169v563h169v-143h50z" />
    <glyph glyph-name="i" unicode="i" horiz-adv-x="248" 
d="M208 1h-168v420h168v-420zM64 479h126v126h-126v-126z" />
    <glyph glyph-name="j" unicode="j" horiz-adv-x="333" 
d="M273 51q0 -47 -10.5 -81.5t-36.5 -57.5t-70 -34.5t-111 -11.5l-15 163h73q2 0 2 17v375h168v-370zM120 479h126v126h-126v-126z" />
    <glyph glyph-name="k" unicode="k" horiz-adv-x="542" 
d="M219 156v-155h-159v563h159v-243l56 100h177l-80 -147q26 -25 38 -59.5t12 -72.5v-141h-162v132q0 23 -19 23h-22z" />
    <glyph glyph-name="l" unicode="l" horiz-adv-x="288" 
d="M228 1h-168v563h168v-563z" />
    <glyph glyph-name="m" unicode="m" horiz-adv-x="663" 
d="M449 420q83 0 128.5 -44.5t45.5 -135.5v-240h-169v231q0 23 -13 23h-12.5t-13.5 -1v-9v-244h-168v234q0 20 -16 20h-23v-254h-168v420h199q27 0 49 -4.5t41 -12.5q60 17 120 17z" />
    <glyph glyph-name="n" unicode="n" horiz-adv-x="477" 
d="M258 421q85 0 132 -47.5t47 -132.5v-240h-168v230q0 24 -19 24h-42v-254h-168v420h218z" />
    <glyph glyph-name="o" unicode="o" horiz-adv-x="497" 
d="M249 432q48 0 88 -15.5t69 -43.5t45 -68t16 -88t-16 -88t-45 -68.5t-69 -44t-88 -15.5t-88 15.5t-69.5 44t-45.5 68.5t-16 88t16 88t45.5 68t69.5 43.5t88 15.5zM249 166q22 0 35.5 14t13.5 37t-13.5 36.5t-35.5 13.5t-35.5 -13.5t-13.5 -36.5t13.5 -37t35.5 -14z" />
    <glyph glyph-name="p" unicode="p" horiz-adv-x="506" 
d="M268 421q48 0 86 -15.5t65 -43.5t41.5 -67t15.5 -87q0 -46 -14.5 -85t-41.5 -66.5t-65 -43t-84 -15.5h-43v-136h-168v559h208zM267 160q19 0 30 13t11 33q0 23 -11 37t-33 14h-35v-96q9 -1 18.5 -1h19.5z" />
    <glyph glyph-name="q" unicode="q" horiz-adv-x="506" 
d="M446 421v-557h-168v134h-43q-46 0 -84 15.5t-65 43.5t-41.5 67t-14.5 85q1 47 15.5 86t41.5 67t64.5 43.5t85.5 15.5h209zM277 161v97h-35q-22 0 -33 -14.5t-11 -37.5q0 -19 11 -32t30 -13h38z" />
    <glyph glyph-name="r" unicode="r" horiz-adv-x="368" 
d="M40 421h174v-27q22 14 49 20.5t50 6.5h20v-176h-96h-15q-5 -1 -9 -1v-244h-173v421z" />
    <glyph glyph-name="s" unicode="s" horiz-adv-x="450" 
d="M70 160q56 -25 95.5 -35t59.5 -12q9 0 15 2.5t6 13.5q0 8 -8 13.5t-20.5 9.5t-27.5 8t-29 9q-21 8 -40.5 17.5t-34 21.5t-23.5 28t-9 36q0 71 46.5 109.5t129.5 38.5q17 0 39.5 -3.5t47.5 -9.5t51.5 -14t51.5 -17l-35 -109q-35 11 -73.5 20.5t-74.5 9.5q-5 0 -9.5 -4.5
t-4.5 -10.5q0 -5 5 -10t20 -8q39 -8 68.5 -18t50 -25t31 -36t10.5 -50q0 -37 -12.5 -64.5t-36 -45t-56 -26t-72.5 -8.5q-35 0 -89 15t-112 41z" />
    <glyph glyph-name="t" unicode="t" horiz-adv-x="421" 
d="M391 16q-53 -14 -83 -19.5t-53 -5.5q-81 0 -120.5 41.5t-39.5 130.5v93h-65v104h65v170h168v-170h102v-104h-102v-89q0 -7 1 -8v-3q14 0 100 16z" />
    <glyph glyph-name="u" unicode="u" horiz-adv-x="477" 
d="M437 26q-60 -15 -118.5 -22.5t-100.5 -7.5q-82 0 -130 44t-48 136v245h168v-237q0 -25 19 -25h20.5t21.5 1v261h168v-395z" />
    <glyph glyph-name="v" unicode="v" horiz-adv-x="564" 
d="M219 1l-194 420h184l73 -158l73 158h184l-195 -420h-125z" />
    <glyph glyph-name="w" unicode="w" horiz-adv-x="694" 
d="M384 1l-37 154l-36 -154h-130l-151 420h178l43 -159l56 134h82l56 -133l42 158h177l-151 -420h-129z" />
    <glyph glyph-name="x" unicode="x" horiz-adv-x="594" 
d="M578 0h-212l-68 94l-73 -94h-214l188 213l-180 208h213l66 -89l65 89h214l-180 -209z" />
    <glyph glyph-name="y" unicode="y" horiz-adv-x="488" 
d="M428 0q0 -50 -14.5 -90.5t-42.5 -70t-68.5 -45.5t-91.5 -16q-37 0 -83 13t-95 32l32 155q48 -14 87.5 -24.5t57.5 -10.5q23 0 36 14.5t13 40.5h-50q-41 0 -74 9.5t-56.5 30.5t-36 55.5t-12.5 83.5v244h169v-236q0 -25 18 -25h42v261h169v-421z" />
    <glyph glyph-name="z" unicode="z" horiz-adv-x="430" 
d="M285 164h115v-163h-370v108l119 148h-114v164h366v-111z" />
    <glyph glyph-name="braceleft" unicode="{" horiz-adv-x="296" 
d="M256 -173h-98q-79 0 -79 79v201q0 17 -1.5 28t-5.5 20t-11.5 18t-20.5 22v52q13 12 21 21t12 17.5t5 18.5t1 25v208q0 79 79 79h98v-93h-72v-206q0 -32 -10 -53.5t-27 -41.5q17 -21 27 -43t10 -53v-206h72v-93z" />
    <glyph glyph-name="bar" unicode="|" horiz-adv-x="228" 
d="M60 603h108v-783h-108v783z" />
    <glyph glyph-name="braceright" unicode="}" horiz-adv-x="296" 
d="M40 -80h72v206q0 31 10 53t27 43q-17 20 -27 41.5t-10 53.5v206h-72v93h98q79 0 79 -79v-208q0 -15 1 -25t5 -18.5t12 -17.5t21 -21v-52q-13 -13 -20.5 -22t-11.5 -18t-5.5 -20t-1.5 -28v-201q0 -79 -79 -79h-98v93z" />
    <glyph glyph-name="asciitilde" unicode="~" horiz-adv-x="312" 
d="M40 436q0 19 2 36.5t8.5 31t20 22t36.5 8.5q11 0 25 -4t34 -14l20 -11q8 -5 12 -5q13 0 15 35h59q0 -100 -68 -100q-23 0 -59 21q-24 13 -33 13q-12 0 -12 -33h-60z" />
    <glyph glyph-name="exclamdown" unicode="&#xa1;" horiz-adv-x="272" 
d="M190 238v-14.5t0.5 -32.5t1 -45.5t1.5 -54.5q1 -34 2 -73.5t2 -73.5t1.5 -58t0.5 -27h-125v27t0.5 58t1 73t1.5 73q0 29 0.5 55t1 46t1 32.5t0.5 14.5h110zM132 305q-30 0 -48 19.5t-18 46.5q0 29 18 47.5t48 18.5q29 0 47 -18.5t18 -47.5q0 -27 -18 -46.5t-47 -19.5z
" />
    <glyph glyph-name="cent" unicode="&#xa2;" horiz-adv-x="542" 
d="M395 386q17 -4 35.5 -9t41.5 -10l-23 -98l-9 1.5t-4.5 0.5h-3.5t-7 1l-30 4v-158q21 2 33.5 4t26.5 4l27 -98q-27 -7 -44.5 -10.5l-42.5 -8.5v-69h-86v59q-13 -2 -21 -3t-22 -1q-45 0 -83 14.5t-65.5 41t-42.5 64t-15 83.5t15.5 83t43 63.5t66.5 40.5t86 14
q5 0 18.5 -1.5t19.5 -3.5v63h86v-71zM247 103h10.5t18.5 0.5t19.5 1.5t13.5 2v180q-2 0 -10 1t-17 2t-17 1.5t-10 0.5q-41 0 -67 -26t-26 -69t23.5 -68.5t61.5 -25.5z" />
    <glyph glyph-name="sterling" unicode="&#xa3;" horiz-adv-x="519" 
d="M40 6v92h55v116h-55v93h55v83q0 40 14.5 72.5t40.5 55.5t63.5 35.5t82.5 12.5q33 0 72 -6t81 -17l-18 -88q-39 8 -75 12.5t-62 4.5q-45 0 -72 -22t-27 -60v-83h175v-93h-175v-116h284v-92h-439z" />
    <glyph glyph-name="currency" unicode="&#xa4;" horiz-adv-x="514" 
d="M99 363q0 34 14 67l-53 35l62 90l72 -49q15 6 31 9.5t33 3.5t32.5 -3.5t29.5 -8.5l72 48l60 -89l-50 -35q17 -31 17 -68q0 -18 -4 -34.5t-11 -30.5l50 -33l-62 -89l-70 46q-27 -11 -64 -13q-17 1 -34 4t-32 9l-70 -47l-62 89l53 35q-14 28 -14 64zM208 363
q0 -20 14.5 -35t35.5 -15q22 0 35.5 15t13.5 35q0 22 -13.5 37t-35.5 15q-21 0 -35.5 -15t-14.5 -37z" />
    <glyph glyph-name="yen" unicode="&#xa5;" horiz-adv-x="468" 
d="M403 542l-61 -243h86v-99h-105l-4 -25h109v-96h-129l-20 -79h-117l20 79h-133v96h134l-4 25h-130v99h91l-100 242l118 2l82 -244l46 243h117z" />
    <glyph glyph-name="brokenbar" unicode="&#xa6;" horiz-adv-x="228" 
d="M60 548h108v-273h-108v273zM168 147v-274h-108v274h108z" />
    <glyph glyph-name="section" unicode="&#xa7;" horiz-adv-x="519" 
 />
    <glyph glyph-name="copyright" unicode="&#xa9;" horiz-adv-x="569" 
d="M60 259q0 48 17 89.5t47 71.5t71 47t89 17q49 0 90 -17t71 -47t47 -71.5t17 -89.5t-17 -89t-47 -71t-71 -47t-90 -17q-48 0 -89 17t-71 47t-47 71t-17 89zM145 257q0 -28 11 -53t30 -44t44 -30t53 -11q29 0 54 11t44.5 30t30.5 44t11 53t-11 54t-30.5 45.5t-44.5 31
t-54 11.5q-28 0 -53 -11.5t-44 -31t-30 -45.5t-11 -54zM350 291q-23 6 -39 9.5t-25 3.5q-23 0 -36 -12t-13 -32t12.5 -32t33.5 -12q9 0 26.5 3t43.5 10l12 -55q-26 -8 -47 -12t-36 -4q-48 0 -76.5 27.5t-28.5 74.5q0 46 28.5 74t78.5 28q30 0 77 -14z" />
    <glyph glyph-name="ordfeminine" unicode="&#xaa;" horiz-adv-x="387" 
 />
    <glyph glyph-name="guillemotleft" unicode="&#xab;" horiz-adv-x="440" 
d="M40 160v47l208 175v-89l-129 -110l129 -110v-88zM192 160v47l208 175v-89l-129 -110l129 -110v-88z" />
    <glyph glyph-name="logicalnot" unicode="&#xac;" horiz-adv-x="434" 
d="M0 350h434v-263h-107v158h-327v105z" />
    <glyph glyph-name="registered" unicode="&#xae;" horiz-adv-x="569" 
d="M60 259q0 48 17 89.5t47 71.5t71 47t89 17q49 0 90 -17t71 -47t47 -71.5t17 -89.5t-17 -89t-47 -71t-71 -47t-90 -17q-48 0 -89 17t-71 47t-47 71t-17 89zM145 257q0 -28 11 -53t30 -44t44 -30t53 -11q29 0 54 11t44.5 30t30.5 44t11 53t-11 54t-30.5 45.5t-44.5 31
t-54 11.5q-28 0 -53 -11.5t-44 -31t-30 -45.5t-11 -54zM275 225h-10v-51h-54v184h67q34 0 54.5 -17t20.5 -49t-23 -50l52 -68h-69zM279 278q19 0 19 14q0 12 -20 12h-13v-26h14z" />
    <glyph glyph-name="macron" unicode="&#xaf;" horiz-adv-x="238" 
d="M0 529h238v-105h-238v105z" />
    <glyph glyph-name="degree" unicode="&#xb0;" horiz-adv-x="325" 
d="M285 568q0 -30 -10 -52.5t-27 -38t-39 -23.5t-46 -8t-46.5 8t-39.5 23.5t-27 38t-10 52.5t10 53.5t27 39t39.5 23.5t46.5 8t46 -8t39 -23.5t27 -39t10 -53.5zM140 568q0 -14 7.5 -22t16.5 -8q20 0 20 30q0 31 -20 31q-9 0 -16.5 -8t-7.5 -23z" />
    <glyph glyph-name="plusminus" unicode="&#xb1;" horiz-adv-x="493" 
d="M184 450v124h126v-124h123v-127h-123v-122h-126v122h-124v127h124zM403 160v-121h-323v121h323z" />
    <glyph glyph-name="twosuperior" unicode="&#xb2;" horiz-adv-x="334" 
d="M182 382h87v-89h-209v71q7 9 17 22.5t16 21.5q6 9 12.5 17t12.5 16l4 7q20 26 37 50.5t24 35.5q3 2 3 11q0 21 -24 21q-12 0 -23 -7.5t-28 -24.5l-50 50q5 11 14 23.5t22 23t29.5 17t37.5 6.5q22 0 42 -9t35 -24t24 -35t9 -43q0 -41 -21 -66z" />
    <glyph glyph-name="threesuperior" unicode="&#xb3;" horiz-adv-x="324" 
d="M264 406q0 -22 -9 -42.5t-24 -35.5t-35 -24t-42 -9h-94v89h92q10 0 17 6.5t7 15.5v13q0 9 -7 16t-17 7h-64v87h39l20 36h-84v88h198v-68l-42 -79q20 -15 32.5 -37.5t12.5 -48.5v-14z" />
    <glyph glyph-name="mu" unicode="&#xb5;" horiz-adv-x="610" 
 />
    <glyph glyph-name="paragraph" unicode="&#xb6;" horiz-adv-x="663" 
 />
    <glyph glyph-name="periodcentered" unicode="&#xb7;" horiz-adv-x="265" 
d="M78 169q-18 23 -18 52q0 32 20.5 53.5t52.5 21.5t52 -22t20 -53t-19 -54q-11 -11 -24.5 -17t-28.5 -6q-16 0 -29.5 6t-24.5 17z" />
    <glyph glyph-name="cedilla" unicode="&#xb8;" horiz-adv-x="228" 
 />
    <glyph glyph-name="onesuperior" unicode="&#xb9;" horiz-adv-x="252" 
d="M192 656v-357h-88v270h-44v87h132z" />
    <glyph glyph-name="ordmasculine" unicode="&#xba;" horiz-adv-x="467" 
d="M249 752q48 0 88 -15.5t69 -43.5t45 -68t16 -88t-16 -88t-45 -68.5t-69 -44t-88 -15.5t-88 15.5t-69.5 44t-45.5 68.5t-16 88t16 88t45.5 68t69.5 43.5t88 15.5zM249 486q22 0 35.5 14t13.5 37t-13.5 36.5t-35.5 13.5t-35.5 -13.5t-13.5 -36.5t13.5 -37t35.5 -14z" />
    <glyph glyph-name="guillemotright" unicode="&#xbb;" horiz-adv-x="440" 
d="M192 -15v88l129 110l-129 110v89l208 -175v-47zM40 -15v88l129 110l-129 110v89l208 -175v-47z" />
    <glyph glyph-name="onequarter" unicode="&#xbc;" horiz-adv-x="752" 
d="M486 352l-186 -330l-77 45l183 325zM93 97v238h-53l1 105h154v-343h-102zM712 129v-70h-37v-51h-98v51h-166v64l182 228h82v-222h37zM577 129v58l-40 -58h40z" />
    <glyph glyph-name="onehalf" unicode="&#xbd;" horiz-adv-x="788" 
d="M486 352l-186 -330l-77 45l183 325zM93 97v238h-53l1 105h154v-343h-102zM494 8v71l105 98q17 16 29.5 29.5t12.5 24.5q0 20 -28 20q-11 0 -36 -8.5t-62 -26.5l-29 92q35 20 70 31t61 11q61 0 93.5 -33t32.5 -82q0 -42 -23.5 -73t-56.5 -61l-8 -7h94v-86h-255z" />
    <glyph glyph-name="threequarters" unicode="&#xbe;" horiz-adv-x="768" 
d="M529 352l-184 -329l-80 43l184 326zM728 129v-70h-36v-51h-99v51h-166v64l182 228h83v-222h36zM593 129v58l-39 -58h39zM223 303q32 -8 53.5 -30t21.5 -64q0 -53 -38 -86t-100 -33h-119v98h119q14 0 24.5 6t10.5 15q0 13 -36 13h-75v65l67 63h-111v89h248v-58z" />
    <glyph glyph-name="questiondown" unicode="&#xbf;" horiz-adv-x="430" 
d="M370 -99q-32 -34 -67.5 -53t-73.5 -19q-34 0 -64.5 13.5t-53.5 36.5t-37 54t-14 66q0 25 8 47t21 41.5t29.5 37t32.5 33.5q22 23 39.5 43t17.5 38v1h103v-12q0 -24 -7 -43.5t-19 -37t-26.5 -33t-29.5 -30.5q-21 -21 -37 -40.5t-16 -38.5q0 -26 18 -45t44 -19q23 0 62 33z
M259 281q-29 0 -47 19.5t-18 46.5q0 29 18 47.5t47 18.5q30 0 48 -18.5t18 -47.5q0 -27 -18 -46.5t-48 -19.5z" />
    <glyph glyph-name="multiply" unicode="&#xd7;" horiz-adv-x="463" 
d="M232 284l101 102l90 -90l-102 -101l101 -101l-90 -90l-101 101l-100 -101l-90 90l101 100l-102 102l90 90z" />
    <glyph glyph-name="Ucircumflex" unicode="&#xdb;" horiz-adv-x="634" 
d="M574 244q0 -58 -18.5 -105t-52.5 -80t-81.5 -51t-105.5 -18t-105 18t-80.5 51t-52 80t-18.5 105v335h174v-335q0 -38 22.5 -60.5t59.5 -22.5q38 0 60.5 22.5t22.5 60.5v335h175v-335z" />
    <glyph glyph-name="ocircumflex" unicode="&#xf4;" horiz-adv-x="0" 
 />
    <glyph glyph-name="otilde" unicode="&#xf5;" horiz-adv-x="354" 
 />
    <glyph glyph-name="divide" unicode="&#xf7;" horiz-adv-x="461" 
d="M421 275v-127h-381v127h381zM227 14q-23 0 -39 15t-16 38t16 37.5t39 14.5q22 0 38 -14.5t16 -37.5t-16 -38t-38 -15zM227 314q-23 0 -39 15t-16 38t16 37.5t39 14.5q22 0 38 -14.5t16 -37.5t-16 -38t-38 -15z" />
    <glyph glyph-name="florin" unicode="&#x192;" horiz-adv-x="378" 
 />
    <glyph glyph-name="ring" unicode="&#x2da;" horiz-adv-x="294" 
d="M254 408q0 -26 -9 -46t-23.5 -33.5t-33.5 -20.5t-40 -7t-40.5 7t-34.5 20.5t-24 33.5t-9 46t9 46t24 34t34.5 21t40.5 7t40 -7t33.5 -21t23.5 -34t9 -46zM135 408q0 -21 16 -21q6 0 12 5t6 16t-6 16t-12 5q-8 0 -12 -6t-4 -15z" />
    <glyph glyph-name="tilde" unicode="&#x2dc;" horiz-adv-x="522" 
d="M60 162v14q0 24 6 45.5t18.5 38t31.5 26.5t45 10q37 0 113 -36q62 -31 90 -31q31 0 31 64h67v-17q0 -24 -5.5 -45.5t-17.5 -37.5t-31 -25.5t-46 -9.5q-40 0 -114 35q-35 16 -56.5 24.5t-30.5 8.5q-34 0 -36 -64h-65z" />
    <glyph glyph-name="uni05DA" unicode="&#x5da;" horiz-adv-x="771" 
d="M715 186q0 -8 5.5 -11.5t10.5 -3.5h40q17 0 23.5 -23.5t6.5 -61.5q0 -39 -5.5 -62.5t-24.5 -23.5h-52q-22 0 -48 5.5t-43 19.5q-42 -25 -91 -25h-296q-45 0 -84.5 17t-68.5 46t-46 69t-17 85v144h169v-144q0 -19 14 -33t33 -14h290q5 0 11 2.5t6 10.5q0 9 -4 13t-16 13
l-194 144v93l187 185l106 -101l-107 -111q21 -16 41 -30q17 -13 36 -27t33 -25q22 -17 38 -30.5t26.5 -29.5t15.5 -37.5t5 -53.5z" />
    <glyph glyph-name="uni060C" unicode="&#x60c;" horiz-adv-x="322" 
d="M219 118q24 -24 24 -60q0 -19 -7 -35.5t-19.5 -28.5t-29 -19t-35.5 -7t-35.5 7t-29 19t-20 28.5t-7.5 35.5q0 18 7.5 36t23.5 50q3 7 8 17.5t11 23t12 25.5t10 23h130z" />
    <glyph glyph-name="uni061B" unicode="&#x61b;" horiz-adv-x="296" 
d="M140 -12q-33 0 -56.5 23t-23.5 56q0 34 23.5 56t56.5 22t56.5 -22t23.5 -56q0 -33 -23.5 -56t-56.5 -23zM197 331q24 -19 24 -55q0 -34 -23 -56t-56 -22t-57 22t-24 56q0 17 7.5 35t23.5 52q3 6 7 15t9 19t10 20.5t9 19.5h109z" />
    <glyph glyph-name="uni061F" unicode="&#x61f;" horiz-adv-x="430" 
d="M300 438q-39 33 -62 33q-26 0 -44 -19t-18 -45q0 -19 16.5 -38.5t36.5 -40.5q15 -15 29.5 -30.5t26.5 -32.5t19 -37t7 -44v-12h-103v1q0 18 -17.5 38t-39.5 43q-16 17 -32.5 34t-29.5 36.5t-21 41.5t-8 47q0 35 14 66t37 54t53.5 36.5t64.5 13.5q38 0 73.5 -19t67.5 -53z
M259 131q30 0 48 -19.5t18 -46.5q0 -29 -18 -47.5t-48 -18.5q-29 0 -47 18.5t-18 47.5q0 27 18 46.5t47 19.5z" />
    <glyph glyph-name="uni0621" unicode="&#x621;" horiz-adv-x="327" 
d="M82 108q-2 4 -9.5 18t-9.5 20q-9 22 -9.5 44t7.5 42t22.5 35.5t36.5 26.5q11 5 27 9t38 4q18 0 45 -4l-3 -80q-8 0 -24.5 -1t-31 -6.5t-25 -15.5t-5.5 -29q4 -19 27 -19q11 0 17 3l94 42l33 -70q-13 -10 -22.5 -17t-20 -14.5t-24.5 -15t-36 -17.5q-35 -16 -70 -31.5
t-69 -31.5l-40 86z" />
    <glyph glyph-name="uni0622" unicode="&#x622;" horiz-adv-x="333" 
d="M308 579h-183q-7 0 -15 -0.5t-13 -4.5q-2 -2 -5 -4t-11 -22l-106 38q35 78 62 93q18 10 49 11h222v-111zM122 0v529h171v-529h-171z" />
    <glyph glyph-name="uni0623" unicode="&#x623;" horiz-adv-x="224" 
d="M25 0v550h171v-550h-171zM66 632q-2 2 -6 10.5t-6 11.5q-11 24 -1 49.5t34 36.5q8 3 16.5 5t21.5 2h12t14 -2l-1 -46q-4 0 -13.5 -0.5t-18.5 -3.5t-15 -9.5t-3 -17.5q2 -11 16 -11q3 0 9 2l55 25l19 -42q-7 -5 -13 -9.5t-12 -8.5t-14 -8.5t-21 -10.5l-81 -36l-23 49z" />
    <glyph glyph-name="uni0624" unicode="&#x624;" horiz-adv-x="425" 
d="M207 0q-40 0 -75.5 16t-61 42.5t-40.5 61.5t-15 73q0 39 15 74t40.5 61.5t61 42.5t75.5 16q41 0 76 -15.5t61 -42.5t41 -62t15 -74v-134q0 -66 -21.5 -111.5t-59.5 -77.5q-29 -25 -66 -39t-68 -23q-3 -1 -15.5 -5t-26 -8.5t-25 -8t-13.5 -4.5l-47 154q2 1 13 5t23.5 8.5
t24 8.5t13.5 5q5 1 16.5 6t24.5 10.5t24.5 11t15.5 9.5h-6zM150 468q-2 2 -6 10.5t-6 11.5q-11 24 -1 49.5t34 36.5q8 3 16.5 5t21.5 2h12t14 -2l-1 -46q-4 0 -13.5 -0.5t-18.5 -3.5t-15 -9.5t-3 -17.5q2 -11 16 -11q3 0 9 2l55 25l19 -42q-7 -5 -13 -9.5t-12 -8.5t-14 -8.5
t-21 -10.5l-81 -36l-23 49zM178 193q0 -11 9 -19.5t20 -8.5h30v28q0 13 -8.5 21.5t-21.5 8.5q-11 0 -20 -8.5t-9 -21.5z" />
    <glyph glyph-name="uni0625" unicode="&#x625;" horiz-adv-x="222" 
d="M25 0v550h171v-550h-171zM64 -148q-2 2 -6 10.5t-6 11.5q-11 24 -1 49.5t34 36.5q8 3 16.5 5t21.5 2h12t14 -2l-1 -46q-4 0 -13.5 -0.5t-18.5 -3.5t-15 -9.5t-3 -17.5q2 -11 16 -11q3 0 9 2l55 25l19 -42q-7 -5 -13 -9.5t-12 -8.5t-14 -8.5t-21 -10.5l-81 -36l-23 49z
" />
    <glyph glyph-name="uni0626" unicode="&#x626;" horiz-adv-x="653" 
d="M372 213q17 -4 40.5 -9.5t44.5 -10.5q25 -6 51 -13q59 -17 94.5 -62.5t35.5 -106.5q0 -38 -14.5 -71t-39 -57.5t-57.5 -38.5t-70 -14h-229q-42 0 -78.5 16t-64.5 44t-44 65t-16 79v223h157v-224q0 -14 9 -23.5t23 -9.5h243q11 0 11 11q0 4 -0.5 15t-2.5 11l-220 56v129
q0 44 17 78.5t43.5 59.5t58.5 38t62 13h136v-170h-165q-11 0 -16.5 -4t-7.5 -9.5t-1.5 -10zM81 343q-2 2 -6 10.5t-6 11.5q-11 24 -1 49.5t34 36.5q8 3 16.5 5t21.5 2h12t14 -2l-1 -46q-4 0 -13.5 -0.5t-18.5 -3.5t-15 -9.5t-3 -17.5q2 -11 16 -11q3 0 9 2l55 25l19 -42
q-7 -5 -13 -9.5t-12 -8.5t-14 -8.5t-21 -10.5l-81 -36l-23 49z" />
    <glyph glyph-name="uni0627" unicode="&#x627;" horiz-adv-x="221" 
d="M25 0v550h171v-550h-171z" />
    <glyph glyph-name="uni0628" unicode="&#x628;" horiz-adv-x="748" 
d="M723 363v-145q0 -45 -17 -84.5t-47 -69.5t-69.5 -47t-84.5 -17h-262q-45 0 -84.5 17t-69.5 47t-47 69.5t-17 84.5v145h169v-145q0 -20 14.5 -33.5t34.5 -13.5h262q20 0 34.5 13.5t14.5 33.5v145h169zM314 -88h126v-126h-126v126z" />
    <glyph glyph-name="uni0629" unicode="&#x629;" horiz-adv-x="417" 
d="M346 319q29 -29 42.5 -64.5t13.5 -72.5q0 -40 -15 -75t-41.5 -61t-61.5 -41t-75 -15t-75 15t-61.5 41t-42 61t-15.5 75q0 38 14.5 73.5t42.5 64.5l18 17l-25 25l120 117zM232 163q8 8 7.5 20t-8.5 20l-21 21l-20 -19q-9 -9 -9 -21.5t9 -21.5q10 -8 21 -8q12 0 21 9z
M60 519v127h279v-127h-279z" />
    <glyph glyph-name="uni062A" unicode="&#x62a;" horiz-adv-x="748" 
d="M723 363v-145q0 -45 -17 -84.5t-47 -69.5t-69.5 -47t-84.5 -17h-262q-45 0 -84.5 17t-69.5 47t-47 69.5t-17 84.5v145h169v-145q0 -20 14.5 -33.5t34.5 -13.5h262q20 0 34.5 13.5t14.5 33.5v145h169zM237 363v127h279v-127h-279z" />
    <glyph glyph-name="uni062B" unicode="&#x62b;" horiz-adv-x="748" 
d="M723 363v-145q0 -45 -17 -84.5t-47 -69.5t-69.5 -47t-84.5 -17h-262q-45 0 -84.5 17t-69.5 47t-47 69.5t-17 84.5v145h169v-145q0 -20 14.5 -33.5t34.5 -13.5h262q20 0 34.5 13.5t14.5 33.5v145h169zM234 366v126h74v105h126v-105h79v-126h-279z" />
    <glyph glyph-name="uni062C" unicode="&#x62c;" horiz-adv-x="597" 
d="M448 156q-58 -50 -110.5 -106.5t-111.5 -105.5q-10 -11 -16.5 -21t-7.5 -22q1 -20 15.5 -34t35.5 -14h264v-162l-265 -8q-45 0 -85 17t-69.5 46.5t-47 69t-17.5 85.5q0 51 21.5 94.5t56.5 73.5l170 140l-46 16q-5 2 -10.5 3.5t-13.5 1.5q-15 0 -33.5 -15t-57.5 -53
l-100 59q48 85 102.5 129.5t117.5 44.5q48 0 93 -21l119 -56q2 -1 16 -5t33 -4h81v-153h-134zM391 36h126v-126h-126v126z" />
    <glyph glyph-name="uni062D" unicode="&#x62d;" horiz-adv-x="597" 
d="M448 156q-58 -50 -110.5 -106.5t-111.5 -105.5q-10 -11 -16.5 -21t-7.5 -22q1 -20 15.5 -34t35.5 -14h264v-162l-265 -8q-45 0 -85 17t-69.5 46.5t-47 69t-17.5 85.5q0 51 21.5 94.5t56.5 73.5l170 140l-46 16q-5 2 -10.5 3.5t-13.5 1.5q-15 0 -33.5 -15t-57.5 -53
l-100 59q48 85 102.5 129.5t117.5 44.5q48 0 93 -21l119 -56q2 -1 16 -5t33 -4h81v-153h-134z" />
    <glyph glyph-name="uni062E" unicode="&#x62e;" horiz-adv-x="597" 
d="M448 156q-58 -50 -110.5 -106.5t-111.5 -105.5q-10 -11 -16.5 -21t-7.5 -22q1 -20 15.5 -34t35.5 -14h264v-162l-265 -8q-45 0 -85 17t-69.5 46.5t-47 69t-17.5 85.5q0 51 21.5 94.5t56.5 73.5l170 140l-46 16q-5 2 -10.5 3.5t-13.5 1.5q-15 0 -33.5 -15t-57.5 -53
l-100 59q48 85 102.5 129.5t117.5 44.5q48 0 93 -21l119 -56q2 -1 16 -5t33 -4h81v-153h-134zM177 626h126v-126h-126v126z" />
    <glyph glyph-name="uni062F" unicode="&#x62f;" horiz-adv-x="431" 
d="M356 314q21 -16 32 -37t16.5 -41t6 -36t0.5 -22q0 -34 -13.5 -66.5t-37.5 -57t-56.5 -39.5t-69.5 -15h-214v170h220q5 1 6.5 5.5t-3.5 8.5l-191 133l92 140z" />
    <glyph glyph-name="uni0630" unicode="&#x630;" horiz-adv-x="436" 
d="M361 314q21 -16 32 -37t16.5 -41t6 -36t0.5 -22q0 -34 -13.5 -66.5t-37.5 -57t-56.5 -39.5t-69.5 -15h-214v168h220q5 1 6.5 6.5t-3.5 9.5l-191 133l92 140zM37 626h126v-126h-126v126z" />
    <glyph glyph-name="uni0631" unicode="&#x631;" horiz-adv-x="317" 
d="M292 297v-274q-8 -98 -61 -160.5t-145 -91.5l-57 -18l-44 154l48 19q35 14 61 35.5t26 63.5v272h172z" />
    <glyph glyph-name="uni0632" unicode="&#x632;" horiz-adv-x="317" 
d="M292 297v-274q-8 -98 -61 -160.5t-145 -91.5l-57 -18l-44 154l48 19q35 14 61 35.5t26 63.5v272h172zM137 554h126v-126h-126v126z" />
    <glyph glyph-name="uni0633" unicode="&#x633;" horiz-adv-x="1031" 
d="M1006 0h-216q-54 0 -96 28q-10 -7 -27.5 -12t-36.5 -8.5t-37.5 -5.5t-31.5 -2q-20 0 -37 3q-16 -34 -40 -61.5t-55 -47.5t-67 -31t-75 -11q-55 0 -103 20.5t-83 56.5t-55.5 84t-20.5 102v173h169v-173q0 -40 27 -67.5t66 -27.5q19 0 35.5 7.5t29 20t20 30t7.5 37.5v225
h171v-157q0 -7 8 -11t22 -4q28 0 28 15v157h169v-157q0 -5 4 -9.5t9 -4.5h45v194h171v-363z" />
    <glyph glyph-name="uni0634" unicode="&#x634;" horiz-adv-x="1031" 
d="M1006 0h-217q-55 0 -95 28q-10 -7 -27.5 -12t-36.5 -8.5t-37.5 -5.5t-31.5 -2q-20 0 -37 3q-16 -34 -40.5 -61.5t-55 -47.5t-66.5 -31t-75 -11q-55 0 -103 20.5t-83.5 56.5t-55.5 84t-20 102v173h169v-173q0 -40 27 -67.5t66 -27.5q38 0 64.5 27.5t26.5 67.5v226h171
v-158q0 -7 8.5 -11t22.5 -4q28 0 28 15v158h169v-158q0 -5 3.5 -9.5t8.5 -4.5h46v194h171v-363zM560 428v126h74v105h126v-105h79v-126h-279z" />
    <glyph glyph-name="uni0635" unicode="&#x635;" horiz-adv-x="972" 
d="M747 400q35 0 71 -14.5t64.5 -41.5t46.5 -65t18 -86q0 -39 -15.5 -74.5t-41.5 -61.5t-61.5 -41.5t-74.5 -15.5h-194q-22 0 -45 5q-35 -59 -95 -95t-134 -36q-54 0 -101.5 20.5t-83 56.5t-56 84t-20.5 102v174h169v-174q0 -19 7.5 -36t20 -29.5t29 -19.5t35.5 -7
q39 0 66.5 26.5t27.5 65.5v246h169v-45q28 11 50 22t44.5 20t47 14.5t56.5 5.5zM754 171q14 0 18.5 9.5t4.5 20.5q1 11 -7 22t-22 11h-4q-16 -2 -39 -6t-49.5 -9t-54.5 -10.5t-52 -10.5v-17q0 -10 11 -10h194z" />
    <glyph glyph-name="uni0636" unicode="&#x636;" horiz-adv-x="962" 
d="M747 400q35 0 71 -14.5t64.5 -41.5t46.5 -65t18 -86q0 -39 -15.5 -74.5t-41.5 -61.5t-61.5 -41.5t-74.5 -15.5h-194q-22 0 -45 5q-35 -59 -95 -95t-134 -36q-54 0 -101.5 20.5t-83 56.5t-56 84t-20.5 102v174h169v-174q0 -19 7.5 -36t20 -29.5t29 -19.5t35.5 -7
q39 0 66.5 26.5t27.5 65.5v246h169v-45q28 11 50 22t44.5 20t47 14.5t56.5 5.5zM754 171q14 0 18.5 9.5t4.5 20.5q1 11 -7 22t-22 11h-4q-32 -5 -83.5 -13.5t-111.5 -19.5v-20q0 -10 11 -10h194zM688 626h126v-126h-126v126z" />
    <glyph glyph-name="uni0637" unicode="&#x637;" horiz-adv-x="619" 
d="M158 291v259h169v-150q17 6 34 7.5t34 1.5q49 0 88 -17.5t66 -46t41 -65.5t14 -76q0 -43 -15.5 -80.5t-43 -65t-65 -43t-80.5 -15.5h-380v171h1l125 98q6 5 9 9.5t3 12.5zM436 211q0 20 -11.5 30t-27.5 10q-15 0 -32 -10l-110 -70h145q15 0 26.5 8.5t9.5 31.5z" />
    <glyph glyph-name="uni0638" unicode="&#x638;" horiz-adv-x="619" 
d="M158 291v289h169v-180q17 6 34 7.5t34 1.5q49 0 88 -17.5t66 -46t41 -65.5t14 -76q0 -43 -15.5 -80.5t-43 -65t-65 -43t-80.5 -15.5h-380v171h1l125 98q6 5 9 9.5t3 12.5zM436 211q0 20 -11.5 30t-27.5 10q-15 0 -32 -10l-110 -70h145q15 0 26.5 8.5t9.5 31.5zM394 583
h113v-113h-113v113z" />
    <glyph glyph-name="uni0639" unicode="&#x639;" horiz-adv-x="448" 
d="M266 0q-32 0 -55 -23t-23 -56q0 -32 23 -54.5t55 -22.5h167v-160l-165 -8q-52 0 -97.5 19t-79 52.5t-52.5 78t-19 95.5q0 47 15 87.5t43 72.5q-20 26 -31 58.5t-11 65.5q0 43 16 80t43.5 64t64.5 42.5t80 15.5h103v-155h-99q-21 -2 -29 -10.5t-9 -25.5q-2 -20 8.5 -32.5
t25.5 -12.5h148v-171h-122z" />
    <glyph glyph-name="uni063A" unicode="&#x63a;" horiz-adv-x="448" 
d="M266 0q-32 0 -55 -23t-23 -56q0 -32 23 -54.5t55 -22.5h167v-160l-165 -8q-52 0 -97.5 19t-79 52.5t-52.5 78t-19 95.5q0 47 15 87.5t43 72.5q-20 26 -31 58.5t-11 65.5q0 43 16 80t43.5 64t64.5 42.5t80 15.5h103v-155h-99q-21 -2 -29 -10.5t-9 -25.5q-2 -20 8.5 -32.5
t25.5 -12.5h148v-171h-122zM159 596h126v-126h-126v126z" />
    <glyph glyph-name="uni0640" unicode="&#x640;" horiz-adv-x="104" 
d="M0 0q-18 0 -23.5 23.5t-5.5 62.5q0 38 6.5 61.5t22.5 23.5h104q16 0 22.5 -23.5t6.5 -61.5q0 -39 -5.5 -62.5t-23.5 -23.5h-104z" />
    <glyph glyph-name="uni0641" unicode="&#x641;" horiz-adv-x="708" 
d="M358 171q-9 16 -13.5 37t-4.5 41q0 36 13.5 67.5t36.5 55.5t55 37.5t68 13.5t68 -13.5t55.5 -37.5t37.5 -55.5t14 -67.5v-61q0 -40 -15 -74.5t-40.5 -59.5t-60 -39.5t-72.5 -14.5h-259q-44 0 -83 17.5t-68.5 47t-47 69t-17.5 83.5v147h169v-146q0 -19 14 -32.5t33 -14.5
h117zM483 248q0 -11 9 -19.5t20 -8.5h30v28q0 13 -8.5 21.5t-21.5 8.5q-11 0 -20 -8.5t-9 -21.5zM454 613h113v-113h-113v113z" />
    <glyph glyph-name="uni0642" unicode="&#x642;" horiz-adv-x="634" 
d="M421 0q-40 0 -75.5 16t-61 42.5t-40.5 61.5t-15 73t15 73.5t40.5 62.5t61 43.5t75.5 16.5q41 0 76 -16t61 -43t41 -62.5t15 -74.5v-133q0 -62 -23 -116t-63 -94.5t-93.5 -63.5t-114.5 -23t-115 23t-94 63t-63 94t-23 116v196h168v-196q0 -26 10 -49.5t27.5 -41
t40.5 -27.5t49 -10q37 0 66 19t45 50h-10zM393 193q0 -11 9 -19.5t20 -8.5h30v28q0 13 -8.5 21.5t-21.5 8.5q-11 0 -20 -8.5t-9 -21.5zM274 454v127h279v-127h-279z" />
    <glyph glyph-name="uni0643" unicode="&#x643;" horiz-adv-x="744" 
d="M719 551v-334q0 -45 -17 -84.5t-46.5 -69t-69 -46.5t-84.5 -17h-261q-45 0 -84.5 17t-68.5 46.5t-46 69t-17 84.5v144h168v-144q0 -20 14 -33.5t34 -13.5h261q20 0 34.5 13.5t14.5 33.5v334h168zM325 268q-2 2 -6 10.5t-6 11.5q-11 24 -1 49.5t34 36.5q8 3 16.5 5t21.5 2
h12t14 -2l-1 -46q-4 0 -13.5 -0.5t-18.5 -3.5t-15 -9.5t-3 -17.5q2 -11 16 -11q3 0 9 2l55 25l19 -42q-7 -5 -13 -9.5t-12 -8.5t-14 -8.5t-21 -10.5l-81 -36l-23 49z" />
    <glyph glyph-name="uni0644" unicode="&#x644;" horiz-adv-x="577" 
d="M533 -53q-19 -43 -51.5 -75.5t-76.5 -51.5t-93 -19q-11 0 -22 1q-54 0 -102 19.5t-84.5 54t-57.5 81.5t-21 102v178h171v-173q0 -19 7 -36t19.5 -29.5t29.5 -19.5t36 -7t35.5 7t29 19.5t20 29.5t7.5 36v486h172v-509q0 -50 -19 -94z" />
    <glyph glyph-name="uni0645" unicode="&#x645;" horiz-adv-x="637" 
d="M425 235q-16 -2 -26 -12t-10 -26q0 -15 10 -25.5t26 -10.5t27 10.5t11 25.5q0 16 -10.5 26t-26.5 12h-1zM207 235q-10 0 -16.5 -6.5t-6.5 -16.5v-405h-159v405q0 38 14 71t39 58t58 39t71 14h226q40 -2 74.5 -18t60 -42.5t40 -61.5t14.5 -75t-16 -75.5t-43 -62.5
t-62.5 -43t-75.5 -16h-2q-40 3 -75.5 18.5t-62.5 41t-42.5 60.5t-15.5 77q0 11 1.5 21.5t3.5 16.5h-25z" />
    <glyph glyph-name="uni0646" unicode="&#x646;" horiz-adv-x="576" 
d="M25 174h171v-110q0 -19 7 -36t19.5 -29.5t29.5 -19.5t36 -7t35.5 7t29 19.5t20 29.5t7.5 36v173h171v-173q0 -54 -21 -102t-56.5 -83.5t-83.5 -56t-102 -20.5t-101.5 20t-83.5 54.5t-57 81.5t-21 101v115zM208 363h126v-126h-126v126z" />
    <glyph glyph-name="uni0647" unicode="&#x647;" horiz-adv-x="417" 
d="M346 319q29 -29 42.5 -64.5t13.5 -72.5q0 -40 -15 -75t-41.5 -61t-61.5 -41t-75 -15t-75 15t-61.5 41t-42 61t-15.5 75q0 38 14.5 73.5t42.5 64.5l18 17l-25 25l120 117zM232 163q8 8 7.5 20t-8.5 20l-21 21l-20 -19q-9 -9 -9 -21.5t9 -21.5q10 -8 21 -8q12 0 21 9z" />
    <glyph glyph-name="uni0648" unicode="&#x648;" horiz-adv-x="425" 
d="M178 193q0 -11 9 -19.5t20 -8.5h30v28q0 13 -8.5 21.5t-21.5 8.5q-11 0 -20 -8.5t-9 -21.5zM207 0q-40 0 -75.5 16t-61 42.5t-40.5 61.5t-15 73q0 39 15 74t40.5 61.5t61 42.5t75.5 16q41 0 76 -15.5t61 -42.5t41 -62t15 -74v-134q0 -66 -21.5 -111.5t-59.5 -77.5
q-29 -25 -66 -39t-68 -23q-3 -1 -15.5 -5t-26 -8.5t-25 -8t-13.5 -4.5l-47 154q2 1 13 5t23.5 8.5t24 8.5t13.5 5q5 1 16.5 6t24.5 10.5t24.5 11t15.5 9.5h-6z" />
    <glyph glyph-name="uni0649" unicode="&#x649;" horiz-adv-x="653" 
d="M372 213q17 -4 40.5 -9.5t44.5 -10.5q25 -6 51 -13q59 -17 94.5 -62.5t35.5 -106.5q0 -38 -14.5 -71t-39 -57.5t-57.5 -38.5t-70 -14h-229q-42 0 -78.5 16t-64.5 44t-44 65t-16 79v223h157v-224q0 -14 9 -23.5t23 -9.5h243q11 0 11 11q0 4 -0.5 15t-2.5 11l-220 56v129
q0 44 17 78.5t43.5 59.5t58.5 38t62 13h136v-170h-165q-11 0 -16.5 -4t-7.5 -9.5t-1.5 -10z" />
    <glyph glyph-name="uni064A" unicode="&#x64a;" horiz-adv-x="653" 
d="M372 213q34 -8 68.5 -15.5t67.5 -17.5q60 -17 95 -62.5t35 -106.5q0 -38 -14.5 -71t-39 -57.5t-57.5 -38.5t-70 -14h-229q-42 0 -78.5 16t-64.5 44t-44 65t-16 79v223h157v-224q0 -14 9 -23.5t23 -9.5h241q11 0 11 11v26l-221 56v129q0 44 17 78.5t43.5 59.5t58.5 38
t62 13h136v-170h-165q-11 0 -16.5 -4.5t-7.5 -9.5t-1.5 -9.5zM187 -366v127h279v-127h-279z" />
    <glyph glyph-name="uni064B" unicode="&#x64b;" horiz-adv-x="232" 
d="M172 775l-126 -97l-46 71l131 83zM232 689l-126 -97l-46 71l131 83z" />
    <glyph glyph-name="uni064C" unicode="&#x64c;" horiz-adv-x="250" 
d="M49 668q6 8 0 14q-4 3 -8 3q-5 0 -8.5 -2.5t-7.5 -5.5l-25 58q15 12 37 15q23 0 38 -15t23 -35l24 17l-7 10q-11 12 -13 24.5t-1 29.5q1 14 8 26t17.5 20.5t23 13t24.5 4.5q13 0 26.5 -4.5t24.5 -13t18 -21t7 -29.5q0 -30 -13 -48t-25 -26q-37 -29 -74 -56.5t-75 -54.5
l-40 57zM181 760q4 2 4 6v6q0 12 -14 12t-14 -13q0 -6 3.5 -11t8.5 -8z" />
    <glyph glyph-name="uni064D" unicode="&#x64d;" horiz-adv-x="232" 
d="M172 -99l-126 -97l-46 71l131 83zM232 -185l-126 -97l-46 71l131 83z" />
    <glyph glyph-name="uni064E" unicode="&#x64e;" horiz-adv-x="210" 
d="M210 711l-154 -118l-56 86l159 102z" />
    <glyph glyph-name="uni064F" unicode="&#x64f;" horiz-adv-x="195" 
d="M44 593l-44 58l52 34l-9 11q-11 14 -15 30.5t-2 32.5q5 32 29 51.5t55 19.5h6.5t6.5 -1q34 -5 55 -32.5t16 -62.5q-2 -15 -10.5 -30t-22.5 -26zM119 730q10 10 10 19q1 11 -6.5 17t-15.5 6q-10 0 -17 -5t-7 -16t4 -16l14 -20z" />
    <glyph glyph-name="uni0650" unicode="&#x650;" horiz-adv-x="210" 
d="M210 -109l-154 -118l-56 86l159 102z" />
    <glyph glyph-name="uni0651" unicode="&#x651;" 
d="M168 593q-12 0 -23 3t-19 11q-11 -8 -22 -11t-23 -3q-34 0 -57.5 22t-23.5 56v60h71v-60q0 -3 3 -6t7 -3q3 0 6 3t3 6v50h69v-50q0 -3 2.5 -6t6.5 -3t7 3t3 6v64h71v-64q0 -34 -23.5 -56t-57.5 -22z" />
    <glyph glyph-name="uni0652" unicode="&#x652;" horiz-adv-x="156" 
d="M156 672q0 -33 -23 -56t-55 -23t-55 23t-23 56q0 15 6.5 29t17.5 24.5t25 17t29 6.5q31 0 54.5 -23t23.5 -54zM111 673q0 13 -8.5 21.5t-25.5 8.5q-12 0 -22 -9.5t-10 -21.5q0 -15 9.5 -24.5t23.5 -9.5q13 0 23 9q10 7 10 26z" />
    <glyph glyph-name="uni0653" unicode="&#x653;" horiz-adv-x="279" 
d="M279 647h-132q-11 0 -22.5 -1.5t-20.5 -9.5q-13 -13 -25 -43l-79 30q31 67 54 82q17 16 43.5 20.5t49.5 4.5h132v-83z" />
    <glyph glyph-name="uni0654" unicode="&#x654;" horiz-adv-x="164" 
d="M31 656q-2 2 -6 10.5t-6 11.5q-11 24 -1 49.5t34 36.5q8 3 16.5 5t21.5 2h12t14 -2l-1 -46q-4 0 -13.5 -0.5t-18.5 -3.5t-15 -9.5t-3 -17.5q2 -11 16 -11q3 0 9 2l55 25l19 -42q-7 -5 -13 -9.5t-12 -8.5t-14 -8.5t-21 -10.5l-81 -36l-23 49z" />
    <glyph glyph-name="uni0655" unicode="&#x655;" horiz-adv-x="164" 
d="M30 -154q-2 2 -6 10.5t-6 11.5q-11 24 -1 49.5t34 36.5q8 3 16.5 5t21.5 2h12t14 -2l-1 -46q-4 0 -13.5 -0.5t-18.5 -3.5t-15 -9.5t-3 -17.5q2 -11 16 -11q3 0 9 2l55 25l19 -42q-7 -5 -13 -9.5t-12 -8.5t-14 -8.5t-21 -10.5l-81 -36l-23 49z" />
    <glyph glyph-name="uni0656" unicode="&#x656;" horiz-adv-x="79" 
d="M79 -39v-166h-79v166h79z" />
    <glyph glyph-name="uni0660" unicode="&#x660;" horiz-adv-x="351" 
d="M174 282q43 0 72.5 -28t29.5 -71t-29.5 -72.5t-72.5 -29.5t-71 29.5t-28 72.5t28 71t71 28z" />
    <glyph glyph-name="uni0661" unicode="&#x661;" horiz-adv-x="299" 
d="M239 -59h-168v382q0 19 -7.5 40.5t-23.5 43.5l106 90q23 -16 40.5 -39t29 -47.5t17.5 -47.5t6 -40v-382z" />
    <glyph glyph-name="uni0662" unicode="&#x662;" horiz-adv-x="559" 
d="M519 504v-142q0 -45 -17 -84.5t-47 -69.5t-69.5 -47t-84.5 -17h-14q-12 0 -23.5 1.5t-22.5 3.5v-208h-169v382q0 19 -8.5 40.5t-23.5 44.5l122 118q16 -22 28.5 -40.5t21.5 -36.5t16 -38.5t11 -47.5q1 -7 5 -15.5t10.5 -16t15 -12.5t17.5 -5h14q19 0 33 14t14 34v142h171
z" />
    <glyph glyph-name="uni0663" unicode="&#x663;" horiz-adv-x="672" 
d="M632 323q0 -38 -14.5 -71t-39 -58t-57.5 -39t-70 -14q-27 0 -52.5 7t-45.5 20q-42 -27 -97 -27h-13v-202h-169v379q0 9 -3.5 21.5t-8.5 25.5t-11 25t-11 20l119 116q19 -25 34.5 -47.5t26.5 -45.5t17 -49.5t6 -60.5q0 -14 13 -14t13 14v161h168v-161q0 -14 14 -14
q4 0 7.5 4t3.5 10v179h170v-179z" />
    <glyph glyph-name="uni0664" unicode="&#x664;" horiz-adv-x="477" 
d="M234 -94q-40 0 -75 15.5t-61.5 41.5t-42 60.5t-15.5 73.5q0 34 12 65t31 54q-15 24 -23.5 50.5t-8.5 55.5q0 40 15 74.5t41 60.5t61 41t75 15h139v-171h-139q-9 0 -18.5 -8t-9.5 -23q0 -14 9.5 -21.5t18.5 -7.5h36h53.5t48.5 0.5t22 0.5l14 -114l-188 -49
q-7 -4 -11.5 -10t-4.5 -13q0 -8 6 -13t15 -5h213v-173h-213z" />
    <glyph glyph-name="uni0665" unicode="&#x665;" horiz-adv-x="578" 
d="M548 142q0 -64 -22 -109t-53.5 -73t-67 -41t-62.5 -13h-108q-37 0 -74 16t-66 46t-47 73t-18 97q0 44 12.5 77.5t32.5 62.5t45 55t50 54q-4 5 -10.5 11.5l-14 14t-14 13.5t-9.5 9l111 117q59 -58 119 -113q32 -30 66.5 -62t63 -68t47.5 -77t19 -90zM336 74
q16 0 30.5 12.5t14.5 51.5q0 21 -9.5 39t-23.5 34t-30 30t-29 27q-12 -14 -28.5 -28.5t-31.5 -30.5t-25 -35.5t-10 -43.5q0 -29 16 -42.5t36 -13.5h90z" />
    <glyph glyph-name="uni0666" unicode="&#x666;" horiz-adv-x="558" 
d="M30 506q37 -6 72 -10q30 -5 62.5 -8t55.5 -3q30 0 70 1.5t77 3.5t64 3.5t30 1.5l1 -368q0 -22 15 -55.5t41 -71.5l-137 -59q-16 15 -31.5 37t-28 47t-20 51.5t-7.5 50.5v193q-2 0 -10.5 -0.5t-19.5 -1t-22.5 -1t-20.5 -0.5q-26 0 -59.5 3t-62.5 7q-34 4 -69 9v170z" />
    <glyph glyph-name="uni0667" unicode="&#x667;" horiz-adv-x="481" 
d="M363 494l98 -105q-11 -15 -21 -29l-16 -26t-11 -24l-110 -368h-123l-110 368q-6 20 -18 42t-32 39l73 102q16 -12 31 -24q13 -11 26.5 -22.5t21.5 -20.5q17 -19 28.5 -49t19 -63.5t12.5 -66t10 -55.5q7 24 15 57t17 66.5t17.5 63t15.5 46.5q8 19 17.5 32t18.5 21
q10 10 20 16z" />
    <glyph glyph-name="uni0668" unicode="&#x668;" horiz-adv-x="481" 
d="M363 -58q-10 6 -20 16q-9 8 -18.5 21t-17.5 32q-7 17 -15.5 46.5t-17.5 63t-17 66.5t-15 57q-5 -23 -10 -55.5t-12.5 -66t-19 -63.5t-28.5 -49q-8 -9 -21.5 -20.5t-26.5 -22.5q-15 -12 -31 -24l-73 102q20 17 32 39t18 42l110 368h123l110 -368q3 -11 11 -24l16 -26
q10 -14 21 -29z" />
    <glyph glyph-name="uni0669" unicode="&#x669;" horiz-adv-x="499" 
d="M417 117q0 -32 14 -55t28 -40q0 -3 -20 -17t-43 -30q-28 -18 -64 -40q-12 7 -22 15q-9 7 -17.5 16t-13.5 19q-7 15 -13 33.5t-9.5 39t-5.5 41t-2 38.5v1h-26q-39 0 -74.5 15t-61.5 41t-41.5 61.5t-15.5 76.5q0 39 15.5 74.5t41.5 61.5t61.5 41.5t74.5 15.5
q41 0 76.5 -15.5t61.5 -41.5t41 -61.5t15 -74.5v-215zM250 301v31q0 11 -9 19t-22 8q-11 0 -19.5 -8t-8.5 -19q0 -14 8.5 -22.5t19.5 -8.5h31z" />
    <glyph glyph-name="uni066A" unicode="&#x66a;" horiz-adv-x="507" 
d="M158 -62l-79 115l288 544l55 -159zM375 -8q-30 0 -51.5 20.5t-21.5 50.5t21.5 49.5t51.5 19.5q29 0 50.5 -19.5t21.5 -49.5t-21.5 -50.5t-50.5 -20.5zM133 327q-30 0 -51.5 20.5t-21.5 50.5t21.5 49.5t51.5 19.5q29 0 50.5 -19.5t21.5 -49.5t-21.5 -50.5t-50.5 -20.5z
" />
    <glyph glyph-name="uni066B" unicode="&#x66b;" horiz-adv-x="322" 
d="M103 13q-24 24 -24 60q0 19 7 35.5t19.5 28.5t29 18.5t35.5 6.5t35.5 -6.5t29 -18.5t20 -28.5t7.5 -35.5q0 -18 -7 -36.5t-24 -50.5q-3 -7 -8 -17.5t-11 -23t-11.5 -25t-10.5 -22.5h-130z" />
    <glyph glyph-name="uni0670" unicode="&#x670;" horiz-adv-x="79" 
d="M79 758v-166h-79v166h79z" />
    <glyph glyph-name="uni0671" unicode="&#x671;" horiz-adv-x="238" 
 />
    <glyph glyph-name="uni0674" unicode="&#x674;" horiz-adv-x="215" 
 />
    <glyph glyph-name="uni067E" unicode="&#x67e;" horiz-adv-x="748" 
d="M723 363v-145q0 -45 -17 -84.5t-47 -69.5t-69.5 -47t-84.5 -17h-262q-45 0 -84.5 17t-69.5 47t-47 69.5t-17 84.5v145h169v-145q0 -20 14.5 -33.5t34.5 -13.5h262q20 0 34.5 13.5t14.5 33.5v145h169zM494 -89v-126h-74v-105h-126v105h-79v126h279z" />
    <glyph glyph-name="uni0686" unicode="&#x686;" horiz-adv-x="597" 
d="M448 156q-58 -50 -110.5 -106.5t-111.5 -105.5q-10 -11 -16.5 -21t-7.5 -22q1 -20 15.5 -34t35.5 -14h144v-162l-145 -8q-45 0 -85 17t-69.5 46.5t-47 69t-17.5 85.5q0 51 21.5 94.5t56.5 73.5l170 140l-46 16q-5 2 -10.5 3.5t-13.5 1.5q-15 0 -33.5 -15t-57.5 -53
l-100 59q48 85 102.5 129.5t117.5 44.5q48 0 93 -21l119 -56q2 -1 16 -5t33 -4h81v-153h-134zM573 11v-95h-56v-79h-95v79h-59v95h210z" />
    <glyph glyph-name="uni0698" unicode="&#x698;" horiz-adv-x="336" 
d="M292 297v-274q-8 -98 -61 -160.5t-145 -91.5l-57 -18l-44 154l48 19q35 14 61 35.5t26 63.5v272h172zM36 366v126h74v105h126v-105h79v-126h-279z" />
    <glyph glyph-name="uni06A4" unicode="&#x6a4;" horiz-adv-x="703" 
d="M358 171q-9 16 -13.5 37t-4.5 41q0 36 13.5 67.5t36.5 55.5t55 37.5t68 13.5t68 -13.5t55.5 -37.5t37.5 -55.5t14 -67.5v-61q0 -40 -15 -74.5t-40.5 -59.5t-60 -39.5t-72.5 -14.5h-259q-44 0 -83 17.5t-68.5 47t-47 69t-17.5 83.5v147h169v-146q0 -19 14 -32.5t33 -14.5
h117zM481 248q0 -11 9 -19.5t20 -8.5h30v28q0 13 -8.5 21.5t-21.5 8.5q-11 0 -20 -8.5t-9 -21.5zM358 501v126h74v105h126v-105h79v-126h-279z" />
    <glyph glyph-name="uni06A9" unicode="&#x6a9;" horiz-adv-x="730" 
d="M334 353v93l187 185l106 -101l-107 -111q21 -16 41 -30q17 -13 36 -27t33 -25q22 -17 38 -31.5t26.5 -31.5t15.5 -39t5 -54q0 -37 -13.5 -70t-37.5 -58t-56.5 -39t-70.5 -14h-296q-45 0 -84.5 17t-68.5 46t-46 69t-17 85v144h169v-144q0 -19 14 -33t33 -14h290
q5 0 11 2.5t6 10.5q0 9 -4 13t-16 13z" />
    <glyph glyph-name="uni06AF" unicode="&#x6af;" horiz-adv-x="730" 
d="M548 183q0 9 -4 13t-16 13l-194 144v93l-55 53l138 138l54 -55l50 49l106 -101l-107 -111q21 -16 41 -30q17 -13 36 -27t33 -25q22 -17 38 -31.5t26.5 -31.5t15.5 -39t5 -54q0 -37 -13.5 -70t-37.5 -58t-56.5 -39t-70.5 -14h-296q-45 0 -84.5 17t-68.5 46t-46 69t-17 85
v144h169v-144q0 -19 14 -33t33 -14h290q5 0 11 2.5t6 10.5z" />
    <glyph glyph-name="uni06C0" unicode="&#x6c0;" horiz-adv-x="417" 
d="M346 319q29 -29 42.5 -64.5t13.5 -72.5q0 -40 -15 -75t-41.5 -61t-61.5 -41t-75 -15t-75 15t-61.5 41t-42 61t-15.5 75q0 38 14.5 73.5t42.5 64.5l18 17l-25 25l120 117zM232 163q8 8 7.5 20t-8.5 20l-21 21l-20 -19q-9 -9 -9 -21.5t9 -21.5q10 -8 21 -8q12 0 21 9z
M150 568q-2 2 -6 10.5t-6 11.5q-11 24 -1 49.5t34 36.5q8 3 16.5 5t21.5 2h12t14 -2l-1 -46q-4 0 -13.5 -0.5t-18.5 -3.5t-15 -9.5t-3 -17.5q2 -11 16 -11q3 0 9 2l55 25l19 -42q-7 -5 -13 -9.5t-12 -8.5t-14 -8.5t-21 -10.5l-81 -36l-23 49z" />
    <glyph glyph-name="uni06CC" unicode="&#x6cc;" horiz-adv-x="653" 
d="M372 213q34 -8 68.5 -15.5t67.5 -17.5q60 -17 95 -62.5t35 -106.5q0 -38 -14.5 -71t-39 -57.5t-57.5 -38.5t-70 -14h-229q-42 0 -78.5 16t-64.5 44t-44 65t-16 79v223h157v-224q0 -14 9 -23.5t23 -9.5h241q11 0 11 11v26l-221 56v129q0 44 17 78.5t43.5 59.5t58.5 38
t62 13h136v-170h-165q-11 0 -16.5 -4.5t-7.5 -9.5t-1.5 -9.5z" />
    <glyph glyph-name="uni06E4" unicode="&#x6e4;" horiz-adv-x="367" 
 />
    <glyph glyph-name="uni06F0" unicode="&#x6f0;" horiz-adv-x="409" 
d="M204 289q30 0 56.5 -11.5t46 -31t31 -45.5t11.5 -56t-11.5 -56.5t-31 -46t-46 -31t-56.5 -11.5t-56 11.5t-45.5 31t-31 46t-11.5 56.5t11.5 56t31 45.5t45.5 31t56 11.5zM204 115q13 0 22 8.5t9 21.5t-9 22t-22 9t-21.5 -9t-8.5 -22t8.5 -21.5t21.5 -8.5z" />
    <glyph glyph-name="uni06F1" unicode="&#x6f1;" horiz-adv-x="299" 
d="M239 -59h-168v382q0 19 -7.5 40.5t-23.5 43.5l106 90q23 -16 40.5 -39t29 -47.5t17.5 -47.5t6 -40v-382z" />
    <glyph glyph-name="uni06F2" unicode="&#x6f2;" horiz-adv-x="559" 
d="M519 504v-142q0 -45 -17 -84.5t-47 -69.5t-69.5 -47t-84.5 -17h-14q-12 0 -23.5 1.5t-22.5 3.5v-208h-169v382q0 19 -8.5 40.5t-23.5 44.5l122 118q16 -22 28.5 -40.5t21.5 -36.5t16 -38.5t11 -47.5q1 -7 5 -15.5t10.5 -16t15 -12.5t17.5 -5h14q19 0 33 14t14 34v142h171
z" />
    <glyph glyph-name="uni06F3" unicode="&#x6f3;" horiz-adv-x="672" 
d="M632 323q0 -38 -14.5 -71t-39 -58t-57.5 -39t-70 -14q-27 0 -52.5 7t-45.5 20q-42 -27 -97 -27h-13v-202h-169v379q0 9 -3.5 21.5t-8.5 25.5t-11 25t-11 20l119 116q19 -25 34.5 -47.5t26.5 -45.5t17 -49.5t6 -60.5q0 -14 13 -14t13 14v161h168v-161q0 -14 14 -14
q4 0 7.5 4t3.5 10v179h170v-179z" />
    <glyph glyph-name="uni06F4" unicode="&#x6f4;" horiz-adv-x="628" 
d="M588 177q-18 -9 -40.5 -20t-46 -20.5t-46.5 -16t-43 -6.5q-72 0 -116.5 2t-66.5 7v-183h-168v383q0 8 -3 19.5t-7 22.5q-5 12 -11 25l135 92q18 -18 27 -42t14 -46q5 -25 5 -51q1 -12 2 -21q0 -8 0.5 -14t0.5 -4q4 38 20 73.5t42 63t60.5 44t74.5 16.5q29 0 53.5 -3
t43.5 -6q21 -5 39 -10l-15 -152q-13 1 -28 2q-12 0 -26.5 0.5t-28.5 0.5q-7 0 -13.5 -0.5t-11.5 -0.5q-17 -1 -25.5 -6t-11.5 -13t-2.5 -19t0.5 -24q6 -1 12.5 -1h12.5q32 0 67 3.5t65 12.5z" />
    <glyph glyph-name="uni06F5" unicode="&#x6f5;" horiz-adv-x="596" 
d="M257 546q38 -35 91 -78.5t101.5 -94t82.5 -107t34 -116.5q0 -42 -13.5 -80.5t-39 -68t-61.5 -47t-80 -17.5q-42 0 -74 19q-34 -19 -76 -19q-34 0 -68.5 14.5t-62 41.5t-44.5 66t-17 88q0 42 13.5 77.5t35 67t48.5 59.5t54 55l-32 36zM365 103q18 -1 27.5 13.5t9.5 38.5
q0 15 -13.5 34.5t-31 38.5t-34.5 35t-25 24q-12 -12 -29 -27t-33 -32t-27.5 -36t-11.5 -37q0 -54 40 -54q11 0 15 13.5t4 24.5h85q0 -14 6 -25.5t18 -10.5z" />
    <glyph glyph-name="uni06F6" unicode="&#x6f6;" horiz-adv-x="544" 
d="M421 423l93 -133q-26 -14 -41.5 -32.5t-26.5 -36.5l-161 -301l-152 78l93 133q-30 0 -64.5 11.5t-63.5 34.5t-48.5 57t-19.5 79q0 31 17.5 63t43 61.5t53.5 54.5t48 43l91 -106q-20 -23 -44 -51t-42 -53q-4 -6 -3.5 -18t7.5 -21q10 -13 25 -13q8 0 15 3q8 6 22 18.5
t29 27t29 28t23 21.5q11 10 20 17t18 13t18 11t21 11z" />
    <glyph glyph-name="uni06F7" unicode="&#x6f7;" horiz-adv-x="481" 
d="M363 494l98 -105q-11 -15 -21 -29l-16 -26t-11 -24l-110 -368h-123l-110 368q-6 20 -18 42t-32 39l73 102q16 -12 31 -24q13 -11 26.5 -22.5t21.5 -20.5q17 -19 28.5 -49t19 -63.5t12.5 -66t10 -55.5q7 24 15 57t17 66.5t17.5 63t15.5 46.5q8 19 17.5 32t18.5 21
q10 10 20 16z" />
    <glyph glyph-name="uni06F8" unicode="&#x6f8;" horiz-adv-x="481" 
d="M363 -58q-10 6 -20 16q-9 8 -18.5 21t-17.5 32q-7 17 -15.5 46.5t-17.5 63t-17 66.5t-15 57q-5 -23 -10 -55.5t-12.5 -66t-19 -63.5t-28.5 -49q-8 -9 -21.5 -20.5t-26.5 -22.5q-15 -12 -31 -24l-73 102q20 17 32 39t18 42l110 368h123l110 -368q3 -11 11 -24l16 -26
q10 -14 21 -29z" />
    <glyph glyph-name="uni06F9" unicode="&#x6f9;" horiz-adv-x="499" 
d="M417 117q0 -32 14 -55t28 -40q0 -3 -20 -17t-43 -30q-28 -18 -64 -40q-12 7 -22 15q-9 7 -17.5 16t-13.5 19q-7 15 -13 33.5t-9.5 39t-5.5 41t-2 38.5v1h-26q-39 0 -74.5 15t-61.5 41t-41.5 61.5t-15.5 76.5q0 39 15.5 74.5t41.5 61.5t61.5 41.5t74.5 15.5
q41 0 76.5 -15.5t61.5 -41.5t41 -61.5t15 -74.5v-215zM250 301v31q0 11 -9 19t-22 8q-11 0 -19.5 -8t-8.5 -19q0 -14 8.5 -22.5t19.5 -8.5h31z" />
    <glyph glyph-name="uni200C" unicode="&#x200c;" horiz-adv-x="0" 
 />
    <glyph glyph-name="uni200D" unicode="&#x200d;" horiz-adv-x="378" 
d="M233 -109h-88v506l-23 -23l-62 62l67 67l-67 66l62 62l67 -67l67 67l62 -62l-67 -66l67 -67l-62 -62l-23 23v-506z" />
    <glyph glyph-name="uni200E" unicode="&#x200e;" horiz-adv-x="417" 
d="M357 504l-128 -126l-64 61l22 21h-39v-569h-88v657h127l-22 21l64 61z" />
    <glyph glyph-name="uni200F" unicode="&#x200f;" horiz-adv-x="417" 
d="M188 632l64 -61l-22 -21h127v-657h-88v569h-39l22 -21l-64 -61l-128 126z" />
    <glyph glyph-name="endash" unicode="&#x2013;" horiz-adv-x="369" 
d="M369 166h-369v121h369v-121z" />
    <glyph glyph-name="emdash" unicode="&#x2014;" horiz-adv-x="611" 
d="M611 166h-611v121h611v-121z" />
    <glyph glyph-name="quoteleft" unicode="&#x2018;" horiz-adv-x="204" 
d="M144 618l-11 -143h-73l27 143h57z" />
    <glyph glyph-name="quoteright" unicode="&#x2019;" horiz-adv-x="204" 
d="M60 475l11 143h73l-27 -143h-57z" />
    <glyph glyph-name="quotesinglbase" unicode="&#x201a;" horiz-adv-x="217" 
d="M42 -48l25 158h91l-45 -158h-71z" />
    <glyph glyph-name="quotedblleft" unicode="&#x201c;" horiz-adv-x="297" 
d="M199 634h71l-8 -158h-91zM70 634h72l-9 -158h-91z" />
    <glyph glyph-name="quotedblright" unicode="&#x201d;" horiz-adv-x="297" 
d="M42 476l8 158h91l-28 -158h-71zM170 476l9 158h91l-28 -158h-72z" />
    <glyph glyph-name="quotedblbase" unicode="&#x201e;" horiz-adv-x="318" 
d="M42 -48l25 158h91l-45 -158h-71zM170 -48l26 158h91l-45 -158h-72z" />
    <glyph glyph-name="dagger" unicode="&#x2020;" horiz-adv-x="401" 
d="M153 -180v404h-42l-51 49l51 52h42v278h108v-278h80v-101h-80v-404h-108z" />
    <glyph glyph-name="daggerdbl" unicode="&#x2021;" horiz-adv-x="328" 
d="M110 -180v366h-70v90h70v52h-70v93h70v182h108v-182h70v-93h-70v-52h70v-90h-70v-366h-108z" />
    <glyph glyph-name="bullet" unicode="&#x2022;" horiz-adv-x="268" 
d="M136 501q30 0 51 -21t21 -50q0 -30 -21 -51t-51 -21q-14 0 -28 5.5t-24.5 15.5t-17 23t-6.5 28t6.5 27.5t17 22.5t24.5 15.5t28 5.5z" />
    <glyph glyph-name="ellipsis" unicode="&#x2026;" horiz-adv-x="641" 
d="M132 144q32 0 51 -20.5t19 -52.5q0 -30 -19 -49.5t-51 -19.5q-30 0 -51 19.5t-21 49.5q0 32 21 52.5t51 20.5zM312 144q32 0 51.5 -20.5t19.5 -52.5q0 -30 -19.5 -49.5t-51.5 -19.5q-29 0 -50.5 19.5t-21.5 49.5q0 32 21.5 52.5t50.5 20.5zM510 144q32 0 51.5 -20.5
t19.5 -52.5q0 -30 -19.5 -49.5t-51.5 -19.5q-30 0 -51 19.5t-21 49.5q0 32 21 52.5t51 20.5z" />
    <glyph glyph-name="perthousand" unicode="&#x2030;" horiz-adv-x="974" 
d="M523 144q0 -40 11.5 -52.5t25.5 -12.5q16 0 27.5 12.5t11.5 52.5q0 42 -11.5 55t-27.5 13q-14 0 -25.5 -13t-11.5 -55zM681 144q0 -86 -32.5 -120t-88.5 -34q-26 0 -48 8t-37.5 26t-24.5 47.5t-9 72.5q0 45 9 75t24.5 48t37.5 25.5t48 7.5q28 0 50.5 -7.5t38 -25.5
t24 -48t8.5 -75zM576 523l-285 -510l-109 1l287 509h107zM147 367q0 -40 11.5 -52.5t26.5 -12.5t27 12.5t12 52.5q0 42 -12 54.5t-27 12.5t-26.5 -12.5t-11.5 -54.5zM306 367q0 -87 -32.5 -121t-88.5 -34q-27 0 -49 8t-37.5 26t-24.5 48t-9 73q0 44 9 74t24.5 48t37.5 26
t49 8q28 0 50.5 -8t38 -26t24 -48t8.5 -74zM785 144q0 -40 11.5 -52.5t26.5 -12.5q16 0 27.5 12.5t11.5 52.5q0 42 -11.5 55t-27.5 13q-15 0 -26.5 -13t-11.5 -55zM944 144q0 -86 -32.5 -120t-88.5 -34q-26 0 -48 8t-38 26t-25 47.5t-9 72.5q0 45 9 75t25 48t38 25.5t48 7.5
q28 0 50.5 -7.5t38 -25.5t24 -48t8.5 -75z" />
    <glyph glyph-name="guilsinglleft" unicode="&#x2039;" horiz-adv-x="461" 
d="M40 181v82l381 193v-114l-237 -120l237 -120v-114z" />
    <glyph glyph-name="guilsinglright" unicode="&#x203a;" horiz-adv-x="461" 
d="M40 -12v114l237 120l-237 120v114l381 -193v-82z" />
    <glyph glyph-name="fraction" unicode="&#x2044;" horiz-adv-x="456" 
d="M416 495l-282 -501l-94 54l280 495z" />
    <glyph glyph-name="Euro" unicode="&#x20ac;" horiz-adv-x="603" 
d="M85 261q0 5 -0.5 9t-0.5 8v4v-1l1 1v3h-55v87h67q24 91 94.5 142.5t176.5 51.5q42 0 92.5 -9.5t101.5 -28.5l-19 -90q-52 14 -96 21t-72 7q-60 0 -102.5 -25t-63.5 -69h231l-23 -87h-228v-6v-9t1 -9h222l-22 -86h-174q22 -39 60 -60.5t91 -21.5q29 0 76.5 8t108.5 25
l21 -92q-60 -19 -114 -29t-94 -10q-98 0 -166.5 49.5t-96.5 130.5h-72v86h55z" />
    <glyph glyph-name="trademark" unicode="&#x2122;" horiz-adv-x="630" 
d="M286 593h98l44 -100l44 100h98v-262h-85v117l-48 -117h-18l-48 117v-117h-85v262zM60 510v83h212v-83h-62v-179h-84v179h-66z" />
    <glyph glyph-name="minus" unicode="&#x2212;" horiz-adv-x="461" 
d="M60 321h341v-113h-341v113z" />
    <glyph glyph-name="uniFE00" unicode="&#xfe00;" 
d="M249 171q16 0 22.5 -23.5t6.5 -61.5q0 -39 -5.5 -62.5t-23.5 -23.5h-42q-37 0 -70.5 14.5t-58 39t-39 57.5t-14.5 70v369h171v-369q0 -10 13 -10h40z" />
    <glyph glyph-name="uniFE01" unicode="&#xfe01;" horiz-adv-x="345" 
d="M308 579h-183q-7 0 -15 -0.5t-13 -4.5q-2 -2 -5 -4t-11 -22l-106 38q35 78 62 93q18 10 49 11h222v-111zM345 171q16 0 22.5 -23.5t6.5 -61.5q0 -39 -5.5 -62.5t-23.5 -23.5h-42q-37 0 -70.5 14.5t-58 39t-39 57.5t-14.5 70v348h171v-348q0 -10 13 -10h40z" />
    <glyph glyph-name="uniFE03" unicode="&#xfe03;" 
d="M86 632q-2 2 -6 10.5t-6 11.5q-11 24 -1 49.5t34 36.5q8 3 16.5 5t21.5 2h12t14 -2l-1 -46q-4 0 -13.5 -0.5t-18.5 -3.5t-15 -9.5t-3 -17.5q2 -11 16 -11q3 0 9 2l55 25l19 -42q-7 -5 -13 -9.5t-12 -8.5t-14 -8.5t-21 -10.5l-81 -36l-23 49zM249 171q16 0 22.5 -23.5
t6.5 -61.5q0 -39 -5.5 -62.5t-23.5 -23.5h-42q-37 0 -70.5 14.5t-58 39t-39 57.5t-14.5 70v369h171v-369q0 -10 13 -10h40z" />
    <glyph glyph-name="uniFE05" unicode="&#xfe05;" 
d="M86 632q-2 2 -6 10.5t-6 11.5q-11 24 -1 49.5t34 36.5q8 3 16.5 5t21.5 2h12t14 -2l-1 -46q-4 0 -13.5 -0.5t-18.5 -3.5t-15 -9.5t-3 -17.5q2 -11 16 -11q3 0 9 2l55 25l19 -42q-7 -5 -13 -9.5t-12 -8.5t-14 -8.5t-21 -10.5l-81 -36l-23 49zM249 171q16 0 22.5 -23.5
t6.5 -61.5q0 -39 -5.5 -62.5t-23.5 -23.5h-42q-37 0 -70.5 14.5t-58 39t-39 57.5t-14.5 70v369h171v-369q0 -10 13 -10h40z" />
    <glyph glyph-name="uniFE06" unicode="&#xfe06;" horiz-adv-x="253" 
 />
    <glyph glyph-name="uniFE07" unicode="&#xfe07;" horiz-adv-x="253" 
 />
    <glyph glyph-name="uniFE08" unicode="&#xfe08;" horiz-adv-x="253" 
 />
    <glyph glyph-name="uniFE09" unicode="&#xfe09;" horiz-adv-x="773" 
d="M733 0q-30 0 -57 10t-50 27q-26 -17 -57 -27t-64 -10h-261q-45 0 -85 17.5t-69.5 47t-47 69.5t-17.5 85v145h169v-145q0 -20 14.5 -33.5t35.5 -13.5h261q20 0 34.5 13.5t14.5 33.5v145h168v-185q0 -8 11 -8h40q16 0 22.5 -23.5t6.5 -61.5q0 -39 -5.5 -62.5t-23.5 -23.5
h-40zM304 -88h126v-126h-126v126z" />
    <glyph glyph-name="uniFE0A" unicode="&#xfe0a;" horiz-adv-x="273" 
d="M0 0q-18 0 -23.5 23.5t-5.5 62.5q0 38 6.5 61.5t22.5 23.5h40q11 0 11 14v176h171v-179q0 -11 11 -11h40q16 0 22.5 -23.5t6.5 -61.5q0 -39 -5.5 -62.5t-23.5 -23.5h-41q-54 0 -97 26q-43 -26 -95 -26h-40zM84 -88h126v-126h-126v126z" />
    <glyph glyph-name="uniFE0B" unicode="&#xfe0b;" horiz-adv-x="247" 
d="M40 171q11 0 11 14v176h171v-179q0 -37 -14.5 -70.5t-39 -58t-57.5 -39t-71 -14.5h-40q-18 0 -23.5 23.5t-5.5 62.5q0 38 6.5 61.5t22.5 23.5h40zM24 -88h126v-126h-126v126z" />
    <glyph glyph-name="uniFE0C" unicode="&#xfe0c;" horiz-adv-x="773" 
d="M733 0q-30 0 -57 10t-50 27q-26 -17 -57 -27t-64 -10h-261q-45 0 -85 17.5t-69.5 47t-47 69.5t-17.5 85v145h169v-145q0 -20 14.5 -33.5t35.5 -13.5h261q20 0 34.5 13.5t14.5 33.5v145h168v-185q0 -8 11 -8h40q16 0 22.5 -23.5t6.5 -61.5q0 -39 -5.5 -62.5t-23.5 -23.5
h-40zM508 -89v-126h-74v-105h-126v105h-79v126h279z" />
    <glyph glyph-name="uniFE0D" unicode="&#xfe0d;" horiz-adv-x="362" 
d="M0 0q-18 0 -23.5 23.5t-5.5 62.5q0 38 6.5 61.5t22.5 23.5h80q11 0 11 14v176h171v-179q0 -11 11 -11h89q16 0 22.5 -23.5t6.5 -61.5q0 -39 -5.5 -62.5t-23.5 -23.5h-90q-54 0 -97 26q-43 -26 -95 -26h-80zM322 -89v-126h-74v-105h-126v105h-79v126h279z" />
    <glyph glyph-name="uniFE0E" unicode="&#xfe0e;" horiz-adv-x="347" 
d="M140 171q11 0 11 14v176h171v-179q0 -37 -14.5 -70.5t-39 -58t-57.5 -39t-71 -14.5h-140q-18 0 -23.5 23.5t-5.5 62.5q0 38 6.5 61.5t22.5 23.5h140zM280 -89v-126h-74v-105h-126v105h-79v126h279z" />
    <glyph glyph-name="uniFE0F" unicode="&#xfe0f;" horiz-adv-x="773" 
d="M733 0q-30 0 -57 10t-50 27q-26 -17 -57 -27t-64 -10h-261q-45 0 -85 17.5t-69.5 47t-47 69.5t-17.5 85v145h169v-145q0 -20 14.5 -33.5t35.5 -13.5h261q20 0 34.5 13.5t14.5 33.5v145h168v-185q0 -8 11 -8h40q16 0 22.5 -23.5t6.5 -61.5q0 -39 -5.5 -62.5t-23.5 -23.5
h-40zM237 363v127h279v-127h-279z" />
    <glyph glyph-name="uniFE10" unicode="&#xfe10;" horiz-adv-x="333" 
d="M0 0q-18 0 -23.5 23.5t-5.5 62.5q0 38 6.5 61.5t22.5 23.5h70q11 0 11 14v176h171v-179q0 -11 11 -11h70q16 0 22.5 -23.5t6.5 -61.5q0 -39 -5.5 -62.5t-23.5 -23.5h-71q-54 0 -97 26q-43 -26 -95 -26h-70zM29 428v127h262v-127h-262z" />
    <glyph glyph-name="uniFE11" unicode="&#xfe11;" horiz-adv-x="274" 
d="M50 171q11 0 11 14v176h171v-179q0 -37 -14.5 -70.5t-39 -58t-57.5 -39t-71 -14.5h-50q-18 0 -23.5 23.5t-5.5 62.5q0 38 6.5 61.5t22.5 23.5h50zM-5 428v127h259v-127h-259z" />
    <glyph glyph-name="uniFE12" unicode="&#xfe12;" horiz-adv-x="773" 
d="M733 0q-30 0 -57 10t-50 27q-26 -17 -57 -27t-64 -10h-261q-45 0 -85 17.5t-69.5 47t-47 69.5t-17.5 85v145h169v-145q0 -20 14.5 -33.5t35.5 -13.5h261q20 0 34.5 13.5t14.5 33.5v145h168v-185q0 -8 11 -8h40q16 0 22.5 -23.5t6.5 -61.5q0 -39 -5.5 -62.5t-23.5 -23.5
h-40zM234 366v126h74v105h126v-105h79v-126h-279z" />
    <glyph glyph-name="uniFE13" unicode="&#xfe13;" horiz-adv-x="342" 
d="M0 0q-18 0 -23.5 23.5t-5.5 62.5q0 38 6.5 61.5t22.5 23.5h80q11 0 11 14v176h171v-179q0 -11 11 -11h69q16 0 22.5 -23.5t6.5 -61.5q0 -39 -5.5 -62.5t-23.5 -23.5h-70q-54 0 -97 26q-43 -26 -95 -26h-80zM31 428v126h74v105h126v-105h79v-126h-279z" />
    <glyph glyph-name="uniFE14" unicode="&#xfe14;" horiz-adv-x="300" 
d="M90 171q11 0 11 14v176h171v-179q0 -37 -14.5 -70.5t-39 -58t-57.5 -39t-71 -14.5h-90q-18 0 -23.5 23.5t-5.5 62.5q0 38 6.5 61.5t22.5 23.5h90zM1 428v126h72v105h126v-105h76v-126h-274z" />
    <glyph glyph-name="uniFE15" unicode="&#xfe15;" horiz-adv-x="596" 
d="M596 171q16 0 22.5 -23.5t6.5 -61.5q0 -39 -5.5 -62.5t-23.5 -23.5h-159q-38 0 -69.5 13.5t-53.5 37.5q-11 -9 -31.5 -25t-40.5 -34.5t-35.5 -38t-17.5 -37.5q-2 -25 11 -43t40 -18h126v-141l-127 -8q-46 0 -86 17t-69.5 46.5t-46.5 69.5t-17 85q0 38 12.5 69t26.5 53
q17 25 39 45l169 143q-9 4 -21 9t-23 5q-16 0 -45.5 -16t-67.5 -48l-86 64q38 84 89.5 127.5t113.5 43.5q31 0 62 -11t60 -24.5t55.5 -25t49.5 -13.5q14 -2 20 -2h11q7 0 13 0.5t26 0.5v-132h-98v-31q0 -10 11 -10h159zM425 -88h126v-126h-126v126z" />
    <glyph glyph-name="uniFE16" unicode="&#xfe16;" horiz-adv-x="673" 
d="M524 180q0 -9 11 -9h138q16 0 22.5 -23.5t6.5 -61.5q0 -39 -5.5 -62.5t-23.5 -23.5h-131q-78 0 -123 50q-30 -24 -65 -37t-74 -13h-280q-18 0 -23.5 23.5t-5.5 62.5q0 38 6.5 61.5t22.5 23.5h280q10 0 21.5 8.5t23 19.5t20.5 23t14 18q-17 5 -34.5 11t-33.5 11t-30 8.5
t-24 4.5h-3q-11 0 -24 -7t-25 -17t-22 -19.5t-16 -15.5l-109 69q28 42 51 71.5t46.5 48t49 27t58.5 8.5q18 0 51.5 -11t71.5 -25t77 -28t68 -20q2 0 11 -0.5t20.5 -1t21 -1t12.5 -0.5h55v-140h-85q-12 0 -18 -8q-3 -4 -5 -8zM230 -88h126v-126h-126v126z" />
    <glyph glyph-name="uniFE17" unicode="&#xfe17;" horiz-adv-x="645" 
d="M279 171q10 0 21.5 8.5t23 19.5t20.5 23t14 18q-17 5 -34.5 11t-33.5 11t-30 8.5t-24 4.5h-3q-11 0 -24 -7t-25 -17t-22 -19.5t-16 -15.5l-109 69q28 42 51 71.5t46.5 48t49 27t58.5 8.5q18 0 51.5 -11t71.5 -25t77 -28t68 -20q2 0 11 -0.5t20.5 -1t21 -1t12.5 -0.5h55
v-140h-85q-12 0 -18 -8q-3 -4 -5 -8q-19 -31 -40.5 -65.5t-49.5 -64t-65 -48.5t-88 -19h-280q-18 0 -23.5 23.5t-5.5 62.5q0 38 6.5 61.5t22.5 23.5h280zM240 -88h126v-126h-126v126z" />
    <glyph glyph-name="uniFE18" unicode="&#xfe18;" horiz-adv-x="585" 
d="M585 171q16 0 22.5 -23.5t6.5 -61.5q0 -39 -5.5 -62.5t-23.5 -23.5h-148q-38 0 -69.5 13.5t-53.5 37.5q-11 -9 -31.5 -25t-40.5 -34.5t-35.5 -38t-17.5 -37.5q-2 -25 11 -43t40 -18h66v-141l-67 -8q-46 0 -86 17t-69.5 46.5t-46.5 69.5t-17 85q0 38 12.5 69t26.5 53
q17 25 39 45l169 143q-9 4 -21 9t-23 5q-16 0 -45.5 -16t-67.5 -48l-86 64q38 84 89.5 127.5t113.5 43.5q31 0 62 -11t60 -24.5t55.5 -25t49.5 -13.5q14 -2 20 -2h11q7 0 13 0.5t26 0.5v-132h-98v-31q0 -10 11 -10h148zM551 -89v-95h-56v-79h-95v79h-59v95h210z" />
    <glyph glyph-name="uniFE19" unicode="&#xfe19;" horiz-adv-x="670" 
d="M524 180q0 -9 11 -9h135q16 0 22.5 -23.5t6.5 -61.5q0 -39 -5.5 -62.5t-23.5 -23.5h-128q-78 0 -123 50q-30 -24 -65 -37t-74 -13h-280q-18 0 -23.5 23.5t-5.5 62.5q0 38 6.5 61.5t22.5 23.5h280q10 0 21.5 8.5t23 19.5t20.5 23t14 18q-17 5 -34.5 11t-33.5 11t-30 8.5
t-24 4.5h-3q-11 0 -24 -7t-25 -17t-22 -19.5t-16 -15.5l-109 69q28 42 51 71.5t46.5 48t49 27t58.5 8.5q18 0 51.5 -11t71.5 -25t77 -28t68 -20q2 0 11 -0.5t20.5 -1t21 -1t12.5 -0.5h55v-140h-85q-12 0 -18 -8q-3 -4 -5 -8zM454 -89v-126h-74v-105h-126v105h-79v126h279z
" />
    <glyph glyph-name="uniFE1A" unicode="&#xfe1a;" horiz-adv-x="646" 
d="M444 -89v-126h-74v-105h-126v105h-79v126h279zM279 171q10 0 21.5 8.5t23 19.5t20.5 23t14 18q-17 5 -34.5 11t-33.5 11t-30 8.5t-24 4.5h-3q-11 0 -24 -7t-25 -17t-22 -19.5t-16 -15.5l-109 69q28 42 51 71.5t46.5 48t49 27t58.5 8.5q18 0 51.5 -11t71.5 -25t77 -28
t68 -20q2 0 11 -0.5t20.5 -1t21 -1t12.5 -0.5h55v-140h-85q-12 0 -18 -8q-3 -4 -5 -8q-19 -31 -40.5 -65.5t-49.5 -64t-65 -48.5t-88 -19h-280q-18 0 -23.5 23.5t-5.5 62.5q0 38 6.5 61.5t22.5 23.5h280z" />
    <glyph glyph-name="uniFE1B" unicode="&#xfe1b;" horiz-adv-x="559" 
d="M560 171q16 0 22.5 -23.5t6.5 -61.5q0 -39 -5.5 -62.5t-23.5 -23.5h-123q-38 0 -69.5 13.5t-53.5 37.5q-11 -9 -31.5 -25t-40.5 -34.5t-35.5 -38t-17.5 -37.5q-2 -25 11 -43t40 -18h126v-141l-127 -8q-46 0 -86 17t-69.5 46.5t-46.5 69.5t-17 85q0 38 12.5 69t26.5 53
q17 25 39 45l169 143q-9 4 -21 9t-23 5q-16 0 -45.5 -16t-67.5 -48l-86 64q38 84 89.5 127.5t113.5 43.5q31 0 62 -11t60 -24.5t55.5 -25t49.5 -13.5q14 -2 20 -2h11q7 0 13 0.5t26 0.5v-132h-98v-31q0 -10 11 -10h123z" />
    <glyph glyph-name="uniFE1C" unicode="&#xfe1c;" horiz-adv-x="667" 
d="M524 180q0 -9 11 -9h132q16 0 22.5 -23.5t6.5 -61.5q0 -39 -5.5 -62.5t-23.5 -23.5h-125q-78 0 -123 50q-30 -24 -65 -37t-74 -13h-280q-18 0 -23.5 23.5t-5.5 62.5q0 38 6.5 61.5t22.5 23.5h280q10 0 21.5 8.5t23 19.5t20.5 23t14 18q-17 5 -34.5 11t-33.5 11t-30 8.5
t-24 4.5h-3q-11 0 -24 -7t-25 -17t-22 -19.5t-16 -15.5l-109 69q28 42 51 71.5t46.5 48t49 27t58.5 8.5q18 0 51.5 -11t71.5 -25t77 -28t68 -20q2 0 11 -0.5t20.5 -1t21 -1t12.5 -0.5h55v-140h-85q-12 0 -18 -8q-3 -4 -5 -8z" />
    <glyph glyph-name="uniFE1D" unicode="&#xfe1d;" horiz-adv-x="647" 
d="M279 171q10 0 21.5 8.5t23 19.5t20.5 23t14 18q-17 5 -34.5 11t-33.5 11t-30 8.5t-24 4.5h-3q-11 0 -24 -7t-25 -17t-22 -19.5t-16 -15.5l-109 69q28 42 51 71.5t46.5 48t49 27t58.5 8.5q18 0 51.5 -11t71.5 -25t77 -28t68 -20q2 0 11 -0.5t20.5 -1t21 -1t12.5 -0.5h55
v-140h-85q-12 0 -18 -8q-3 -4 -5 -8q-19 -31 -40.5 -65.5t-49.5 -64t-65 -48.5t-88 -19h-280q-18 0 -23.5 23.5t-5.5 62.5q0 38 6.5 61.5t22.5 23.5h280z" />
    <glyph glyph-name="uniFE1E" unicode="&#xfe1e;" horiz-adv-x="563" 
d="M562 171q16 0 22.5 -23.5t6.5 -61.5q0 -39 -5.5 -62.5t-23.5 -23.5h-125q-38 0 -69.5 13.5t-53.5 37.5q-11 -9 -31.5 -25t-40.5 -34.5t-35.5 -38t-17.5 -37.5q-2 -25 11 -43t40 -18h126v-141l-127 -8q-46 0 -86 17t-69.5 46.5t-46.5 69.5t-17 85q0 38 12.5 69t26.5 53
q17 25 39 45l169 143q-9 4 -21 9t-23 5q-16 0 -45.5 -16t-67.5 -48l-86 64q38 84 89.5 127.5t113.5 43.5q31 0 62 -11t60 -24.5t55.5 -25t49.5 -13.5q14 -2 20 -2h11q7 0 13 0.5t26 0.5v-132h-98v-31q0 -10 11 -10h125zM167 626h126v-126h-126v126z" />
    <glyph glyph-name="uniFE1F" unicode="&#xfe1f;" horiz-adv-x="665" 
d="M519 180q0 -9 11 -9h135q16 0 22.5 -23.5t6.5 -61.5q0 -39 -5.5 -62.5t-23.5 -23.5h-128q-78 0 -123 50q-30 -24 -65 -37t-74 -13h-275q-18 0 -23.5 23.5t-5.5 62.5q0 38 6.5 61.5t22.5 23.5h275q10 0 21.5 8.5t23 19.5t20.5 23t14 18q-17 5 -34.5 11t-33.5 11t-30 8.5
t-24 4.5h-3q-11 0 -24 -7t-25 -17t-22 -19.5t-16 -15.5l-109 69q28 42 51 71.5t46.5 48t49 27t58.5 8.5q18 0 51.5 -11t71.5 -25t77 -28t68 -20q2 0 11 -0.5t20.5 -1t21 -1t12.5 -0.5h55v-140h-85q-12 0 -18 -8q-3 -4 -5 -8zM177 626h126v-126h-126v126z" />
    <glyph glyph-name="uniFE20" unicode="&#xfe20;" horiz-adv-x="645" 
d="M187 626h126v-126h-126v126zM279 171q10 0 21.5 8.5t23 19.5t20.5 23t14 18q-17 5 -34.5 11t-33.5 11t-30 8.5t-24 4.5h-3q-11 0 -24 -7t-25 -17t-22 -19.5t-16 -15.5l-109 69q28 42 51 71.5t46.5 48t49 27t58.5 8.5q18 0 51.5 -11t71.5 -25t77 -28t68 -20q2 0 11 -0.5
t20.5 -1t21 -1t12.5 -0.5h55v-140h-85q-12 0 -18 -8q-3 -4 -5 -8q-19 -31 -40.5 -65.5t-49.5 -64t-65 -48.5t-88 -19h-280q-18 0 -23.5 23.5t-5.5 62.5q0 38 6.5 61.5t22.5 23.5h280z" />
    <glyph glyph-name="uniFE21" unicode="&#xfe21;" horiz-adv-x="502" 
d="M473 0q-36 0 -71 10.5t-64 32.5q-24 -20 -54 -31.5t-64 -11.5h-195v170h195q7 0 10.5 4.5t-1.5 12.5l-121 178l139 97l184 -272q16 -22 42 -22h30q16 0 22.5 -23.5t6.5 -61.5t-5 -60.5t-22 -22.5h-32z" />
    <glyph glyph-name="uniFE22" unicode="&#xfe22;" horiz-adv-x="502" 
d="M473 0q-36 0 -71 10.5t-64 32.5q-24 -20 -54 -31.5t-64 -11.5h-195v170h195q7 0 10.5 4.5t-1.5 12.5l-121 178l139 97l184 -272q16 -22 42 -22h30q16 0 22.5 -23.5t6.5 -61.5t-5 -60.5t-21 -22.5h-33zM61 626h126v-126h-126v126z" />
    <glyph glyph-name="uniFE23" unicode="&#xfe23;" horiz-adv-x="343" 
d="M289 0q-13 -91 -65 -147t-138 -82l-57 -18l-44 154l48 19q35 14 61 35.5t26 63.5v272h172v-112q0 -14 11 -14h40q16 0 22.5 -23.5t6.5 -61.5q0 -39 -5.5 -62.5t-23.5 -23.5h-54z" />
    <glyph glyph-name="uniFE24" unicode="&#xfe24;" horiz-adv-x="343" 
d="M289 0q-13 -91 -65 -147t-138 -82l-57 -18l-44 154l48 19q35 14 61 35.5t26 63.5v272h172v-112q0 -14 11 -14h40q16 0 22.5 -23.5t6.5 -61.5q0 -39 -5.5 -62.5t-23.5 -23.5h-54zM139 554h126v-126h-126v126z" />
    <glyph glyph-name="uniFE25" unicode="&#xfe25;" horiz-adv-x="343" 
d="M289 0q-13 -91 -65 -147t-138 -82l-57 -18l-44 154l48 19q35 14 61 35.5t26 63.5v272h172v-112q0 -14 11 -14h40q16 0 22.5 -23.5t6.5 -61.5q0 -39 -5.5 -62.5t-23.5 -23.5h-54zM36 366v126h74v105h126v-105h79v-126h-279z" />
    <glyph glyph-name="uniFE26" unicode="&#xfe26;" horiz-adv-x="1093" 
d="M1093 171q16 0 22.5 -23.5t6.5 -61.5q0 -39 -5.5 -62.5t-23.5 -23.5h-61q-27 0 -51 7t-44 20q-22 -13 -46.5 -20t-51.5 -7h-49q-54 0 -96 28q-10 -7 -27.5 -12t-36.5 -8.5t-37.5 -5.5t-31.5 -2q-20 0 -37 3q-16 -34 -40 -61.5t-55 -47.5t-67 -31t-75 -11q-55 0 -103 20.5
t-83 56.5t-55.5 84t-20.5 102v173h169v-173q0 -40 27 -67.5t66 -27.5q19 0 35.5 7.5t29 20t20 30t7.5 37.5v225h171v-159q0 -5 8 -8.5t22 -3.5q13 0 20.5 3.5t7.5 8.5v159h169v-157q2 -9 14 -11.5t19 -2.5q16 0 19.5 3.5t5.5 9.5v181h171v-177q1 -8 6.5 -11.5t10.5 -3.5h70z
" />
    <glyph glyph-name="uniFE27" unicode="&#xfe27;" horiz-adv-x="796" 
d="M70 171q5 0 9 3.5t4 8.5v158h170v-160q0 -5 8 -8.5t22 -3.5q13 0 20.5 3.5t7.5 8.5v160h169v-158q2 -9 14 -11.5t19 -2.5q16 0 20 3.5t6 9.5v181h171v-177q0 -8 5.5 -11.5t10.5 -3.5h70q17 0 23.5 -23t6.5 -61q0 -40 -5.5 -63.5t-24.5 -23.5h-61q-53 0 -94 27
q-23 -13 -47.5 -20t-51.5 -7h-49q-54 0 -96 28q-10 -7 -27.5 -12t-36.5 -8.5t-37.5 -5.5t-31.5 -2q-52 0 -96 28q-44 -28 -98 -28h-70q-19 0 -24.5 23.5t-5.5 63.5q0 38 6.5 61t23.5 23h70z" />
    <glyph glyph-name="uniFE28" unicode="&#xfe28;" horiz-adv-x="734" 
d="M0 0q-18 0 -23.5 23.5t-5.5 62.5q0 38 6.5 61.5t22.5 23.5h70q5 0 8.5 3t3.5 7v160h171v-160q0 -5 8 -8.5t22 -3.5q13 0 20.5 3.5t7.5 8.5v160h169v-158q0 -14 13 -14h45v194h171v-363h-216q-54 0 -96 28q-21 -13 -55 -21.5t-61 -8.5q-26 0 -59.5 7t-54.5 21
q-21 -14 -45 -20t-52 -6h-70z" />
    <glyph glyph-name="uniFE29" unicode="&#xfe29;" horiz-adv-x="1092" 
d="M1093 171q16 0 22.5 -23.5t6.5 -61.5q0 -39 -5.5 -62.5t-23.5 -23.5h-61q-27 0 -51 7t-44 20q-22 -13 -46.5 -20t-51.5 -7h-49q-54 0 -96 28q-10 -7 -27.5 -12t-36.5 -8.5t-37.5 -5.5t-31.5 -2q-20 0 -37 3q-16 -34 -40 -61.5t-55 -47.5t-67 -31t-75 -11q-55 0 -103 20.5
t-83 56.5t-55.5 84t-20.5 102v173h169v-173q0 -40 27 -67.5t66 -27.5q19 0 35.5 7.5t29 20t20 30t7.5 37.5v225h171v-159q0 -5 8 -8.5t22 -3.5q13 0 20.5 3.5t7.5 8.5v159h169v-157q2 -9 14 -11.5t19 -2.5q16 0 19.5 3.5t5.5 9.5v181h171v-177q1 -8 6.5 -11.5t10.5 -3.5h70z
M560 428v126h74v105h126v-105h79v-126h-279z" />
    <glyph glyph-name="uniFE2A" unicode="&#xfe2a;" horiz-adv-x="796" 
d="M70 171q5 0 9 3.5t4 8.5v158h170v-160q0 -5 8 -8.5t22 -3.5q13 0 20.5 3.5t7.5 8.5v160h169v-158q2 -9 14 -11.5t19 -2.5q16 0 20 3.5t6 9.5v181h171v-177q0 -8 5.5 -11.5t10.5 -3.5h70q17 0 23.5 -23.5t6.5 -61.5q0 -39 -5.5 -62.5t-24.5 -23.5h-61q-53 0 -94 27
q-23 -13 -47.5 -20t-51.5 -7h-49q-54 0 -96 28q-10 -7 -27.5 -12t-36.5 -8.5t-37.5 -5.5t-31.5 -2q-52 0 -96 28q-44 -28 -98 -28h-70q-19 0 -24.5 23.5t-5.5 62.5q0 38 6.5 61.5t23.5 23.5h70zM262 428v126h74v105h126v-105h79v-126h-279z" />
    <glyph glyph-name="uniFE2B" unicode="&#xfe2b;" horiz-adv-x="734" 
d="M0 0q-18 0 -23.5 23.5t-5.5 62.5q0 38 6.5 61.5t22.5 23.5h70q5 0 8.5 3t3.5 7v160h171v-160q0 -5 8 -8.5t22 -3.5q13 0 20.5 3.5t7.5 8.5v160h169v-158q0 -14 13 -14h45v194h171v-363h-216q-54 0 -96 28q-21 -13 -55 -21.5t-61 -8.5q-26 0 -59.5 7t-54.5 21
q-21 -14 -45 -20t-52 -6h-70zM252 428v126h74v105h126v-105h79v-126h-279z" />
    <glyph glyph-name="uniFE2C" unicode="&#xfe2c;" horiz-adv-x="988" 
d="M988 171q17 0 23.5 -23.5t6.5 -61.5q0 -39 -5.5 -62.5t-24.5 -23.5h-31q-9 0 -22.5 1t-27.5 4.5t-27 9.5t-22 15q-47 -30 -103 -30h-194q-22 0 -45 5q-35 -59 -95 -95t-134 -36q-54 0 -101.5 20.5t-83.5 56.5t-56.5 84t-20.5 102v174h170v-174q0 -19 7.5 -36t20 -29.5
t29 -19.5t35.5 -7q39 0 66.5 26.5t27.5 65.5v246h169v-45q28 11 50 22t44.5 20t47 14.5t56.5 5.5q35 0 71 -14.5t64.5 -41.5t46.5 -65t18 -86v-22h40zM778 201q1 11 -7 22t-22 11h-4q-16 -2 -38.5 -6t-49 -8.5t-54 -10t-53.5 -10.5v-18q0 -10 11 -10h194q14 0 18.5 9.5
t4.5 20.5z" />
    <glyph glyph-name="uniFE2D" unicode="&#xfe2d;" horiz-adv-x="678" 
d="M452 201q1 11 -7 22t-22 11h-4q-16 -2 -39 -6t-49 -9t-54 -10t-53 -10v-18q0 -10 11 -10h194q14 0 18.5 9.5t4.5 20.5zM622 193q0 -9 2.5 -15.5t13.5 -6.5h40q17 0 23.5 -23.5t6.5 -61.5q0 -39 -5.5 -62.5t-24.5 -23.5h-31q-27 0 -58.5 10.5t-46.5 27.5
q-24 -18 -52.5 -28t-60.5 -10h-194q-23 0 -43.5 5t-39.5 14q-4 2 -7.5 4t-6.5 4q-44 -27 -98 -27h-40q-18 0 -23.5 23.5t-5.5 62.5q0 38 6.5 61.5t22.5 23.5h40q5 0 9 3t4 8v201h171v-45q48 22 96 42t102 20q45 0 82 -17t63 -46t40.5 -66t14.5 -78z" />
    <glyph glyph-name="uniFE2E" unicode="&#xfe2e;" horiz-adv-x="637" 
d="M422 400q45 0 82 -17t63 -46t40.5 -66t14.5 -78q0 -39 -15.5 -74.5t-41.5 -61.5t-61.5 -41.5t-74.5 -15.5h-194q-23 0 -43.5 5t-39.5 14q-4 2 -7.5 4t-6.5 4q-44 -27 -98 -27h-40q-18 0 -23.5 23.5t-5.5 62.5q0 38 6.5 61.5t22.5 23.5h40q5 0 9 3t4 8v201h171v-45
q48 22 96 42t102 20zM452 201q1 11 -7 22t-22 11h-4q-16 -2 -39 -6t-49 -8.5t-54 -10t-53 -10.5v-18q0 -10 11 -10h194q14 0 18.5 9.5t4.5 20.5z" />
    <glyph glyph-name="uniFE30" unicode="&#xfe30;" horiz-adv-x="988" 
d="M988 171q17 0 23.5 -23.5t6.5 -61.5q0 -39 -5.5 -62.5t-24.5 -23.5h-32q-9 0 -22 1t-27 4.5t-27 9.5t-22 15q-47 -30 -103 -30h-194q-22 0 -45 5q-35 -59 -95 -95t-134 -36q-54 0 -101.5 20.5t-83.5 56.5t-56.5 84t-20.5 102v174h170v-174q0 -19 7.5 -36t20 -29.5
t29 -19.5t35.5 -7q39 0 66.5 26.5t27.5 65.5v246h169v-45q28 11 50 22t44.5 20t47 14.5t56.5 5.5q35 0 71 -14.5t64.5 -41.5t46.5 -65t18 -86v-22h40zM778 201q1 11 -7 22t-22 11h-4q-16 -2 -38.5 -5.5t-49 -8t-54 -9.5t-53.5 -10v-20q0 -10 11 -10h194q14 0 18.5 9.5
t4.5 20.5zM688 626h126v-126h-126v126z" />
    <glyph glyph-name="uniFE31" unicode="&#xfe31;" horiz-adv-x="678" 
d="M452 201q1 11 -7 22t-22 11h-4q-16 -2 -39 -6t-49 -8.5t-54 -9.5t-53 -10v-19q0 -10 11 -10h194q14 0 18.5 9.5t4.5 20.5zM622 193q0 -9 2.5 -15.5t13.5 -6.5h40q17 0 23.5 -23.5t6.5 -61.5q0 -39 -5.5 -62.5t-24.5 -23.5h-31q-27 0 -58.5 10.5t-46.5 27.5
q-24 -18 -52.5 -28t-60.5 -10h-194q-23 0 -43.5 5t-39.5 14q-4 2 -7.5 4t-6.5 4q-44 -27 -98 -27h-40q-18 0 -23.5 23.5t-5.5 62.5q0 38 6.5 61.5t22.5 23.5h40q5 0 9 3t4 8v201h171v-45q48 22 96 42t102 20q45 0 82 -17t63 -46t40.5 -66t14.5 -78zM354 626h126v-126h-126
v126z" />
    <glyph glyph-name="uniFE32" unicode="&#xfe32;" horiz-adv-x="637" 
d="M422 400q45 0 82 -17t63 -46t40.5 -66t14.5 -78q0 -39 -15.5 -74.5t-41.5 -61.5t-61.5 -41.5t-74.5 -15.5h-194q-23 0 -43.5 5t-39.5 14q-4 2 -7.5 4t-6.5 4q-44 -27 -98 -27h-40q-18 0 -23.5 23.5t-5.5 62.5q0 38 6.5 61.5t22.5 23.5h40q5 0 9 3t4 8v201h171v-45
q48 22 96 42t102 20zM452 201q1 11 -7 22t-22 11h-4q-16 -2 -39 -5.5t-49 -8t-54 -10t-53 -10.5v-19q0 -10 11 -10h194q14 0 18.5 9.5t4.5 20.5zM354 626h126v-126h-126v126z" />
    <glyph glyph-name="uniFE33" unicode="&#xfe33;" horiz-adv-x="660" 
d="M604 186q0 -9 6 -12t11 -3h40q16 0 22.5 -23.5t6.5 -61.5q0 -39 -5.5 -62.5t-23.5 -23.5h-30q-13 0 -29 2t-31 7t-28 12.5t-21 17.5q-28 -20 -58 -29.5t-64 -9.5h-380v171h1l125 98q6 5 9 9.5t3 12.5v259h169v-150q17 6 34 7.5t34 1.5q49 0 88 -17.5t66 -46t41 -65.5
t14 -76v-18zM436 211q0 20 -11.5 30t-27.5 10q-15 0 -32 -10l-110 -70h145q15 0 26.5 8.5t9.5 31.5z" />
    <glyph glyph-name="uniFE34" unicode="&#xfe34;" horiz-adv-x="683" 
d="M544 39q-28 -20 -58 -29.5t-64 -9.5h-422q-18 0 -23.5 23.5t-5.5 62.5q0 38 6.5 61.5t22.5 23.5h43l125 98q6 5 9 9.5t3 12.5v259h169v-150q17 6 34 7.5t34 1.5q49 0 88 -17.5t66 -46t41 -65.5t14 -76v-18q0 -9 6 -12t11 -3h40q16 0 22.5 -23.5t6.5 -61.5
q0 -39 -5.5 -62.5t-23.5 -23.5h-32q-27 0 -58.5 9t-48.5 30zM458 211q0 20 -11.5 30t-27.5 10q-15 0 -32 -10l-110 -70h145q15 0 26.5 8.5t9.5 31.5z" />
    <glyph glyph-name="uniFE35" unicode="&#xfe35;" horiz-adv-x="628" 
d="M613 204q0 -43 -15.5 -80.5t-43 -65t-65 -43t-80.5 -15.5h-409q-18 0 -23.5 23.5t-5.5 62.5q0 38 6.5 61.5t22.5 23.5h30l125 98q6 5 9 9.5t3 12.5v259h169v-150q17 6 34 7.5t34 1.5q49 0 88 -17.5t66 -46t41 -65.5t14 -76zM445 211q0 20 -11.5 30t-27.5 10
q-15 0 -32 -10l-110 -70h145q15 0 26.5 8.5t9.5 31.5z" />
    <glyph glyph-name="uniFE36" unicode="&#xfe36;" horiz-adv-x="661" 
d="M604 186q0 -9 6 -12t11 -3h40q16 0 22.5 -23.5t6.5 -61.5q0 -39 -5.5 -62.5t-23.5 -23.5h-32q-27 0 -58.5 9t-48.5 30q-28 -20 -58 -29.5t-64 -9.5h-380v171h1l125 98q6 5 9 9.5t3 12.5v289h169v-180q17 6 34 7.5t34 1.5q49 0 88 -17.5t66 -46t41 -65.5t14 -76v-18z
M436 211q0 20 -11.5 30t-27.5 10q-15 0 -32 -10l-110 -70h145q15 0 26.5 8.5t9.5 31.5zM394 583h113v-113h-113v113z" />
    <glyph glyph-name="uniFE37" unicode="&#xfe37;" horiz-adv-x="683" 
d="M544 39q-28 -20 -58 -29.5t-64 -9.5h-422q-18 0 -23.5 23.5t-5.5 62.5q0 38 6.5 61.5t22.5 23.5h43l125 98q6 5 9 9.5t3 12.5v289h169v-180q17 6 34 7.5t34 1.5q49 0 88 -17.5t66 -46t41 -65.5t14 -76v-18q0 -9 6 -12t11 -3h40q16 0 22.5 -23.5t6.5 -61.5
q0 -39 -5.5 -62.5t-23.5 -23.5h-32q-27 0 -58.5 9t-48.5 30zM458 211q0 20 -11.5 30t-27.5 10q-15 0 -32 -10l-110 -70h145q15 0 26.5 8.5t9.5 31.5zM414 583h113v-113h-113v113z" />
    <glyph glyph-name="uniFE38" unicode="&#xfe38;" horiz-adv-x="635" 
d="M620 204q0 -43 -15.5 -80.5t-43 -65t-65 -43t-80.5 -15.5h-416q-18 0 -23.5 23.5t-5.5 62.5q0 38 6.5 61.5t22.5 23.5h37l125 98q6 5 9 9.5t3 12.5v284h169v-175q17 6 34 7.5t34 1.5q49 0 88 -17.5t66 -46t41 -65.5t14 -76zM452 211q0 20 -11.5 30t-27.5 10
q-15 0 -32 -10l-110 -70h145q15 0 26.5 8.5t9.5 31.5zM414 583h113v-113h-113v113z" />
    <glyph glyph-name="uniFE39" unicode="&#xfe39;" horiz-adv-x="519" 
d="M520 170q16 0 22.5 -23t6.5 -61q0 -39 -5.5 -62.5t-23.5 -23.5h-254q-32 0 -55 -23t-23 -56q0 -32 23 -54.5t55 -22.5h187v-160l-185 -8q-52 0 -97.5 19t-79 52.5t-52.5 78t-19 95.5q0 47 15 87.5t43 72.5q-20 26 -31 58.5t-11 65.5q0 43 16 80t43.5 64t64.5 42.5
t80 15.5h211v-192h-121l-2 37h-84q-21 -2 -29 -10.5t-9 -25.5q-2 -20 8.5 -33t25.5 -13h280z" />
    <glyph glyph-name="uniFE3A" unicode="&#xfe3a;" horiz-adv-x="526" 
d="M0 170h70q-7 63 4.5 107.5t37.5 73.5t63 42.5t80 13.5h201v-189h-121l-3 34h-73q-38 0 -38 -43q0 -20 9.5 -29.5t24.5 -9.5h272q16 0 22.5 -23t6.5 -61q0 -39 -5.5 -62.5t-23.5 -23.5h-527q-18 0 -23.5 23.5t-5.5 62.5q0 38 6.5 61.5t22.5 22.5z" />
    <glyph glyph-name="uniFE3B" unicode="&#xfe3b;" horiz-adv-x="421" 
d="M0 170h70q-7 63 4.5 107.5t37.5 73.5t63 42.5t80 13.5h77v-155h-73q-38 0 -38 -43q0 -20 9.5 -29.5t24.5 -9.5h146v-170h-401q-18 0 -23.5 23.5t-5.5 62.5q0 38 6.5 61.5t22.5 22.5z" />
    <glyph glyph-name="uniFE3C" unicode="&#xfe3c;" horiz-adv-x="519" 
d="M520 170q16 0 22.5 -23t6.5 -61q0 -39 -5.5 -62.5t-23.5 -23.5h-254q-32 0 -55 -23t-23 -56q0 -32 23 -54.5t55 -22.5h187v-160l-185 -8q-52 0 -97.5 19t-79 52.5t-52.5 78t-19 95.5q0 47 15 87.5t43 72.5q-20 26 -31 58.5t-11 65.5q0 43 16 80t43.5 64t64.5 42.5
t80 15.5h211v-192h-121l-2 37h-84q-21 -2 -29 -10.5t-9 -25.5q-2 -20 8.5 -33t25.5 -13h280zM193 596h126v-126h-126v126z" />
    <glyph glyph-name="uniFE3D" unicode="&#xfe3d;" horiz-adv-x="542" 
d="M0 170h70q-7 63 4.5 107.5t37.5 73.5t63 42.5t80 13.5h201v-189h-121l-3 34h-73q-38 0 -38 -43q0 -20 9.5 -29.5t24.5 -9.5h287q16 0 22.5 -23t6.5 -61q0 -39 -5.5 -62.5t-23.5 -23.5h-542q-18 0 -23.5 23.5t-5.5 62.5q0 38 6.5 61.5t22.5 22.5zM193 596h126v-126h-126
v126z" />
    <glyph glyph-name="uniFE3E" unicode="&#xfe3e;" horiz-adv-x="416" 
d="M0 170h70q-7 63 4.5 107.5t37.5 73.5t63 42.5t80 13.5h77v-155h-73q-38 0 -38 -43q0 -20 9.5 -29t24.5 -9h146v-171h-401q-18 0 -23.5 23.5t-5.5 62.5q0 38 6.5 61.5t22.5 22.5zM167 596h126v-126h-126v126z" />
    <glyph glyph-name="uniFE3F" unicode="&#xfe3f;" horiz-adv-x="832" 
d="M403 171v23q0 40 15 75.5t41.5 61.5t62 41.5t75.5 15.5q41 0 76.5 -15.5t61.5 -41.5t41 -61.5t15 -75.5v-23h40q16 0 22.5 -23.5t6.5 -61.5q0 -39 -5.5 -62.5t-23.5 -23.5h-590q-44 0 -83 17.5t-68.5 47t-47 69t-17.5 83.5v147h169v-147q0 -19 13.5 -32.5t32.5 -13.5h163
zM597 218q-23 0 -23 -25q0 -24 23 -24q24 0 24 24q0 25 -24 25zM542 573h113v-113h-113v113z" />
    <glyph glyph-name="uniFE40" unicode="&#xfe40;" horiz-adv-x="467" 
d="M234 219q-23 0 -23 -25q0 -24 23 -24q24 0 24 24q0 25 -24 25zM468 171q16 0 22.5 -23.5t6.5 -61.5q0 -39 -5.5 -62.5t-23.5 -23.5h-468q-18 0 -23.5 23.5t-5.5 62.5q0 38 6.5 61.5t22.5 23.5h40v23q0 40 15 75.5t41.5 61.5t62 41.5t75.5 15.5q41 0 76.5 -15.5
t61.5 -41.5t41 -61.5t15 -75.5v-23h40zM174 573h113v-113h-113v113z" />
    <glyph glyph-name="uniFE41" unicode="&#xfe41;" horiz-adv-x="385" 
d="M195 423q36 0 68 -13.5t55.5 -37.5t37.5 -55.5t14 -67.5v-61q0 -40 -15 -74.5t-40.5 -59.5t-60 -39.5t-72.5 -14.5h-182q-18 0 -23.5 23.5t-5.5 62.5q0 38 6.5 61.5t22.5 23.5h40q-9 16 -13.5 37t-4.5 41q0 36 13.5 67.5t36.5 55.5t55 37.5t68 13.5zM165 248
q0 -11 9 -19.5t20 -8.5h30v28q0 13 -8.5 21.5t-21.5 8.5q-11 0 -20 -8.5t-9 -21.5zM147 613h113v-113h-113v113z" />
    <glyph glyph-name="uniFE42" unicode="&#xfe42;" horiz-adv-x="830" 
d="M403 171v23q0 40 15 75.5t41.5 61.5t62 41.5t75.5 15.5q41 0 76.5 -15.5t61.5 -41.5t41 -61.5t15 -75.5v-23h40q16 0 22.5 -23.5t6.5 -61.5q0 -39 -5.5 -62.5t-23.5 -23.5h-590q-44 0 -83 17.5t-68.5 47t-47 69t-17.5 83.5v147h169v-147q0 -19 13.5 -32.5t32.5 -13.5h163
zM597 224q-14 0 -21 -8.5t-7 -22.5q0 -30 28 -30q29 0 29 30q0 14 -7 22.5t-22 8.5zM464 454v126h74v105h126v-105h79v-126h-279z" />
    <glyph glyph-name="uniFE43" unicode="&#xfe43;" horiz-adv-x="468" 
d="M468 171q16 0 22.5 -23.5t6.5 -61.5q0 -39 -5.5 -62.5t-23.5 -23.5h-468q-18 0 -23.5 23.5t-5.5 62.5q0 38 6.5 61.5t22.5 23.5h40v23q0 40 15 75.5t41.5 61.5t62 41.5t75.5 15.5q41 0 76.5 -15.5t61.5 -41.5t41 -61.5t15 -75.5v-23h40zM234 224q-14 0 -21 -8.5t-7 -22.5
q0 -30 28 -30q29 0 29 30q0 14 -7 22.5t-22 8.5zM100 454v126h74v105h126v-105h79v-126h-279z" />
    <glyph glyph-name="uniFE44" unicode="&#xfe44;" horiz-adv-x="385" 
d="M195 423q36 0 68 -13.5t55.5 -37.5t37.5 -55.5t14 -67.5v-61q0 -40 -15 -74.5t-40.5 -59.5t-60 -39.5t-72.5 -14.5h-182q-18 0 -23.5 23.5t-5.5 62.5q0 38 6.5 61.5t22.5 23.5h40q-9 16 -13.5 37t-4.5 41q0 36 13.5 67.5t36.5 55.5t55 37.5t68 13.5zM165 248
q0 -11 9 -19.5t20 -8.5h30v28q0 13 -8.5 21.5t-21.5 8.5q-11 0 -20 -8.5t-9 -21.5zM56 500v126h74v105h126v-105h79v-126h-279z" />
    <glyph glyph-name="uniFE45" unicode="&#xfe45;" horiz-adv-x="654" 
d="M654 171q16 0 22.5 -23.5t6.5 -61.5q0 -39 -5.5 -62.5t-23.5 -23.5h-46q-10 -51 -36 -94.5t-64 -75t-86 -49.5t-102 -18q-61 0 -115 23t-94 63t-63 94t-23 116v196h168v-196q0 -26 10 -49.5t27.5 -41t40.5 -27.5t49 -10q37 0 66 19t45 50h-10q-40 0 -75.5 16t-61 42.5
t-40.5 61.5t-15 73t15 73.5t40.5 62.5t61 43.5t75.5 16.5q41 0 76 -16t61 -43t41 -62.5t15 -74.5v-22h40zM393 193q0 -11 9 -19.5t20 -8.5h30v28q0 13 -8.5 21.5t-21.5 8.5q-11 0 -20 -8.5t-9 -21.5zM289 454v127h279v-127h-279z" />
    <glyph glyph-name="uniFE46" unicode="&#xfe46;" horiz-adv-x="468" 
d="M468 171q16 0 22.5 -23.5t6.5 -61.5q0 -39 -5.5 -62.5t-23.5 -23.5h-468q-18 0 -23.5 23.5t-5.5 62.5q0 38 6.5 61.5t22.5 23.5h40v23q0 40 15 75.5t41.5 61.5t62 41.5t75.5 15.5q41 0 76.5 -15.5t61.5 -41.5t41 -61.5t15 -75.5v-23h40zM234 224q-14 0 -21 -8.5t-7 -22.5
q0 -30 28 -30q29 0 29 30q0 14 -7 22.5t-22 8.5zM92 454v127h279v-127h-279z" />
    <glyph glyph-name="uniFE47" unicode="&#xfe47;" horiz-adv-x="390" 
d="M195 423q36 0 68 -13.5t55.5 -37.5t37.5 -55.5t14 -67.5v-61q0 -40 -15 -74.5t-40.5 -59.5t-60 -39.5t-72.5 -14.5h-182q-18 0 -23.5 23.5t-5.5 62.5q0 38 6.5 61.5t22.5 23.5h40q-9 16 -13.5 37t-4.5 41q0 36 13.5 67.5t36.5 55.5t55 37.5t68 13.5zM166 248
q0 -11 9 -19.5t20 -8.5h30v28q0 13 -8.5 21.5t-21.5 8.5q-11 0 -20 -8.5t-9 -21.5zM54 499v127h279v-127h-279z" />
    <glyph glyph-name="uniFE48" unicode="&#xfe48;" horiz-adv-x="775" 
d="M325 268q-2 2 -6 10.5t-6 11.5q-11 24 -1 49.5t34 36.5q8 3 16.5 5t21.5 2h12t14 -2l-1 -46q-4 0 -13.5 -0.5t-18.5 -3.5t-15 -9.5t-3 -17.5q2 -11 16 -11q3 0 9 2l55 25l19 -42q-7 -5 -13 -9.5t-12 -8.5t-14 -8.5t-21 -10.5l-81 -36l-23 49zM622 36q-53 -36 -120 -36
h-260q-45 0 -84.5 17.5t-69 47t-46.5 69t-17 83.5v144h168v-144q0 -20 14.5 -33.5t34.5 -13.5h260q21 0 35 13.5t14 33.5v334h168v-365q0 -8 5.5 -11.5t10.5 -3.5h40q17 0 23.5 -23.5t6.5 -61.5q0 -39 -5.5 -62.5t-24.5 -23.5h-52q-27 0 -57 8.5t-44 27.5z" />
    <glyph glyph-name="uniFE4A" unicode="&#xfe4a;" horiz-adv-x="477" 
d="M237 171q5 0 11 2.5t6 10.5q0 9 -4 13t-16 13l-194 143v93l187 185l106 -101l-107 -111q21 -16 42 -30q17 -13 35.5 -27t32.5 -25q22 -17 38 -30.5t26.5 -29.5t15.5 -37.5t5 -53.5q0 -8 5.5 -11.5t10.5 -3.5h40q17 0 23.5 -23.5t6.5 -61.5q0 -39 -5.5 -62.5t-24.5 -23.5
h-52q-22 0 -48 5.5t-43 19.5q-42 -25 -91 -25h-243q-19 0 -24.5 23.5t-5.5 62.5q0 38 6.5 61.5t23.5 23.5h237z" />
    <glyph glyph-name="uniFE4B" unicode="&#xfe4b;" horiz-adv-x="437" 
d="M238 171q5 0 11 2.5t6 10.5q0 9 -4 13t-16 13l-194 143v93l187 185l106 -101l-107 -111q21 -16 41 -30q17 -13 36 -27t33 -25q22 -17 38 -31.5t26.5 -31.5t15.5 -39t5 -54q0 -37 -13.5 -70t-37.5 -58t-56.5 -39t-70.5 -14h-244q-19 0 -24.5 23.5t-5.5 62.5q0 38 6.5 61.5
t23.5 23.5h238z" />
    <glyph glyph-name="uniFE4C" unicode="&#xfe4c;" horiz-adv-x="771" 
d="M630 337q22 -17 38 -30.5t26.5 -29.5t15.5 -37.5t5 -53.5q0 -8 5.5 -11.5t10.5 -3.5h40q17 0 23.5 -23.5t6.5 -61.5q0 -39 -5.5 -62.5t-24.5 -23.5h-52q-22 0 -48 5.5t-43 19.5q-42 -25 -91 -25h-296q-45 0 -84.5 17t-68.5 46t-46 69t-17 85v144h169v-144q0 -19 14 -33
t33 -14h290q5 0 11 2.5t6 10.5q0 9 -4 13t-16 13l-194 144v93l-55 53l138 138l54 -55l50 49l106 -101l-107 -111q21 -16 41 -30q17 -13 36 -27t33 -25z" />
    <glyph glyph-name="uniFE4D" unicode="&#xfe4d;" horiz-adv-x="491" 
d="M251 171q5 0 11 2.5t6 10.5q0 9 -4 13t-16 13l-194 143v93l-55 53l138 138l54 -55l50 49l106 -101l-107 -111q21 -16 42 -30q17 -13 35.5 -27t32.5 -25q22 -17 38 -30.5t26.5 -29.5t15.5 -37.5t5 -53.5q0 -8 5.5 -11.5t10.5 -3.5h40q17 0 23.5 -23.5t6.5 -61.5
q0 -39 -5.5 -62.5t-24.5 -23.5h-52q-22 0 -48 5.5t-43 19.5q-42 -25 -91 -25h-257q-19 0 -24.5 23.5t-5.5 62.5q0 38 6.5 61.5t23.5 23.5h251z" />
    <glyph glyph-name="uniFE4E" unicode="&#xfe4e;" horiz-adv-x="451" 
d="M269 184q0 9 -4 13t-16 13l-194 143v93l-55 53l138 138l54 -55l50 49l106 -101l-107 -111q21 -16 41 -30q17 -13 36 -27t33 -25q22 -17 38 -31.5t26.5 -31.5t15.5 -39t5 -54q0 -37 -13.5 -70t-37.5 -58t-56.5 -39t-70.5 -14h-257q-19 0 -24.5 23.5t-5.5 62.5
q0 38 6.5 61.5t23.5 23.5h251q5 0 11 2.5t6 10.5z" />
    <glyph glyph-name="uniFE4F" unicode="&#xfe4f;" horiz-adv-x="601" 
d="M601 171q16 0 22.5 -23.5t6.5 -61.5q0 -39 -5.5 -62.5t-23.5 -23.5h-40q-14 0 -26 2t-24 6q-36 -56 -94.5 -90t-128.5 -34q-54 0 -101.5 20.5t-83.5 55.5t-57 82t-21 100v179h171v-174q0 -19 7 -36t19.5 -29.5t29.5 -19.5t36 -7t35.5 7t29 19.5t20 29.5t7.5 36v404h170
v-371q0 -9 11 -9h40z" />
    <glyph glyph-name="uniFE50" unicode="&#xfe50;" horiz-adv-x="499" 
d="M292 171q11 0 11 14v365h171v-368q0 -37 -14.5 -70.5t-39 -58t-57.5 -39t-71 -14.5h-235v171h235zM262 238l-81 332l-166 -41l81 -331z" />
    <glyph glyph-name="uniFE51" unicode="&#xfe51;" horiz-adv-x="537" 
d="M96 198l-81 331l166 41l81 -332zM37 0v171h267q11 0 11 14v365h171v-368q0 -11 11 -11h40q16 0 22.5 -23.5t6.5 -61.5q0 -39 -5.5 -62.5t-23.5 -23.5h-41q-54 0 -97 26q-43 -26 -95 -26h-267z" />
    <glyph glyph-name="uniFE52" unicode="&#xfe52;" horiz-adv-x="504" 
d="M297 171q11 0 11 14v365h171v-368q0 -37 -14.5 -70.5t-39 -58t-57.5 -39t-71 -14.5h-235v171h235zM267 238l-81 332l-166 -41l81 -331zM313 710h-222q-31 -1 -49 -11q-27 -15 -62 -93l106 -38q8 20 11 22t5 4q5 4 13 4.5t15 0.5h183v111z" />
    <glyph glyph-name="uniFE53" unicode="&#xfe53;" horiz-adv-x="554" 
d="M113 198l-81 331l166 41l81 -332zM54 0v171h267q11 0 11 14v365h171v-368q0 -11 11 -11h40q16 0 22.5 -23.5t6.5 -61.5q0 -39 -5.5 -62.5t-23.5 -23.5h-41q-54 0 -97 26q-43 -26 -95 -26h-267zM313 599h-183q-7 0 -15 -0.5t-13 -4.5q-2 -2 -5 -4t-11 -22l-106 38
q35 78 62 93q18 10 49 11h222v-111z" />
    <glyph glyph-name="uniFE54" unicode="&#xfe54;" horiz-adv-x="499" 
d="M292 171q11 0 11 14v365h171v-368q0 -37 -14.5 -70.5t-39 -58t-57.5 -39t-71 -14.5h-235v171h235zM262 238l-81 332l-166 -41l81 -331zM92 632l-31 -14l23 -49l81 36q13 6 21 10.5t14 8.5t12 8.5t13 9.5l-19 42l-55 -25q-6 -2 -9 -2q-14 0 -16 11q-3 11 3 17.5t15 9.5
t18.5 3.5t13.5 0.5l1 46q-8 2 -14 2h-12q-13 0 -21.5 -2t-16.5 -5q-24 -11 -34 -36.5t1 -49.5q2 -3 6 -11.5t6 -10.5z" />
    <glyph glyph-name="uniFE55" unicode="&#xfe55;" horiz-adv-x="537" 
d="M96 198l-81 331l166 41l81 -332zM37 0v171h267q11 0 11 14v365h171v-368q0 -11 11 -11h40q16 0 22.5 -23.5t6.5 -61.5q0 -39 -5.5 -62.5t-23.5 -23.5h-41q-54 0 -97 26q-43 -26 -95 -26h-267zM49 632q-2 2 -6 10.5t-6 11.5q-11 24 -1 49.5t34 36.5q8 3 16.5 5t21.5 2h12
t14 -2l-1 -46q-4 0 -13.5 -0.5t-18.5 -3.5t-15 -9.5t-3 -17.5q2 -11 16 -11q3 0 9 2l55 25l19 -42q-7 -5 -13 -9.5t-12 -8.5t-14 -8.5t-21 -10.5l-81 -36l-23 49z" />
    <glyph glyph-name="uniFE56" unicode="&#xfe56;" horiz-adv-x="499" 
d="M292 171q11 0 11 14v365h171v-368q0 -37 -14.5 -70.5t-39 -58t-57.5 -39t-71 -14.5h-235v171h235zM262 238l-81 332l-166 -41l81 -331zM139 -149l-31 -14l23 -49l81 36q13 6 21 10.5t14 8.5t12 8.5t13 9.5l-19 42l-55 -25q-6 -2 -9 -2q-14 0 -16 11q-3 11 3 17.5t15 9.5
t18.5 3.5t13.5 0.5l1 46q-8 2 -14 2h-12q-13 0 -21.5 -2t-16.5 -5q-24 -11 -34 -36.5t1 -49.5q2 -3 6 -11.5t6 -10.5z" />
    <glyph glyph-name="uniFE57" unicode="&#xfe57;" horiz-adv-x="537" 
d="M96 198l-81 331l166 41l81 -332zM37 0v171h267q11 0 11 14v365h171v-368q0 -11 11 -11h40q16 0 22.5 -23.5t6.5 -61.5q0 -39 -5.5 -62.5t-23.5 -23.5h-41q-54 0 -97 26q-43 -26 -95 -26h-267zM139 -149q-2 2 -6 10.5t-6 11.5q-11 24 -1 49.5t34 36.5q8 3 16.5 5t21.5 2
h12t14 -2l-1 -46q-4 0 -13.5 -0.5t-18.5 -3.5t-15 -9.5t-3 -17.5q2 -11 16 -11q3 0 9 2l55 25l19 -42q-7 -5 -13 -9.5t-12 -8.5t-14 -8.5t-21 -10.5l-81 -36l-23 49z" />
    <glyph glyph-name="uniFE58" unicode="&#xfe58;" horiz-adv-x="499" 
d="M292 171q11 0 11 14v365h171v-368q0 -37 -14.5 -70.5t-39 -58t-57.5 -39t-71 -14.5h-235v171h235zM262 238l-81 332l-166 -41l81 -331z" />
    <glyph glyph-name="uniFE59" unicode="&#xfe59;" horiz-adv-x="537" 
d="M96 198l-81 331l166 41l81 -332zM37 0v171h267q11 0 11 14v365h171v-368q0 -11 11 -11h40q16 0 22.5 -23.5t6.5 -61.5q0 -39 -5.5 -62.5t-23.5 -23.5h-41q-54 0 -97 26q-43 -26 -95 -26h-267z" />
    <glyph glyph-name="uniFE5A" unicode="&#xfe5a;" horiz-adv-x="273" 
d="M0 0q-18 0 -23.5 23.5t-5.5 62.5q0 38 6.5 61.5t22.5 23.5h40q11 0 11 14v365h171v-368q0 -11 11 -11h40q16 0 22.5 -23.5t6.5 -61.5q0 -39 -5.5 -62.5t-23.5 -23.5h-41q-54 0 -97 26q-43 -26 -95 -26h-40z" />
    <glyph glyph-name="uniFE5B" unicode="&#xfe5b;" horiz-adv-x="247" 
d="M40 171q11 0 11 14v365h171v-368q0 -37 -14.5 -70.5t-39 -58t-57.5 -39t-71 -14.5h-40q-18 0 -23.5 23.5t-5.5 62.5q0 38 6.5 61.5t22.5 23.5h40z" />
    <glyph glyph-name="uniFE5C" unicode="&#xfe5c;" horiz-adv-x="678" 
d="M678 171q17 0 23.5 -23.5t6.5 -61.5q0 -39 -5.5 -62.5t-24.5 -23.5h-52q-23 0 -48.5 5.5t-51.5 23.5q-23 -14 -48.5 -21.5t-52.5 -7.5h-2q-40 3 -75.5 18.5t-62.5 41t-42.5 60.5t-15.5 77q0 11 1.5 21.5t3.5 16.5h-25q-10 0 -16.5 -6.5t-6.5 -16.5v-405h-159v405
q0 38 14 71.5t39 58.5t58 39t71 14h226q40 -2 74.5 -18t60 -42.5t40 -61.5t14.5 -76v-10q0 -4 2 -8q4 -8 14 -8h40zM425 161q16 0 27 10.5t11 25.5q0 16 -10.5 26t-26.5 12h-1q-16 -2 -26 -12t-10 -26q0 -15 10 -25.5t26 -10.5z" />
    <glyph glyph-name="uniFE5D" unicode="&#xfe5d;" horiz-adv-x="488" 
d="M488 171q17 0 23.5 -23.5t6.5 -61.5q0 -39 -5.5 -62.5t-24.5 -23.5h-40q-56 0 -100 30q-47 -30 -104 -30t-104 30q-43 -30 -100 -30h-40q-19 0 -24.5 23.5t-5.5 62.5q0 38 6.5 61.5t23.5 23.5h40q11 0 11 11v205h193q41 0 76 -15.5t61 -41.5t41 -61.5t15 -75.5v-11
q0 -11 11 -11h40zM274 195q0 11 -9 20t-20 8h-30v-28q0 -13 8.5 -22t21.5 -8q11 0 19.5 8.5t9.5 21.5z" />
    <glyph glyph-name="uniFE5E" unicode="&#xfe5e;" horiz-adv-x="501" 
d="M292 387q39 0 74.5 -15t62 -41t42 -61.5t15.5 -76.5t-15.5 -76t-42 -61t-62 -41t-74.5 -15q-29 0 -55 8.5t-49 22.5q-22 -14 -47 -22.5t-53 -8.5h-88q-19 0 -24.5 23.5t-5.5 62.5q0 38 6.5 61.5t23.5 23.5h88q4 0 7.5 3t3.5 7v38h-45v168h238zM322 195q0 11 -9 20t-20 8
h-30v-28q0 -13 8.5 -22t21.5 -8q11 0 19.5 8.5t9.5 21.5z" />
    <glyph glyph-name="uniFE5F" unicode="&#xfe5f;" horiz-adv-x="601" 
d="M601 171q16 0 22.5 -23.5t6.5 -61.5q0 -39 -5.5 -62.5t-23.5 -23.5h-40q-14 0 -26 2t-24 6q-36 -56 -94.5 -90t-128.5 -34q-54 0 -101.5 20.5t-83.5 55.5t-57 82t-21 100v119h171v-114q0 -19 7 -36t19.5 -29.5t29.5 -19.5t36 -7t35.5 7t29 19.5t20 29.5t7.5 36v181h170
v-148q0 -9 11 -9h40zM205 454h126v-126h-126v126z" />
    <glyph glyph-name="uniFE60" unicode="&#xfe60;" horiz-adv-x="273" 
d="M0 0q-18 0 -23.5 23.5t-5.5 62.5q0 38 6.5 61.5t22.5 23.5h40q11 0 11 14v176h171v-179q0 -11 11 -11h40q16 0 22.5 -23.5t6.5 -61.5q0 -39 -5.5 -62.5t-23.5 -23.5h-41q-54 0 -97 26q-43 -26 -95 -26h-40zM71 554h126v-126h-126v126z" />
    <glyph glyph-name="uniFE61" unicode="&#xfe61;" horiz-adv-x="247" 
d="M40 171q11 0 11 14v176h171v-179q0 -37 -14.5 -70.5t-39 -58t-57.5 -39t-71 -14.5h-40q-18 0 -23.5 23.5t-5.5 62.5q0 38 6.5 61.5t22.5 23.5h40zM71 554h126v-126h-126v126z" />
    <glyph glyph-name="uniFE62" unicode="&#xfe62;" horiz-adv-x="440" 
d="M440 171q16 0 22.5 -23.5t6.5 -61.5q0 -39 -5.5 -62.5t-23.5 -23.5h-45q-9 -44 -28 -75t-46.5 -53t-62 -37t-73.5 -27q-3 -1 -15.5 -5t-26 -8.5t-25 -8t-13.5 -4.5l-47 154q2 1 13 5t23.5 8.5t24 8.5t13.5 5q5 1 16.5 6t24.5 10.5t24.5 11t15.5 9.5h-6q-40 0 -75.5 16
t-61 42.5t-40.5 61.5t-15 73q0 39 15 74t40.5 61.5t61 42.5t75.5 16q41 0 76 -15.5t61 -42.5t41 -62t15 -74v-22h40zM178 193q0 -11 9 -19.5t20 -8.5h30v28q0 13 -8.5 21.5t-21.5 8.5q-11 0 -20 -8.5t-9 -21.5z" />
    <glyph glyph-name="uniFE63" unicode="&#xfe63;" horiz-adv-x="440" 
d="M440 171q16 0 22.5 -23.5t6.5 -61.5q0 -39 -5.5 -62.5t-23.5 -23.5h-45q-9 -44 -28 -75t-46.5 -53t-62 -37t-73.5 -27q-3 -1 -15.5 -5t-26 -8.5t-25 -8t-13.5 -4.5l-47 154q2 1 13 5t23.5 8.5t24 8.5t13.5 5q5 1 16.5 6t24.5 10.5t24.5 11t15.5 9.5h-6q-40 0 -75.5 16
t-61 42.5t-40.5 61.5t-15 73q0 39 15 74t40.5 61.5t61 42.5t75.5 16q41 0 76 -15.5t61 -42.5t41 -62t15 -74v-22h40zM180 468q-2 2 -6 10.5t-6 11.5q-11 24 -1 49.5t34 36.5q8 3 16.5 5t21.5 2h12t14 -2l-1 -46q-4 0 -13.5 -0.5t-18.5 -3.5t-15 -9.5t-3 -17.5q2 -11 16 -11
q3 0 9 2l55 25l19 -42q-7 -5 -13 -9.5t-12 -8.5t-14 -8.5t-21 -10.5l-81 -36l-23 49zM178 193q0 -11 9 -19.5t20 -8.5h30v28q0 13 -8.5 21.5t-21.5 8.5q-11 0 -20 -8.5t-9 -21.5z" />
    <glyph glyph-name="uniFE64" unicode="&#xfe64;" horiz-adv-x="451" 
d="M451 171q16 0 22.5 -23.5t6.5 -61.5q0 -39 -5.5 -62.5t-23.5 -23.5h-40q-56 0 -100 30q-47 -30 -104 -30q-40 0 -75.5 15t-61 41t-40.5 61t-15 75q0 39 14.5 74.5t39.5 62t59.5 42t74.5 15.5h30v33h168v-237q0 -11 10 -11h40zM237 223h-30q-11 0 -20 -8.5t-9 -19.5
q0 -13 9 -21.5t20 -8.5q13 0 21.5 8.5t8.5 21.5v28z" />
    <glyph glyph-name="uniFE65" unicode="&#xfe65;" horiz-adv-x="451" 
d="M451 171q16 0 22.5 -23.5t6.5 -61.5q0 -39 -5.5 -62.5t-23.5 -23.5h-40q-56 0 -100 30q-47 -30 -104 -30q-40 0 -75.5 15t-61 41t-40.5 61t-15 75q0 39 14.5 74.5t39.5 62t59.5 42t74.5 15.5h30v33h168v-237q0 -11 10 -11h40zM237 223h-30q-11 0 -20 -8.5t-9 -19.5
q0 -13 9 -21.5t20 -8.5q13 0 21.5 8.5t8.5 21.5v28zM90 499v127h279v-127h-279z" />
    <glyph glyph-name="uniFE66" unicode="&#xfe66;" horiz-adv-x="451" 
d="M451 171q16 0 22.5 -23.5t6.5 -61.5q0 -39 -5.5 -62.5t-23.5 -23.5h-40q-56 0 -100 30q-47 -30 -104 -30q-40 0 -75.5 15t-61 41t-40.5 61t-15 75q0 39 14.5 74.5t39.5 62t59.5 42t74.5 15.5h30v33h168v-237q0 -11 10 -11h40zM237 223h-30q-11 0 -20 -8.5t-9 -19.5
q0 -13 9 -21.5t20 -8.5q13 0 21.5 8.5t8.5 21.5v28zM150 508q-2 2 -6 10.5t-6 11.5q-11 24 -1 49.5t34 36.5q8 3 16.5 5t21.5 2h12t14 -2l-1 -46q-4 0 -13.5 -0.5t-18.5 -3.5t-15 -9.5t-3 -17.5q2 -11 16 -11q3 0 9 2l55 25l19 -42q-7 -5 -13 -9.5t-12 -8.5t-14 -8.5
t-21 -10.5l-81 -36l-23 49z" />
    <glyph glyph-name="uniFE67" unicode="&#xfe67;" horiz-adv-x="501" 
d="M211 0v-35q0 -14 17 -14h41v49h-58zM-1 0q-18 0 -23.5 23.5t-5.5 62.5q0 38 6.5 61.5t22.5 23.5h60v22q0 41 15 76t40.5 61t59 41t71.5 15t73.5 -15t62.5 -41t43.5 -61t16.5 -76v-22h60q16 0 22.5 -23.5t6.5 -61.5q0 -39 -5.5 -62.5t-23.5 -23.5h-99q-8 0 -9 -9t-1 -12
q0 -7 1 -15.5t9 -8.5h17v-130h-180q-37 0 -68.5 13.5t-55 37t-36.5 55.5t-13 69h-67zM240 229q-11 0 -20 -9t-9 -20v-30h28q13 0 21.5 8.5t8.5 21.5q0 11 -8 20t-21 9z" />
    <glyph glyph-name="uniFE68" unicode="&#xfe68;" horiz-adv-x="676" 
d="M469 386q39 0 74 -15t61.5 -41t41.5 -61t15 -76q0 -40 -15 -75t-41.5 -61t-61.5 -41.5t-74 -15.5h-469q-18 0 -23.5 23.5t-5.5 62.5q0 38 6.5 61.5t22.5 23.5h82q0 27 2 46t12 45q-30 30 -62 75l108 101q29 -26 47 -38.5t25 -13.5h255zM280 170q13 0 22 8.5t9 21.5
q0 11 -9 20t-22 9q-11 0 -19.5 -9t-8.5 -20q0 -13 8.5 -21.5t19.5 -8.5zM461 170q11 0 19.5 8t8.5 20q0 13 -8.5 21.5t-19.5 9.5h-19v-59h19z" />
    <glyph glyph-name="uniFE69" unicode="&#xfe69;" horiz-adv-x="627" 
d="M627 171q16 0 22.5 -23.5t6.5 -61.5q0 -39 -5.5 -62.5t-23.5 -23.5h-40q8 -21 8 -41q0 -42 -13.5 -77.5t-38.5 -62t-59.5 -41t-76.5 -14.5h-180q-42 0 -79 16t-64 43.5t-43 64.5t-16 79v251h169v-251q0 -14 10 -24.5t23 -10.5h174q16 2 27.5 10.5t11.5 22.5
q0 13 -8.5 22.5t-20.5 12.5h-151v171h367z" />
    <glyph glyph-name="uniFE6A" unicode="&#xfe6a;" horiz-adv-x="629" 
d="M629 171q16 0 22.5 -23.5t6.5 -61.5q0 -39 -5.5 -62.5t-23.5 -23.5h-42q8 -21 8 -41q0 -42 -13.5 -77.5t-38.5 -62t-59.5 -41t-76.5 -14.5h-180q-42 0 -79 16t-64 43.5t-43 64.5t-16 79v251h169v-251q0 -14 10 -24.5t23 -10.5h174q16 2 27.5 10.5t11.5 22.5
q0 13 -8.5 22.5t-20.5 12.5h-151v171h369zM171 -426v127h279v-127h-279z" />
    <glyph glyph-name="uniFE6B" unicode="&#xfe6b;" horiz-adv-x="353" 
d="M0 0q-18 0 -23.5 23.5t-5.5 62.5q0 38 6.5 61.5t22.5 23.5h80q11 0 11 14v176h171v-179q0 -11 11 -11h80q16 0 22.5 -23.5t6.5 -61.5q0 -39 -5.5 -62.5t-23.5 -23.5h-81q-54 0 -97 26q-43 -26 -95 -26h-80zM36 -215v127h279v-127h-279z" />
    <glyph glyph-name="uniFE6C" unicode="&#xfe6c;" horiz-adv-x="347" 
d="M140 171q11 0 11 14v176h171v-179q0 -37 -14.5 -70.5t-39 -58t-57.5 -39t-71 -14.5h-140q-18 0 -23.5 23.5t-5.5 62.5q0 38 6.5 61.5t22.5 23.5h140zM0 -215v127h259v-127h-259z" />
    <glyph glyph-name="uniFE6D" unicode="&#xfe6d;" horiz-adv-x="626" 
d="M626 171q16 0 22.5 -23.5t6.5 -61.5q0 -39 -5.5 -62.5t-23.5 -23.5h-39q8 -21 8 -41q0 -42 -13.5 -77.5t-38.5 -62t-59.5 -41t-76.5 -14.5h-180q-42 0 -79 16t-64 43.5t-43 64.5t-16 79v251h169v-251q0 -14 10 -24.5t23 -10.5h174q16 2 27.5 10.5t11.5 22.5
q0 13 -8.5 22.5t-20.5 12.5h-151v171h366zM98 304q-2 2 -6 10.5t-6 11.5q-11 24 -1.5 49.5t34.5 36.5q7 3 16 5t22 2h11.5t14.5 -2l-1 -46q-4 0 -13.5 -0.5t-18.5 -3.5t-15 -9.5t-3 -17.5q2 -11 16 -11q3 0 9 2l55 25l19 -42q-7 -5 -13 -9.5t-12 -8.5t-14 -8.5t-21 -10.5
l-81 -36l-23 49z" />
    <glyph glyph-name="uniFE6E" unicode="&#xfe6e;" horiz-adv-x="273" 
d="M0 0q-18 0 -23.5 23.5t-5.5 62.5q0 38 6.5 61.5t22.5 23.5h40q11 0 11 14v176h171v-179q0 -11 11 -11h40q16 0 22.5 -23.5t6.5 -61.5q0 -39 -5.5 -62.5t-23.5 -23.5h-41q-54 0 -97 26q-43 -26 -95 -26h-40zM48 468q-2 2 -6 10.5t-6 11.5q-11 24 -1 49.5t34 36.5
q8 3 16.5 5t21.5 2h12t14 -2l-1 -46q-4 0 -13.5 -0.5t-18.5 -3.5t-15 -9.5t-3 -17.5q2 -11 16 -11q3 0 9 2l55 25l19 -42q-7 -5 -13 -9.5t-12 -8.5t-14 -8.5t-21 -10.5l-81 -36l-23 49z" />
    <glyph glyph-name="uniFE6F" unicode="&#xfe6f;" horiz-adv-x="247" 
d="M40 171q11 0 11 14v176h171v-179q0 -37 -14.5 -70.5t-39 -58t-57.5 -39t-71 -14.5h-40q-18 0 -23.5 23.5t-5.5 62.5q0 38 6.5 61.5t22.5 23.5h40zM48 468l-31 -14l23 -49l81 36q13 6 21 10.5t14 8.5t12 8.5t13 9.5l-19 42l-55 -25q-6 -2 -9 -2q-14 0 -16 11q-3 11 3 17.5
t15 9.5t18.5 3.5t13.5 0.5l1 46q-8 2 -14 2h-12q-13 0 -21.5 -2t-16.5 -5q-24 -11 -34 -36.5t1 -49.5q2 -3 6 -11.5t6 -10.5z" />
    <glyph glyph-name="uniFE73" unicode="&#xfe73;" horiz-adv-x="550" 
 />
    <glyph glyph-name="_004" horiz-adv-x="810" 
 />
    <glyph glyph-name="lellahisoalte" horiz-adv-x="550" 
 />
  </font>
</defs>
</svg>
